<svg width="37" height="37" viewBox="0 0 37 37" fill="none" xmlns="http://www.w3.org/2000/svg">
<path d="M18.4999 0C15.7435 0 13.6217 0.722906 12.0961 1.91257C10.5706 3.10081 9.69397 4.70031 9.07209 6.1817C8.45021 7.66166 8.05175 9.07759 7.64902 10.0951C7.24629 11.1125 6.91329 11.5053 6.62583 11.6063C2.70953 12.9924 2.63645e-06 16.3935 2.63645e-06 20.8561C-0.000694953 21.2187 0.137065 21.5679 0.385147 21.8324C0.63323 22.0969 0.97292 22.2567 1.33484 22.2792C3.12365 22.3745 3.98461 22.7943 4.4471 23.2127C4.9096 23.6325 5.12164 24.1875 5.24829 24.9488C5.37353 25.7087 5.38633 26.5995 5.55852 27.5715C5.64533 28.0567 5.76345 28.5704 6.09218 29.0841C6.42233 29.5964 7.00437 30.0689 7.64902 30.2838C9.15748 30.7875 10.1209 31.0992 10.7172 31.4407C11.3149 31.7822 11.6692 32.0853 12.1402 33.0857C12.5899 34.0363 13.199 35.078 14.2748 35.8436C15.3507 36.6078 16.8079 37.0219 18.6337 36.9991C21.6236 36.9621 23.4081 35.4153 24.326 34.0634C24.7842 33.3889 25.1073 32.8011 25.3933 32.4183C25.6779 32.0355 25.8487 31.8861 26.149 31.7965C28.0957 31.2102 29.331 30.16 30.0183 28.9945C30.7042 27.8276 30.8864 26.7148 31.0856 25.9264C31.2848 25.1366 31.4072 24.7922 31.8413 24.5034C32.2753 24.2131 33.3084 23.8972 35.4886 24.0138C35.6828 24.0259 35.8773 23.998 36.0603 23.9319C36.2433 23.8658 36.4108 23.7629 36.5524 23.6296C36.694 23.4962 36.8068 23.3352 36.8838 23.1566C36.9608 22.9779 37.0003 22.7853 36.9999 22.5908C36.9999 20.6284 37.0284 18.3516 36.1546 16.2312C35.2808 14.1109 33.3483 12.2979 30.1065 11.5622C30.0724 11.5537 30.0325 11.5765 29.8845 11.3843C29.7365 11.1937 29.5501 10.8151 29.3509 10.3171C28.9524 9.32093 28.5241 7.868 27.8837 6.35958C27.2433 4.85115 26.3311 3.23173 24.8141 2.0008C23.2985 0.771289 21.2109 0 18.4999 0ZM18.4999 2.84609C20.6886 2.84609 22.0306 3.40961 23.0367 4.22501C24.0414 5.04042 24.7159 6.18881 25.2595 7.47097C25.8046 8.75171 26.1888 10.1463 26.6826 11.3843C26.9302 12.0034 27.1963 12.5769 27.6162 13.119C28.036 13.6598 28.6977 14.1863 29.4846 14.3642C32.0618 14.9476 32.9612 15.9608 33.5304 17.344C33.9559 18.3729 33.9374 19.8372 33.9759 21.2574C32.456 21.3286 31.1838 21.5463 30.2844 22.1454C29.0563 22.9651 28.5767 24.2316 28.3277 25.2149C28.0786 26.1968 27.9122 26.9937 27.572 27.5715C27.2319 28.1478 26.7467 28.6487 25.3037 29.0841C24.2904 29.3887 23.5618 30.0845 23.0808 30.7292C22.5998 31.3724 22.3081 32.0071 21.968 32.508C21.2892 33.5098 20.7982 34.1246 18.5896 34.153C17.1907 34.1715 16.4379 33.8983 15.9199 33.5297C15.4033 33.1626 15.0718 32.6318 14.7203 31.8847C14.0842 30.5385 13.1919 29.5523 12.1402 28.9504C11.0886 28.3484 9.9914 28.0567 8.53844 27.5715C8.45875 27.5444 8.51852 27.6099 8.49432 27.5715C8.42801 27.415 8.38302 27.2504 8.36055 27.0819C8.26094 26.5184 8.22963 25.5393 8.0489 24.4593C7.8696 23.3777 7.44125 22.1041 6.35971 21.1236C5.55568 20.395 4.38591 19.9568 2.97992 19.7006C3.34992 17.0039 4.9281 15.2066 7.56079 14.2745C9.06925 13.7409 9.81636 12.426 10.3173 11.1623C10.8182 9.89726 11.174 8.4913 11.6962 7.24898C12.2171 6.00666 12.8802 4.95503 13.875 4.17948C14.8697 3.40534 16.2273 2.84609 18.4999 2.84609ZM14.9423 8.53826C13.764 8.53826 12.8077 9.81188 12.8077 11.3843C12.8077 12.9568 13.764 14.2304 14.9423 14.2304C16.1206 14.2304 17.0769 12.9568 17.0769 11.3843C17.0769 9.81188 16.1206 8.53826 14.9423 8.53826ZM20.6346 8.53826C19.4563 8.53826 18.4999 9.81188 18.4999 11.3843C18.4999 12.9568 19.4563 14.2304 20.6346 14.2304C21.8129 14.2304 22.7692 12.9568 22.7692 11.3843C22.7692 9.81188 21.8129 8.53826 20.6346 8.53826Z" fill="#85CB33"/>
</svg>
