<svg width="1440" height="103" viewBox="0 0 1440 103" fill="none" xmlns="http://www.w3.org/2000/svg">
<rect width="1440" height="40" fill="#430544"/>
<path d="M479.986 40H0V44.5241C6.27288 49.7011 6.71756 46.1836 8.54962 52.2234C9.58513 55.6372 11.3442 73.0292 10.9924 76.1929C10.6406 79.3566 15.8779 98.3108 19.542 79.7116C19.7741 78.5336 21.2536 73.1387 19.542 66.6039C18.1906 61.4443 21.2536 57.5938 21.2536 56.8252C28.2893 53.23 40.9538 55.9623 43.4163 56.8252C45.8788 57.688 57.8396 69.1924 68.3933 60.9955C78.947 52.7986 88.4453 51.792 93.7221 52.2234C98.9989 52.6548 104.979 57.9756 98.9989 66.6039C94.2146 73.5065 101.374 76.6956 103.817 76.6956C105.649 78.5064 116.349 75.0884 109.313 66.6039C103.684 59.8163 105.8 57.0648 107.09 55.2433C112.719 50.7854 114.478 51.3606 122.921 49.9225C129.675 48.7721 132.302 53.4697 132.771 55.9623C134.881 57.5442 134.53 66.6039 135.937 70.4866C137.344 74.3693 132.419 86.7365 134.53 90.1879C136.218 92.9489 140.862 92.3929 142.973 91.7697C147.194 92.2011 147.546 86.7365 144.731 84.4357C142.48 82.595 142.621 67.1791 142.973 59.7013C144.38 56.2499 147.898 55.2433 157.396 55.2433C166.894 55.2433 172.523 59.7013 173.226 60.2765C173.93 60.8517 179.91 68.6171 187.65 66.6039C193.841 64.9933 194.451 62.5773 193.982 61.5707C199.611 55.2433 204.887 55.8185 208.405 55.2433C211.923 54.6681 219.311 55.5309 222.477 57.1128C225.01 58.3782 224.47 65.6931 223.884 69.1924C225.291 71.7809 221.773 80.9844 222.477 82.8538C223.18 84.7233 225.995 85.5861 230.92 85.4423C235.845 85.2985 237.252 81.8472 235.493 80.9844C233.734 80.1215 231.623 71.3494 230.92 64.8782C230.357 59.7013 240.066 58.1194 244.991 57.9756C250.62 58.3111 257.71 57.1128 262.595 61.5707C267.279 65.8442 276.652 73.2668 281.577 73.5065C285.33 73.7941 288.202 66.7477 291.298 61.5707C294.393 56.3937 302.685 59.7971 303.74 58.9822C307.68 56.9114 316.17 57.4483 319.922 57.9756C323.44 57.4004 329.772 62.5773 328.365 64.8782C327.24 66.7189 327.896 80.6967 328.365 87.4556C329.186 88.4622 332.094 90.3029 337.16 89.6126C342.226 88.9224 341.616 84.8191 340.678 82.8538C339.271 76.2867 336.597 62.5486 337.16 60.1327C337.864 57.1128 343.14 53.5176 348.769 53.6615C353.272 53.7765 355.336 55.3392 355.805 56.1061C360.73 56.1061 355.805 59.7013 360.026 65.4534C364.248 71.2056 374.45 70.6304 378.319 69.3362C381.415 68.3008 383.831 65.4534 384.651 64.1592C389.999 61.5132 396.261 61.331 398.723 61.5707C401.186 62.9129 409.399 70.9468 412.214 70.4866C415.732 69.9114 419.781 65.8849 422.595 61.5707C425.41 57.2566 425.107 52.2234 435.661 52.6548C444.104 53 447.856 59.126 448.677 62.1459C453.602 64.7344 451.815 97.663 452.519 98.8134C453.223 99.9639 454.146 103.842 458.015 102.835C461.885 101.828 459.934 76.814 459.583 68.4733C459.301 61.8008 462.983 58.3111 464.859 57.4004C477.524 52.3384 480.221 43.691 479.986 40Z" fill="#430544"/>
<path d="M1001.98 40H465.13L461 44.5241C468.07 49.7011 468.571 46.1836 470.636 52.2234C471.803 55.6372 473.786 73.0292 473.389 76.1929C472.993 79.3566 478.896 98.3108 483.025 79.7116C483.287 78.5336 484.955 73.1387 483.025 66.6039C481.502 61.4443 484.955 57.5938 484.955 56.8252C492.884 53.23 507.158 55.9623 509.934 56.8252C512.709 57.688 526.19 69.1924 538.085 60.9955C549.98 52.7986 560.685 51.792 566.633 52.2234C572.58 52.6548 579.32 57.9756 572.58 66.6039C567.188 73.5065 575.257 76.6956 578.01 76.6956C580.075 78.5064 592.135 75.0884 584.205 66.6039C577.861 59.8163 580.246 57.0648 581.699 55.2433C588.043 50.7854 590.026 51.3606 599.542 49.9225C607.154 48.7721 610.115 53.4697 610.644 55.9623C613.023 57.5442 612.626 66.6039 614.212 70.4866C615.798 74.3693 610.247 86.7366 612.626 90.1879C614.529 92.9489 619.763 92.3929 622.142 91.7697C626.9 92.2011 627.296 86.7365 624.124 84.4357C621.587 82.595 621.745 67.1791 622.142 59.7013C623.728 56.2499 627.693 55.2433 638.398 55.2433C649.104 55.2433 655.448 59.7013 656.241 60.2765C657.034 60.8517 663.774 68.6171 672.497 66.6039C679.475 64.9933 680.162 62.5774 679.634 61.5707C685.978 55.2433 691.925 55.8185 695.89 55.2433C699.855 54.6681 708.181 55.5309 711.75 57.1128C714.605 58.3783 713.997 65.6931 713.336 69.1924C714.922 71.7809 710.957 80.9844 711.75 82.8538C712.543 84.7233 715.715 85.5861 721.266 85.4423C726.817 85.2985 728.403 81.8472 726.42 80.9844C724.438 80.1215 722.059 71.3494 721.266 64.8782C720.631 59.7013 731.575 58.1194 737.126 57.9756C743.47 58.3111 751.461 57.1128 756.967 61.5707C762.245 65.8442 772.81 73.2668 778.361 73.5065C782.59 73.7941 785.828 66.7477 789.317 61.5707C792.806 56.3937 802.151 59.7971 803.34 58.9822C807.781 56.9114 817.35 57.4483 821.579 57.9756C825.544 57.4004 832.681 62.5774 831.095 64.8782C829.826 66.7189 830.566 80.6968 831.095 87.4556C832.02 88.4622 835.298 90.3029 841.007 89.6126C846.717 88.9224 846.03 84.8192 844.972 82.8538C843.386 76.2867 840.373 62.5486 841.007 60.1327C841.8 57.1128 847.748 53.5176 854.092 53.6615C859.167 53.7765 861.493 55.3392 862.022 56.1061C867.573 56.1061 862.022 59.7013 866.78 65.4534C871.538 71.2056 883.036 70.6304 887.397 69.3362C890.887 68.3008 893.609 65.4534 894.534 64.1592C900.561 61.5132 907.619 61.331 910.394 61.5707C913.17 62.9129 922.427 70.9468 925.599 70.4866C929.564 69.9114 934.128 65.8849 937.3 61.5707C940.472 57.2566 940.131 52.2234 952.026 52.6548C961.542 53 965.771 59.126 966.697 62.1459C972.247 64.7344 970.234 97.663 971.027 98.8134C971.82 99.9639 972.86 103.842 977.221 102.835C981.583 101.828 979.384 76.814 978.988 68.4733C978.671 61.8008 982.821 58.3111 984.935 57.4004C999.209 52.3385 1002.25 43.691 1001.98 40Z" fill="#430544"/>
<path d="M1439.99 40H933.893L930 44.5241C936.665 49.7011 937.137 46.1836 939.084 52.2234C940.184 55.6372 942.053 73.0292 941.679 76.1929C941.306 79.3566 946.87 98.3108 950.763 79.7116C951.01 78.5336 952.582 73.1387 950.763 66.6039C949.328 61.4443 952.582 57.5938 952.582 56.8252C960.057 53.23 973.513 55.9623 976.13 56.8252C978.746 57.688 991.455 69.1924 1002.67 60.9955C1013.88 52.7986 1023.97 51.792 1029.58 52.2234C1035.19 52.6548 1041.54 57.9756 1035.19 66.6039C1030.1 73.5065 1037.71 76.6956 1040.31 76.6956C1042.25 78.5064 1053.62 75.0884 1046.15 66.6039C1040.16 59.8163 1042.41 57.0648 1043.78 55.2433C1049.76 50.7854 1051.63 51.3606 1060.6 49.9225C1067.78 48.7721 1070.57 53.4697 1071.07 55.9623C1073.31 57.5442 1072.94 66.6039 1074.43 70.4866C1075.93 74.3693 1070.7 86.7366 1072.94 90.1879C1074.73 92.9489 1079.67 92.3929 1081.91 91.7697C1086.39 92.2011 1086.77 86.7365 1083.78 84.4357C1081.39 82.595 1081.53 67.1791 1081.91 59.7013C1083.4 56.2499 1087.14 55.2433 1097.23 55.2433C1107.33 55.2433 1113.31 59.7013 1114.05 60.2765C1114.8 60.8517 1121.15 68.6171 1129.38 66.6039C1135.96 64.9933 1136.6 62.5774 1136.11 61.5707C1142.09 55.2433 1147.69 55.8185 1151.43 55.2433C1155.17 54.6681 1163.02 55.5309 1166.38 57.1128C1169.07 58.3783 1168.5 65.6931 1167.88 69.1924C1169.37 71.7809 1165.63 80.9844 1166.38 82.8538C1167.13 84.7233 1170.12 85.5861 1175.35 85.4423C1180.59 85.2985 1182.08 81.8472 1180.21 80.9844C1178.34 80.1215 1176.1 71.3494 1175.35 64.8782C1174.75 59.7013 1185.07 58.1194 1190.3 57.9756C1196.28 58.3111 1203.82 57.1128 1209.01 61.5707C1213.98 65.8442 1223.94 73.2668 1229.18 73.5065C1233.16 73.7941 1236.21 66.7477 1239.5 61.5707C1242.79 56.3937 1251.6 59.7971 1252.72 58.9822C1256.91 56.9114 1265.93 57.4483 1269.92 57.9756C1273.66 57.4004 1280.38 62.5774 1278.89 64.8782C1277.69 66.7189 1278.39 80.6968 1278.89 87.4556C1279.76 88.4622 1282.85 90.3029 1288.23 89.6126C1293.61 88.9224 1292.97 84.8192 1291.97 82.8538C1290.48 76.2867 1287.63 62.5486 1288.23 60.1327C1288.98 57.1128 1294.59 53.5176 1300.57 53.6615C1305.35 53.7765 1307.54 55.3392 1308.04 56.1061C1313.28 56.1061 1308.04 59.7013 1312.53 65.4534C1317.01 71.2056 1327.85 70.6304 1331.96 69.3362C1335.25 68.3008 1337.82 65.4534 1338.69 64.1592C1344.37 61.5132 1351.03 61.331 1353.64 61.5707C1356.26 62.9129 1364.99 70.9468 1367.98 70.4866C1371.71 69.9114 1376.02 65.8849 1379.01 61.5707C1382 57.2566 1381.68 52.2234 1392.89 52.6548C1401.86 53 1405.85 59.126 1406.72 62.1459C1411.95 64.7344 1410.05 97.663 1410.8 98.8134C1411.55 99.9639 1412.53 103.842 1416.64 102.835C1420.75 101.828 1418.68 76.814 1418.31 68.4733C1418.01 61.8008 1421.92 58.3111 1423.91 57.4004C1437.37 52.3385 1440.23 43.691 1439.99 40Z" fill="#430544"/>
</svg>
