<svg width="390" height="92" viewBox="0 0 390 92" fill="none" xmlns="http://www.w3.org/2000/svg">
<path d="M389.989 29H0V33.5C5.13592 38.6494 2.5 35.1507 4 41.1583C4.84783 44.5539 6.28803 61.8532 6 65C5.71197 68.1468 10 87 13 68.5C13.19 67.3282 14.4014 61.9621 13 55.4621C11.8936 50.3301 14.4014 46.5 14.4014 45.7355C20.1619 42.1595 30.5309 44.8773 32.5471 45.7355C34.5633 46.5937 44.3562 58.0368 52.997 49.8836C61.6378 41.7304 69.4146 40.7291 73.735 41.1583C78.0554 41.5874 82.9518 46.8798 78.0554 55.4621C74.1382 62.3279 80 65.5 82 65.5C83.5 67.3011 92.2605 63.9014 86.5 55.4621C81.8916 48.7107 83.6239 45.9739 84.68 44.1621C89.2884 39.7279 90.7286 40.3 97.6412 38.8696C103.171 37.7253 105.322 42.3979 105.706 44.8773C107.434 46.4507 107.146 55.4621 108.298 59.3241C109.45 63.1862 105.418 75.4875 107.146 78.9204C108.529 81.6667 112.331 81.1136 114.059 80.4938C117.515 80.9229 117.803 75.4875 115.499 73.1989C113.656 71.368 113.771 56.0343 114.059 48.5963C115.211 45.1633 118.091 44.1621 125.868 44.1621C133.645 44.1621 138.253 48.5963 138.829 49.1684C139.405 49.7406 144.302 57.4646 150.638 55.4621C155.708 53.8601 156.207 51.457 155.823 50.4558C160.431 44.1621 164.752 44.7342 167.632 44.1621C170.512 43.5899 176.561 44.4481 179.153 46.0216C181.227 47.2803 180.785 54.5562 180.305 58.0368C181.457 60.6115 178.577 69.7659 179.153 71.6254C179.729 73.4849 182.033 74.3432 186.066 74.2001C190.098 74.0571 191.25 70.6242 189.81 69.7659C188.37 68.9077 186.642 60.1824 186.066 53.7456C185.605 48.5963 193.554 47.0228 197.587 46.8798C202.195 47.2136 208 46.0216 212 50.4558C215.834 54.7064 223.509 62.0895 227.541 62.3279C230.614 62.614 232.965 55.6051 235.5 50.4558C238.035 45.3064 244.823 48.6916 245.687 47.8811C248.913 45.8213 255.864 46.3553 258.936 46.8798C261.817 46.3076 267.001 51.457 265.849 53.7456C264.927 55.5765 265.465 69.4799 265.849 76.2027C266.521 77.2039 268.902 79.0348 273.05 78.3482C277.197 77.6617 276.698 73.5803 275.93 71.6254C274.778 65.0933 272.589 51.4284 273.05 49.0254C273.626 46.0216 277.946 42.4456 282.555 42.5886C286.241 42.7031 287.931 44.2574 288.315 45.0203C292.348 45.0203 288.315 48.5963 291.772 54.3178C295.228 60.0393 303.581 59.4672 306.749 58.1798C309.284 57.15 311.261 54.3178 311.933 53.0304C316.311 50.3985 321.438 50.2174 323.455 50.4558C325.471 51.7908 332.196 59.7819 334.5 59.3241C337.38 58.752 340.696 54.7469 343 50.4558C345.304 46.1646 345.057 41.1583 353.697 41.5874C360.61 41.9307 363.682 48.0241 364.354 51.0279C368.387 53.6026 366.924 86.3557 367.5 87.5C368.076 88.6443 368.832 92.5013 372 91.5C375.168 90.4987 373.571 65.6178 373.283 57.3216C373.053 50.6846 376.068 47.2136 377.604 46.3076C387.973 41.2727 390.181 32.6713 389.989 29Z" fill="#430544"/>
<rect width="390" height="40" fill="#430544"/>
</svg>
