<svg width="198" height="25" viewBox="0 0 198 25" fill="none" xmlns="http://www.w3.org/2000/svg">
<path d="M12.5 0C9.10781 0 8.68125 0.015625 7.34844 0.075C6.01562 0.1375 5.10781 0.346875 4.3125 0.65625C3.47827 0.97003 2.72264 1.46223 2.09844 2.09844C1.46262 2.72296 0.97048 3.4785 0.65625 4.3125C0.346875 5.10625 0.135937 6.01562 0.075 7.34375C0.015625 8.67969 0 9.10469 0 12.5016C0 15.8953 0.015625 16.3203 0.075 17.6531C0.1375 18.9844 0.346875 19.8922 0.65625 20.6875C0.976562 21.5094 1.40313 22.2062 2.09844 22.9016C2.79219 23.5969 3.48906 24.025 4.31094 24.3438C5.10781 24.6531 6.01406 24.8641 7.34531 24.925C8.67969 24.9844 9.10469 25 12.5 25C15.8953 25 16.3188 24.9844 17.6531 24.925C18.9828 24.8625 19.8938 24.6531 20.6891 24.3438C21.5228 24.0298 22.2778 23.5376 22.9016 22.9016C23.5969 22.2062 24.0234 21.5094 24.3438 20.6875C24.6516 19.8922 24.8625 18.9844 24.925 17.6531C24.9844 16.3203 25 15.8953 25 12.5C25 9.10469 24.9844 8.67969 24.925 7.34531C24.8625 6.01563 24.6516 5.10625 24.3438 4.3125C24.0296 3.47848 23.5374 2.72293 22.9016 2.09844C22.2775 1.46199 21.5219 0.969758 20.6875 0.65625C19.8906 0.346875 18.9813 0.135937 17.6516 0.075C16.3172 0.015625 15.8938 0 12.4969 0H12.5016H12.5ZM11.3797 2.25312H12.5016C15.8391 2.25312 16.2344 2.26406 17.5516 2.325C18.7703 2.37969 19.4328 2.58437 19.8734 2.75469C20.4562 2.98125 20.8734 3.25312 21.3109 3.69062C21.7484 4.12813 22.0188 4.54375 22.2453 5.12813C22.4172 5.56719 22.6203 6.22969 22.675 7.44844C22.7359 8.76562 22.7484 9.16094 22.7484 12.4969C22.7484 15.8328 22.7359 16.2297 22.675 17.5469C22.6203 18.7656 22.4156 19.4266 22.2453 19.8672C22.0449 20.4099 21.725 20.9007 21.3094 21.3031C20.8719 21.7406 20.4563 22.0109 19.8719 22.2375C19.4344 22.4094 18.7719 22.6125 17.5516 22.6688C16.2344 22.7281 15.8391 22.7422 12.5016 22.7422C9.16406 22.7422 8.76719 22.7281 7.45 22.6688C6.23125 22.6125 5.57031 22.4094 5.12969 22.2375C4.58672 22.0374 4.09551 21.7181 3.69219 21.3031C3.27617 20.9001 2.95582 20.4088 2.75469 19.8656C2.58437 19.4266 2.37969 18.7641 2.325 17.5453C2.26562 16.2281 2.25312 15.8328 2.25312 12.4937C2.25312 9.15625 2.26562 8.7625 2.325 7.44531C2.38125 6.22656 2.58438 5.56406 2.75625 5.12344C2.98281 4.54063 3.25469 4.12344 3.69219 3.68594C4.12969 3.24844 4.54531 2.97813 5.12969 2.75156C5.57031 2.57969 6.23125 2.37656 7.45 2.32031C8.60313 2.26719 9.05 2.25156 11.3797 2.25V2.25312ZM19.1734 4.32812C18.9765 4.32812 18.7814 4.36692 18.5994 4.44231C18.4174 4.51769 18.2521 4.62818 18.1128 4.76746C17.9735 4.90675 17.863 5.07211 17.7876 5.2541C17.7122 5.43609 17.6734 5.63114 17.6734 5.82812C17.6734 6.02511 17.7122 6.22016 17.7876 6.40215C17.863 6.58414 17.9735 6.7495 18.1128 6.88879C18.2521 7.02807 18.4174 7.13856 18.5994 7.21394C18.7814 7.28933 18.9765 7.32812 19.1734 7.32812C19.5713 7.32812 19.9528 7.17009 20.2341 6.88879C20.5154 6.60748 20.6734 6.22595 20.6734 5.82812C20.6734 5.4303 20.5154 5.04877 20.2341 4.76746C19.9528 4.48616 19.5713 4.32812 19.1734 4.32812ZM12.5016 6.08125C11.6501 6.06797 10.8045 6.2242 10.014 6.54085C9.22353 6.85749 8.50393 7.32824 7.89711 7.92566C7.29029 8.52309 6.80838 9.23526 6.47944 10.0207C6.1505 10.8062 5.98109 11.6492 5.98109 12.5008C5.98109 13.3523 6.1505 14.1954 6.47944 14.9808C6.80838 15.7663 7.29029 16.4785 7.89711 17.0759C8.50393 17.6733 9.22353 18.1441 10.014 18.4607C10.8045 18.7774 11.6501 18.9336 12.5016 18.9203C14.1868 18.894 15.7941 18.2061 16.9765 17.0051C18.159 15.804 18.8217 14.1862 18.8217 12.5008C18.8217 10.8154 18.159 9.19752 16.9765 7.99648C15.7941 6.79545 14.1868 6.10754 12.5016 6.08125ZM12.5016 8.33281C13.6068 8.33281 14.6667 8.77185 15.4482 9.55335C16.2297 10.3349 16.6688 11.3948 16.6688 12.5C16.6688 13.6052 16.2297 14.6651 15.4482 15.4466C14.6667 16.2281 13.6068 16.6672 12.5016 16.6672C11.3964 16.6672 10.3364 16.2281 9.55492 15.4466C8.77342 14.6651 8.33438 13.6052 8.33438 12.5C8.33438 11.3948 8.77342 10.3349 9.55492 9.55335C10.3364 8.77185 11.3964 8.33281 12.5016 8.33281Z" fill="#85CB33"/>
<path d="M59.2875 18.2917C58.8152 17 55.9541 16.8194 54.6208 13.8611C54.5375 13.6389 54.5513 13.4861 54.7736 13.3472C55.8013 12.6667 56.5236 12.2917 56.9402 11.5C57.2458 10.9306 57.2875 10.2639 57.0513 9.65278C56.7319 8.80556 55.9263 8.26389 54.9402 8.26389C54.593 8.26389 54.3152 8.33333 54.1763 8.36111C54.1902 7.77778 54.1763 7.16667 54.1208 6.55555C53.9402 4.43056 53.1902 3.30556 52.4125 2.41667C51.9541 1.90278 50.1347 0 46.6902 0C43.2458 0 41.4263 1.90278 40.968 2.41667C40.1902 3.30556 39.4402 4.43056 39.2597 6.55555C39.218 7.16667 39.2041 7.77778 39.2041 8.36111C39.0513 8.31944 38.7875 8.26389 38.4402 8.26389C37.468 8.26389 36.6486 8.79167 36.3291 9.65278C36.093 10.25 36.1347 10.9306 36.4402 11.5C36.8708 12.3056 37.5791 12.6667 38.6069 13.3472C38.8291 13.5 38.843 13.6389 38.7597 13.8611C37.4125 16.8194 34.5652 17 34.093 18.2917C33.8847 18.8472 34.0236 19.4722 34.5375 20C35.3291 20.8194 36.8013 21.0694 37.093 21.2639C37.3291 21.4583 37.3013 22.0417 37.968 22.5139C38.4958 22.875 39.0791 22.9028 39.7041 22.9167C41.5236 22.9861 41.9263 23.2917 42.6208 23.7222C43.4958 24.2639 44.6902 25 46.6902 25C48.6902 25 49.8847 24.2639 50.7597 23.7222C51.4541 23.2917 51.8569 22.9861 53.6763 22.9167C54.3013 22.8889 54.8847 22.875 55.4125 22.5139C56.093 22.0417 56.0652 21.4583 56.2875 21.2639C56.5791 21.0694 58.0513 20.8194 58.843 20C59.3569 19.4722 59.4958 18.8472 59.2875 18.2917ZM57.8569 19.0278C57.343 19.5694 56.1069 19.7222 55.4541 20.1667C54.7875 20.75 54.8986 21.1944 54.6347 21.375C54.4541 21.5 54.1347 21.5139 53.6347 21.5417C51.6902 21.6111 50.9819 21.9722 50.1347 22.5C48.1486 23.7222 47.0375 23.6111 46.6902 23.6111C46.343 23.6111 45.2319 23.7222 43.2597 22.4861C42.4125 21.9583 41.718 21.6111 39.7597 21.5278C39.2597 21.5139 38.9402 21.4861 38.7597 21.3611C38.4958 21.1806 38.593 20.7361 37.9402 20.1528C37.2736 19.7083 36.0513 19.5556 35.5375 19.0139C35.4541 18.9306 35.3847 18.8194 35.3708 18.8056C35.468 18.6667 35.9402 18.3889 36.2875 18.1944C37.3708 17.5556 39.0375 16.6111 40.0513 14.375C40.4125 13.4028 40.093 12.625 39.3847 12.1667C37.7875 11.1528 37.8152 11.1111 37.6625 10.8333C37.6076 10.7268 37.5755 10.6101 37.5684 10.4905C37.5612 10.3709 37.5791 10.2512 37.6208 10.1389C37.7875 9.69444 38.2458 9.65278 38.4263 9.65278C38.6902 9.65278 38.6763 9.66667 40.6069 10.1667C40.5791 8.22222 40.5513 7.59722 40.6347 6.68056C40.7875 4.86111 41.4263 4 41.9958 3.34722C42.3847 2.93056 43.8986 1.36111 46.6902 1.38889C49.4819 1.36111 50.9958 2.93056 51.3708 3.34722C51.9402 4 52.5791 4.86111 52.7319 6.68056C52.8152 7.59722 52.7875 8.22222 52.7597 10.1667C54.7041 9.66667 54.6763 9.65278 54.9402 9.65278C55.1347 9.65278 55.5791 9.69444 55.7458 10.1389C55.843 10.375 55.8291 10.625 55.7041 10.8333C55.5513 11.1111 55.5791 11.1389 53.9958 12.1806C53.2875 12.6389 52.968 13.4167 53.3291 14.3889C54.343 16.625 56.0097 17.5694 57.093 18.2083C57.4402 18.4167 57.9125 18.6806 58.0097 18.8194C58.0097 18.8333 57.9263 18.9444 57.8569 19.0278Z" fill="#85CB33"/>
<path d="M85.6581 3.91667C84.7087 2.83281 84.1855 1.44088 84.1859 0H79.8943V17.2222C79.8612 18.1542 79.4677 19.037 78.7967 19.6846C78.1257 20.3323 77.2296 20.6943 76.297 20.6944C74.3248 20.6944 72.6859 19.0833 72.6859 17.0833C72.6859 14.6944 74.9915 12.9028 77.3665 13.6389V9.25C72.5748 8.61111 68.3804 12.3333 68.3804 17.0833C68.3804 21.7083 72.2137 25 76.2832 25C80.6443 25 84.1859 21.4583 84.1859 17.0833V8.34722C85.9262 9.59701 88.0156 10.2676 90.1581 10.2639V5.97222C90.1581 5.97222 87.547 6.09722 85.6581 3.91667Z" fill="#85CB33"/>
<path d="M124.221 12.5313C124.221 5.61404 118.607 0 111.69 0C104.772 0 99.1582 5.61404 99.1582 12.5313C99.1582 18.5965 103.469 23.6466 109.183 24.812V16.2907H106.677V12.5313H109.183V9.3985C109.183 6.97995 111.151 5.01253 113.569 5.01253H116.702V8.77193H114.196C113.507 8.77193 112.943 9.33584 112.943 10.0251V12.5313H116.702V16.2907H112.943V25C119.271 24.3734 124.221 19.0351 124.221 12.5313Z" fill="#85CB33"/>
<path d="M163.969 2.96777C162.818 3.47702 161.597 3.81156 160.347 3.96032C161.664 3.17162 162.649 1.93108 163.12 0.469802C161.883 1.20592 160.527 1.7218 159.115 2.00087C158.165 0.985053 156.907 0.311361 155.535 0.0845249C154.163 -0.142311 152.755 0.0904173 151.529 0.74653C150.303 1.40264 149.329 2.44538 148.757 3.71263C148.184 4.97988 148.047 6.40064 148.366 7.75404C145.857 7.62853 143.403 6.97679 141.162 5.84114C138.922 4.70549 136.946 3.11133 135.361 1.16217C134.801 2.12524 134.506 3.22002 134.508 4.33442C134.508 6.52165 135.622 8.45396 137.313 9.58528C136.312 9.55369 135.332 9.28321 134.456 8.79637V8.8733C134.456 10.3303 134.96 11.7424 135.883 12.8702C136.805 13.9979 138.089 14.772 139.517 15.0609C138.587 15.3131 137.612 15.3503 136.666 15.1695C137.069 16.4236 137.854 17.5204 138.911 18.3062C139.968 19.0919 141.244 19.5274 142.561 19.5515C141.252 20.5794 139.754 21.3393 138.151 21.7876C136.548 22.2359 134.873 22.3638 133.221 22.1641C136.105 24.0186 139.462 25.0031 142.89 25C154.496 25 160.84 15.3867 160.84 7.0496C160.84 6.77808 160.834 6.50355 160.822 6.23354C162.057 5.34108 163.122 4.2342 163.969 2.96777Z" fill="#85CB33"/>
<path d="M195.191 0C195.928 0 196.634 0.292658 197.155 0.813592C197.676 1.33453 197.969 2.04107 197.969 2.77778V22.2222C197.969 22.9589 197.676 23.6655 197.155 24.1864C196.634 24.7073 195.928 25 195.191 25H175.747C175.01 25 174.303 24.7073 173.782 24.1864C173.261 23.6655 172.969 22.9589 172.969 22.2222V2.77778C172.969 2.04107 173.261 1.33453 173.782 0.813592C174.303 0.292658 175.01 0 175.747 0H195.191ZM194.497 21.5278V14.1667C194.497 12.9658 194.019 11.8142 193.17 10.965C192.321 10.1159 191.17 9.63889 189.969 9.63889C188.788 9.63889 187.413 10.3611 186.747 11.4444V9.90278H182.872V21.5278H186.747V14.6806C186.747 13.6111 187.608 12.7361 188.677 12.7361C189.193 12.7361 189.687 12.941 190.052 13.3056C190.417 13.6703 190.622 14.1649 190.622 14.6806V21.5278H194.497ZM178.358 7.72222C178.976 7.72222 179.57 7.47639 180.008 7.03881C180.445 6.60122 180.691 6.00773 180.691 5.38889C180.691 4.09722 179.649 3.04167 178.358 3.04167C177.735 3.04167 177.138 3.28896 176.698 3.72915C176.258 4.16934 176.01 4.76637 176.01 5.38889C176.01 6.68056 177.066 7.72222 178.358 7.72222ZM180.288 21.5278V9.90278H176.441V21.5278H180.288Z" fill="#85CB33"/>
</svg>
