<svg width="90" height="34" viewBox="0 0 90 34" fill="none" xmlns="http://www.w3.org/2000/svg">
<path d="M10.1953 0.667969H10.3711C10.651 0.921875 11.2044 1.1888 12.0312 1.46875C12.1484 1.46875 12.2428 1.77474 12.3145 2.38672C12.4316 2.47786 12.4902 2.61133 12.4902 2.78711C12.4902 2.87826 12.4707 2.95638 12.4316 3.02148C12.5098 3.19076 12.5488 3.43815 12.5488 3.76367H12.4902L12.5488 3.88086C12.5488 4.36263 12.6237 5.08854 12.7734 6.05859C12.7734 6.31901 12.8711 6.75846 13.0664 7.37695C13.1445 7.75456 13.1836 8.09635 13.1836 8.40234V8.46094C13.1055 8.55859 13.0664 8.63672 13.0664 8.69531C12.6823 8.69531 12.1289 8.84831 11.4062 9.1543C11.0286 9.1543 10.7031 9.32357 10.4297 9.66211C10.1953 9.94857 9.83073 10.1602 9.33594 10.2969V10.3555C8.92578 10.3555 8.63932 10.0104 8.47656 9.32031C8.51562 9.11198 8.53516 8.95898 8.53516 8.86133C8.53516 8.82227 8.47982 8.53581 8.36914 8.00195H8.07617L7.67578 7.94336L7.61719 8.06055V8.46094C7.54557 8.83203 7.50977 9.04362 7.50977 9.0957C7.62044 9.74023 7.78971 10.2546 8.01758 10.6387L7.79297 12.1914V12.4746H7.85156C8.20312 12.3965 8.41146 12.3574 8.47656 12.3574C9.34245 12.3965 9.82096 12.4355 9.91211 12.4746C9.98372 12.4355 10.0423 12.416 10.0879 12.416C12.0736 13.1517 13.0664 13.6855 13.0664 14.0176C13.151 14.0176 13.2064 14.457 13.2324 15.3359H13.1836L13.2324 15.4531C12.9264 17.6406 12.7572 19.0339 12.7246 19.6328H12.7734C12.7409 19.7109 12.7246 19.7695 12.7246 19.8086C12.7246 19.9453 12.7799 20.3457 12.8906 21.0098L12.832 21.127C12.9883 21.446 13.0859 22.0189 13.125 22.8457C13.1641 22.8457 13.1836 22.8652 13.1836 22.9043C13.1445 23.2949 13.125 23.6009 13.125 23.8223V24.2812C13.125 24.3659 13.1055 24.4408 13.0664 24.5059C13.1445 25.0527 13.2389 25.5117 13.3496 25.8828L13.0664 27.8848C13.1445 28.1322 13.1836 28.3047 13.1836 28.4023V28.6855C13.1836 29.1087 13.0111 29.6068 12.666 30.1797C12.666 30.5833 12.2461 31.0977 11.4062 31.7227C11.4062 31.8138 11.1751 31.9473 10.7129 32.123V32.1816H10.5469C10.2604 32.1816 9.72331 32.2207 8.93555 32.2988V32.2402C8.89648 32.2402 8.87695 32.2598 8.87695 32.2988L8.59375 32.2402H8.19336C7.86784 32.2402 7.52279 32.2207 7.1582 32.1816C6.5918 32.2337 5.86589 32.5007 4.98047 32.9824C4.98047 33.0345 4.86654 33.0736 4.63867 33.0996C3.68815 33.0345 3.21289 32.9206 3.21289 32.7578C2.8418 32.3346 2.22982 31.9147 1.37695 31.498C1.25977 31.4004 1.16211 30.9023 1.08398 30.0039C1.16211 29.4635 1.20117 29.1576 1.20117 29.0859C1.16211 28.7474 1.10677 28.5 1.03516 28.3438C1.06771 28.1354 1.08398 27.9824 1.08398 27.8848L1.03516 27.4844C1.06771 27.4128 1.08398 27.3574 1.08398 27.3184C1.01237 27.3184 0.976562 27.2793 0.976562 27.2012V26.6836C0.898438 26.3125 0.784505 25.9512 0.634766 25.5996C0.70638 25.1569 0.742188 24.8314 0.742188 24.623C0.553385 23.3079 0.400391 22.582 0.283203 22.4453C0.634766 22.224 1.41927 22.0319 2.63672 21.8691C3.09245 21.7454 3.33984 21.612 3.37891 21.4688H3.26172C3.13151 21.5078 3.05664 21.5273 3.03711 21.5273C2.34701 21.3255 2.00195 21.1335 2.00195 20.9512C1.2793 20.8079 0.917969 20.4857 0.917969 19.9844C0.826823 19.9844 0.732422 19.7533 0.634766 19.291C0.693359 19.0046 0.768229 18.3568 0.859375 17.3477C0.820312 17.276 0.800781 17.1979 0.800781 17.1133H0.859375C0.820312 17.0677 0.78125 16.8008 0.742188 16.3125C0.846354 16.3125 0.924479 16.1042 0.976562 15.6875C0.976562 15.1667 0.804036 14.304 0.458984 13.0996V12.3574C0.725911 11.9668 0.859375 11.5469 0.859375 11.0977C0.820312 10.3359 0.78125 9.95508 0.742188 9.95508L0.800781 9.83789C0.390625 8.02148 0.182292 6.76172 0.175781 6.05859C0.123698 6.05859 0.0651042 5.82747 0 5.36523V5.31641C0.455729 4.66536 0.836589 3.90039 1.14258 3.02148C1.60482 2.23372 1.98893 1.75521 2.29492 1.58594C2.35352 1.58594 2.60091 1.51107 3.03711 1.36133H3.32031C3.54167 1.36133 3.84766 1.3418 4.23828 1.30273C4.57031 1.41341 4.89583 1.46875 5.21484 1.46875C5.30599 1.46875 5.72591 1.43294 6.47461 1.36133C6.69596 1.47201 6.92383 1.52734 7.1582 1.52734C8.33008 1.22135 9.34245 0.934896 10.1953 0.667969ZM7.67578 3.08008H6.69922C5.61849 3.19076 4.72331 3.24609 4.01367 3.24609H3.55469C3.47005 3.24609 3.39193 3.22656 3.32031 3.1875C2.9362 3.38932 2.66927 3.75391 2.51953 4.28125L2.46094 4.50586C2.53906 4.92904 2.57812 5.21549 2.57812 5.36523C2.57812 5.63867 2.53906 5.90885 2.46094 6.17578C2.46094 6.20833 2.48047 6.22461 2.51953 6.22461C2.48047 6.49805 2.46094 6.65104 2.46094 6.68359C2.46094 7.22396 2.53906 7.89453 2.69531 8.69531C2.69531 8.77995 2.67578 8.85482 2.63672 8.91992C2.71484 9.83789 2.77344 10.2969 2.8125 10.2969L2.75391 10.5801V10.9805C2.75391 11.0716 2.77344 11.1497 2.8125 11.2148C2.65625 11.7227 2.57812 12.0482 2.57812 12.1914C2.69531 12.6211 2.75391 13.3633 2.75391 14.418V14.7109C2.75391 14.75 2.73438 14.7695 2.69531 14.7695C2.73438 14.8346 2.80924 15.1764 2.91992 15.7949C2.91992 15.8861 2.80599 16.306 2.57812 17.0547C2.73438 17.3086 2.8125 17.5951 2.8125 17.9141V18.207C2.8125 18.2461 2.82878 18.2656 2.86133 18.2656C2.78971 18.4414 2.75391 18.6107 2.75391 18.7734C2.98828 19.3073 3.36914 19.5742 3.89648 19.5742C4.80794 19.5742 5.41992 19.6328 5.73242 19.75H6.25L6.41602 19.6328C6.45508 19.6328 6.47461 19.6523 6.47461 19.6914L6.75781 19.6328H6.875C6.95964 19.6328 7.03776 19.6523 7.10938 19.6914L7.2168 19.6328C7.98503 19.7826 8.36914 20.1471 8.36914 20.7266C8.13477 22.0417 8.0013 23.015 7.96875 23.6465C8.0013 23.7962 8.01758 23.9492 8.01758 24.1055C7.60742 24.5286 7.34049 24.7402 7.2168 24.7402C5.80404 24.8835 5.09766 25.0918 5.09766 25.3652H4.47266C4.1276 25.0397 3.95508 24.8477 3.95508 24.7891L4.01367 24.6816C3.93555 24.291 3.89648 24.0599 3.89648 23.9883C3.89648 23.9492 3.91602 23.8939 3.95508 23.8223L3.89648 23.4707V23.1289C2.95247 23.3438 2.47396 23.4772 2.46094 23.5293C2.27214 24.3822 2.17773 25.1862 2.17773 25.9414C2.26237 25.9414 2.41536 26.3613 2.63672 27.2012V27.4258C2.63672 27.5039 2.61719 27.543 2.57812 27.543L2.63672 27.9434V28.8027C2.63672 28.9655 2.65625 29.1771 2.69531 29.4375C2.61719 29.5742 2.57812 29.7272 2.57812 29.8965V30.1797C2.57812 30.4857 2.80599 30.6387 3.26172 30.6387C3.26172 30.5996 3.28125 30.541 3.32031 30.4629L3.26172 30.1797L3.4375 29.0371C3.4375 28.8678 3.36263 28.6758 3.21289 28.4609V28.4023C3.2194 28.2135 3.25521 28.1191 3.32031 28.1191L3.26172 27.8262V27.7188C3.41797 27.7188 3.49609 27.6602 3.49609 27.543C3.45703 27.543 3.4375 27.5234 3.4375 27.4844L3.32031 27.543H3.26172L3.1543 27.0254H3.21289C3.17383 26.9538 3.1543 26.8984 3.1543 26.8594L3.37891 26.1074H3.4375V26.3418L3.37891 26.459C3.45703 26.459 3.49609 26.5143 3.49609 26.625L3.4375 27.0254C3.54167 27.0254 3.63607 27.237 3.7207 27.6602C3.75977 27.6602 3.7793 27.6797 3.7793 27.7188V28.0605C3.85742 28.946 4.01042 29.7467 4.23828 30.4629L4.17969 30.8145C4.375 30.847 4.47266 30.8828 4.47266 30.9219C4.51172 30.9219 4.53125 30.9023 4.53125 30.8633L4.81445 30.9219C5.00326 30.9219 5.09766 30.7331 5.09766 30.3555H5.03906V30.1797C5.19531 30.0495 5.27344 29.9355 5.27344 29.8379H5.21484C5.13672 29.8379 5.09766 29.7988 5.09766 29.7207V29.5449H5.27344L5.21484 29.2617V29.2031C5.22786 29.125 5.26693 29.0859 5.33203 29.0859H5.39062C5.39062 29.2943 5.44596 29.4473 5.55664 29.5449V29.7793C5.49805 29.7793 5.44271 29.8184 5.39062 29.8965L5.67383 30.4043C5.67383 30.5215 5.72917 30.5801 5.83984 30.5801C6.09375 30.502 6.26628 30.4629 6.35742 30.4629H7.1582C7.24935 30.4629 7.34701 30.196 7.45117 29.6621C7.37305 29.6621 7.33398 29.623 7.33398 29.5449V29.4375C7.34701 29.3594 7.38607 29.3203 7.45117 29.3203L7.39258 29.0859C7.39258 28.8906 7.48698 28.7409 7.67578 28.6367V28.6855L7.61719 28.8027L7.79297 29.1445H7.67578L7.73438 29.8379V30.1797C7.73438 30.2318 7.79297 30.2904 7.91016 30.3555H8.36914C8.81185 30.3555 9.11784 30.3164 9.28711 30.2383L9.22852 29.9453C9.22852 29.9193 9.24805 29.8053 9.28711 29.6035C9.28711 29.5645 9.26758 29.5449 9.22852 29.5449L9.28711 29.3203C9.28711 29.2747 9.26758 29.0827 9.22852 28.7441L9.28711 28.6367C9.28711 28.5911 9.26758 28.5326 9.22852 28.4609L9.33594 27.2012C9.30339 26.8757 9.28711 26.6283 9.28711 26.459C9.31966 26.3809 9.33594 26.3223 9.33594 26.2832C9.30339 26.2116 9.28711 26.153 9.28711 26.1074L9.33594 26C9.33594 25.9544 9.31966 25.8958 9.28711 25.8242C9.31966 25.1341 9.35547 24.7728 9.39453 24.7402C9.35547 24.584 9.33594 24.4473 9.33594 24.3301C9.33594 24.1152 9.375 23.9069 9.45312 23.7051L9.39453 23.5879C9.39453 23.5488 9.41406 23.4935 9.45312 23.4219C9.40104 23.1159 9.3457 22.9629 9.28711 22.9629C9.35872 22.4616 9.39453 22.1556 9.39453 22.0449C9.39453 22.0124 9.31966 21.8594 9.16992 21.5859C9.20898 21.306 9.28385 21.0586 9.39453 20.8438L9.33594 20.7266V20.4434C9.34896 20.3652 9.38802 20.3262 9.45312 20.3262H9.51172C9.51172 20.5866 9.58659 21.026 9.73633 21.6445C9.66471 21.6445 9.62891 21.6999 9.62891 21.8105C9.73958 22.084 9.79492 22.237 9.79492 22.2695L9.73633 22.6113V22.6699C9.85352 22.8132 9.91211 22.9466 9.91211 23.0703C9.91211 23.1745 9.87305 23.2917 9.79492 23.4219C9.91211 23.4544 9.9707 23.5684 9.9707 23.7637V23.8223L9.85352 23.9883V24.0469L9.91211 24.1641C9.83398 24.1771 9.79492 24.2161 9.79492 24.2812V24.3301C9.84049 24.3301 9.89909 24.3496 9.9707 24.3887C9.93164 24.6426 9.87305 24.8542 9.79492 25.0234L9.91211 25.8828C9.83398 25.8958 9.79492 25.9349 9.79492 26C9.87305 26.2474 9.91211 26.4167 9.91211 26.5078C9.87305 26.5078 9.81445 26.5859 9.73633 26.7422C9.78841 27.1589 9.84701 27.3672 9.91211 27.3672C9.79492 27.849 9.73633 28.1354 9.73633 28.2266C9.73633 28.2982 9.77539 28.4154 9.85352 28.5781H9.79492C9.87956 28.8906 9.95768 29.0599 10.0293 29.0859L9.91211 29.4961C9.99023 29.4961 10.0488 29.6296 10.0879 29.8965H10.1465C10.459 29.5775 10.7617 29.1185 11.0547 28.5195C11.0547 28.4219 11.0384 28.2689 11.0059 28.0605C11.0059 27.9694 11.0417 27.6829 11.1133 27.2012C11.0417 25.9772 11.0059 25.0397 11.0059 24.3887C11.0384 23.7962 11.0938 23.4154 11.1719 23.2461C11.0612 22.5169 11.0059 21.8105 11.0059 21.127C11.0059 21.0423 11.0221 20.9642 11.0547 20.8926C11.0221 20.8275 10.9863 20.5996 10.9473 20.209C11.0189 19.8704 11.1133 19.5254 11.2305 19.1738C11.1523 18.4967 11.1133 18.0573 11.1133 17.8555C11.1914 17.2044 11.2305 16.6706 11.2305 16.2539V15.9121C11.2305 15.6712 11.1719 15.4043 11.0547 15.1113V14.6523C10.2995 14.1901 9.86003 13.959 9.73633 13.959L9.39453 14.0176C8.65234 13.9069 8.13802 13.8516 7.85156 13.8516C7.78646 13.8516 7.67253 13.8874 7.50977 13.959C7.43815 13.9264 7.36003 13.9102 7.27539 13.9102L7.05078 13.959C6.13281 13.8288 5.67383 13.4284 5.67383 12.7578V12.5918C5.67383 11.5241 5.78776 10.5866 6.01562 9.7793C5.78776 9.06315 5.67383 8.5293 5.67383 8.17773C5.78451 7.74154 5.83984 7.39648 5.83984 7.14258V6.17578C5.83984 6.0651 6.31836 5.94792 7.27539 5.82422C7.28841 5.7526 7.32747 5.7168 7.39258 5.7168C7.43164 5.7168 7.48698 5.73307 7.55859 5.76562C8.13802 5.69401 8.59701 5.59961 8.93555 5.48242C9.50846 5.67122 9.79492 5.95768 9.79492 6.3418C9.93164 6.4069 10.0293 6.86589 10.0879 7.71875C10.127 7.71875 10.1465 7.75781 10.1465 7.83594H10.1953C10.5534 7.64062 10.9928 7.27604 11.5137 6.74219L11.4062 6.57617V6.51758C11.1979 4.0306 10.9277 2.78711 10.5957 2.78711C9.97721 2.78711 9.00391 2.88477 7.67578 3.08008ZM5.83984 21.4102C5.83984 21.5143 5.87891 21.6283 5.95703 21.752L5.89844 21.9863C5.89844 22.071 5.91797 22.1458 5.95703 22.2109C5.91797 22.5365 5.89844 22.8066 5.89844 23.0215V23.3633L6.29883 23.4219L6.35742 23.3047C6.35742 23.1745 6.33789 23.0801 6.29883 23.0215C6.33789 22.696 6.35742 22.4258 6.35742 22.2109V22.1035C6.35742 21.9408 6.33789 21.7292 6.29883 21.4688C6.33789 21.3971 6.35742 21.3418 6.35742 21.3027L6.25 21.2441C5.97656 21.2832 5.83984 21.3385 5.83984 21.4102ZM18.9453 3.99805C19.1862 4.08268 19.4141 4.21615 19.6289 4.39844C20.5078 4.32031 21.0221 4.28125 21.1719 4.28125C21.7122 4.41797 21.9824 5.01042 21.9824 6.05859C22.015 6.98307 22.0312 7.57552 22.0312 7.83594H22.0898C22.0508 7.90755 22.0312 7.96289 22.0312 8.00195C22.0312 8.21029 22.015 8.57487 21.9824 9.0957C22.054 9.61654 22.0898 9.95833 22.0898 10.1211C21.9792 10.3164 21.9238 10.4694 21.9238 10.5801V11.1562L21.8652 11.498C21.8652 11.5371 21.8848 11.5566 21.9238 11.5566L21.8652 11.8398V12.4746C21.5592 13.4837 21.4062 14.3822 21.4062 15.1699L21.6309 16.0293C21.709 16.0293 21.748 15.9707 21.748 15.8535C21.748 15.8145 21.7285 15.7591 21.6895 15.6875C21.8327 15.2708 21.9466 14.3724 22.0312 12.9922C22.1484 12.5495 22.207 12.0124 22.207 11.3809V10.7559C22.207 10.3978 22.1875 10.0332 22.1484 9.66211C22.1875 9.4668 22.207 9.27799 22.207 9.0957L22.1484 8.29492C22.1875 8.00195 22.207 7.67643 22.207 7.31836L22.1484 7.03516C22.3893 6.72917 22.6204 6.57617 22.8418 6.57617H22.9492C23.1641 6.72591 23.3171 6.80078 23.4082 6.80078C24.0592 6.80078 24.7461 6.62826 25.4688 6.2832C26.1654 6.13346 27.1029 5.86654 28.2812 5.48242C28.4896 5.48242 28.6621 5.61589 28.7988 5.88281C28.571 7.13932 28.418 8.51628 28.3398 10.0137C28.4701 10.5736 28.584 10.974 28.6816 11.2148C28.5645 11.6055 28.4896 12.1784 28.457 12.9336C28.4896 13.3372 28.5059 13.7767 28.5059 14.252V14.7109C28.3105 15.9609 28.1217 16.9147 27.9395 17.5723C27.9004 17.5723 27.8809 17.5918 27.8809 17.6309C27.959 17.9238 28.0729 18.1908 28.2227 18.4316C28.3659 18.4316 28.4993 19.5579 28.623 21.8105V24.8477C28.623 25.349 28.6426 26 28.6816 26.8008C28.6816 26.8398 28.6621 26.8594 28.623 26.8594L28.6816 27.1426V27.3672C28.6816 28.0638 28.6068 28.6367 28.457 29.0859C28.457 29.5091 28.2845 29.9323 27.9395 30.3555C27.5098 31.0651 26.9564 31.5404 26.2793 31.7812H25.6445C25.5078 31.7812 25.3353 31.7617 25.127 31.7227C25.0618 31.7617 24.834 31.8008 24.4434 31.8398C23.7923 31.7747 23.4668 31.7194 23.4668 31.6738L21.6309 31.8398H21.5234C21.0742 31.8398 20.7487 31.765 20.5469 31.6152L20.4297 31.6738C20.3125 31.6348 20.2539 31.5957 20.2539 31.5566L18.5352 31.6738V31.6152C18.3984 31.6152 17.8451 31.7682 16.875 32.0742H16.8164C16.4193 31.9961 16.1523 31.8236 16.0156 31.5566C15.0521 30.847 14.4434 30.2936 14.1895 29.8965L14.1309 29.7793V29.4961C14.1439 29.2227 14.1797 29.0859 14.2383 29.0859C14.2383 29.0534 14.222 29.0371 14.1895 29.0371L14.2383 28.5195C14.2057 28.0443 14.1895 27.7969 14.1895 27.7773C14.2611 27.4518 14.2969 27.2598 14.2969 27.2012H14.2383C14.3555 27.0124 14.4141 26.765 14.4141 26.459V25.541C14.4141 25.2936 14.4336 24.9095 14.4727 24.3887H14.4141C14.5312 23.8548 14.5898 23.474 14.5898 23.2461H14.5312L14.5898 23.1289V22.7285L14.6387 22.3281C14.6061 22.3281 14.5898 22.3086 14.5898 22.2695H14.6387C14.6387 22.2305 14.6224 22.2109 14.5898 22.2109L14.6973 20.8926C14.6582 20.7559 14.6387 20.5866 14.6387 20.3848V20.1504C14.5671 20.1048 14.4336 19.3594 14.2383 17.9141C14.0104 17.1523 13.7826 15.6647 13.5547 13.4512C13.5938 13.373 13.6133 13.3145 13.6133 13.2754L13.5547 12.9336C13.5547 12.8555 13.6133 12.569 13.7305 12.0742C13.7305 11.2474 13.7663 10.4824 13.8379 9.7793C13.7988 9.41471 13.7793 9.05339 13.7793 8.69531V8.40234C13.7793 7.85547 13.8184 7.11328 13.8965 6.17578L13.8379 5.94141C13.877 5.86979 13.8965 5.8112 13.8965 5.76562C13.8574 5.69401 13.8379 5.63867 13.8379 5.59961C13.877 5.52148 13.8965 5.46289 13.8965 5.42383L13.8379 5.31641L13.8965 5.02344C13.8184 4.89974 13.7793 4.78581 13.7793 4.68164C13.9225 4.45378 14.0592 4.33984 14.1895 4.33984C14.1895 4.48958 14.8568 4.62305 16.1914 4.74023C16.1914 4.7793 16.2109 4.79883 16.25 4.79883L18.4863 4.10547C18.7923 4.07943 18.9453 4.04362 18.9453 3.99805ZM18.0273 6.57617H17.8516C17.5326 6.45898 16.6732 6.36133 15.2734 6.2832C15.2734 6.32227 15.2539 6.3418 15.2148 6.3418C15.332 7.56576 15.3906 8.3112 15.3906 8.57812H15.4492C15.4492 8.61719 15.4297 8.63672 15.3906 8.63672L15.4492 8.91992V10.1211C15.4492 10.388 15.4655 10.8079 15.498 11.3809H15.4492L15.498 11.498V12.5332C15.498 13.7051 15.6901 14.7174 16.0742 15.5703C16.1133 15.8958 16.1328 16.1628 16.1328 16.3711V16.4883C16.1328 16.7943 16.1133 17.1556 16.0742 17.5723L16.1328 17.6895L16.0742 18.0312V18.207C16.2305 19.1445 16.3444 19.9844 16.416 20.7266V20.9512C16.416 21.5566 16.3607 22.0938 16.25 22.5625C16.25 22.5951 16.2695 22.6113 16.3086 22.6113L16.25 22.9043L16.3086 23.4707C16.2695 24.0046 16.25 24.3496 16.25 24.5059C16.25 24.7858 16.2891 25.1862 16.3672 25.707C16.25 26.6055 16.1914 27.5234 16.1914 28.4609L16.1328 28.5781C16.3281 29.4961 16.4811 29.9714 16.5918 30.0039H16.6504C16.6504 29.6523 16.7448 29.3854 16.9336 29.2031L16.875 29.0859V29.0371C16.888 28.959 16.9271 28.9199 16.9922 28.9199C16.9922 28.959 17.0117 29.0143 17.0508 29.0859L17.168 29.0371C17.2786 29.1868 17.373 29.2617 17.4512 29.2617V29.3203L17.3926 29.6035C17.4707 29.6165 17.5098 29.6556 17.5098 29.7207C17.4316 29.7337 17.3926 29.7728 17.3926 29.8379V29.9453C17.5098 29.9453 17.5684 29.9844 17.5684 30.0625C17.985 30.0625 18.1934 29.9681 18.1934 29.7793C18.2715 29.3691 18.3301 28.8906 18.3691 28.3438H18.3105L18.3691 28.2266L18.3105 27.6602C18.4277 27.6341 18.4863 27.4811 18.4863 27.2012V26.8008L18.5938 26.625V26.459C18.6719 25.8079 18.7109 25.4434 18.7109 25.3652V25.082C18.7109 24.7305 18.6914 24.2324 18.6523 23.5879L18.7109 23.4707C18.6719 23.4056 18.6523 23.3307 18.6523 23.2461V23.1875C18.6523 23.0638 18.6719 22.9694 18.7109 22.9043L18.6523 22.5625V22.5039C18.8086 21.8594 18.8867 21.5143 18.8867 21.4688H18.9453C18.9453 21.6966 18.9616 21.8105 18.9941 21.8105L18.8867 22.5039L18.9941 22.5625L18.9453 22.6699L18.9941 23.2461L18.9453 23.4707C18.9779 23.5358 18.9941 23.6335 18.9941 23.7637C18.9225 23.7637 18.8867 23.819 18.8867 23.9297L18.9453 24.3301C18.9453 24.4082 18.9062 24.5449 18.8281 24.7402C18.9062 25.0137 18.9453 25.3001 18.9453 25.5996C18.9062 25.6712 18.8867 25.7266 18.8867 25.7656C18.9844 25.7656 19.0592 26.166 19.1113 26.9668C19.1504 26.9668 19.1699 27.0254 19.1699 27.1426C19.1699 27.2988 19.1504 27.5104 19.1113 27.7773C19.1504 27.888 19.1895 27.9434 19.2285 27.9434L19.1699 28.2266V28.6855C19.1699 28.7246 19.1895 28.7441 19.2285 28.7441C19.2285 28.7832 19.209 28.8027 19.1699 28.8027L19.2285 29.3789V29.4375L19.1699 29.8379C19.209 29.8379 19.2285 29.8574 19.2285 29.8965L19.8047 29.8379H20.0293V29.4375C20.0293 29.3984 20.0098 29.3789 19.9707 29.3789C20.0098 29.3008 20.0293 29.2422 20.0293 29.2031C19.9902 29.0729 19.9707 28.998 19.9707 28.9785L20.2539 28.3438C20.3711 28.3438 20.4883 28.4967 20.6055 28.8027C20.5664 28.8809 20.5469 28.9395 20.5469 28.9785C20.6576 28.9785 20.752 29.2454 20.8301 29.7793L21.1133 29.8379H21.3477C22.207 29.7598 22.666 29.7207 22.7246 29.7207C22.7637 29.7207 22.7832 29.7402 22.7832 29.7793C22.972 29.7793 23.1055 29.3203 23.1836 28.4023C23.1445 28.3307 23.125 28.2721 23.125 28.2266C23.125 28.1549 23.1999 27.8327 23.3496 27.2598L23.291 27.1426C23.3691 26.9668 23.4473 26.8724 23.5254 26.8594C23.6426 26.9831 23.7012 27.3053 23.7012 27.8262V28.0605L23.8086 28.2266L23.7012 28.2852C23.7728 28.4154 23.8086 28.5326 23.8086 28.6367V28.8027C23.8086 28.8874 23.7891 28.9655 23.75 29.0371C23.75 29.0697 23.7695 29.0859 23.8086 29.0859L23.75 29.4961V29.6621C23.763 29.7402 23.8021 29.7793 23.8672 29.7793H24.502C24.502 29.7142 24.5573 29.6198 24.668 29.4961L24.6094 29.2617C24.6094 29.2227 24.6289 29.1641 24.668 29.0859C24.6289 28.8841 24.6094 28.7148 24.6094 28.5781C24.6094 28.487 24.6289 28.4089 24.668 28.3438L24.6094 28.002V27.8848L24.7266 27.7188C24.6875 27.582 24.668 27.5039 24.668 27.4844L24.7266 27.3672L24.668 27.2598C24.668 27.2207 24.6875 27.2012 24.7266 27.2012L24.668 26.918V26.8594C24.668 26.7552 24.707 26.638 24.7852 26.5078C24.7461 26.4427 24.7266 26.3678 24.7266 26.2832L24.8438 26.1074V25.4238L25.127 24.6816C25.0879 24.4668 25.0684 24.3138 25.0684 24.2227C25.0684 24.0143 25.1465 23.6302 25.3027 23.0703V22.9043C25.1855 22.5267 25.127 22.2598 25.127 22.1035C25.166 21.9863 25.2051 21.9277 25.2441 21.9277L25.1855 21.5273L25.2441 21.127C25.2051 21.127 25.1855 21.1074 25.1855 21.0684C25.2441 21.0684 25.3776 20.9154 25.5859 20.6094H25.6445L25.7031 20.8926V21.3027L25.6445 21.6445C25.7227 21.7487 25.7812 22.0156 25.8203 22.4453C25.7422 23.0508 25.7031 23.4316 25.7031 23.5879C25.7812 23.7116 25.8203 23.8092 25.8203 23.8809C25.7422 24.1868 25.6641 24.4342 25.5859 24.623C25.625 24.6947 25.6445 24.75 25.6445 24.7891C25.6445 25.056 25.6055 25.1895 25.5273 25.1895L25.5859 25.3066V25.3652C25.5859 25.5345 25.5469 25.6875 25.4688 25.8242C25.4688 25.8633 25.4883 25.8828 25.5273 25.8828C25.4557 26.4167 25.3809 26.7617 25.3027 26.918C25.3809 27.4062 25.4199 27.6927 25.4199 27.7773H25.3613L25.4199 27.8848V28.6367C25.4915 29.1901 25.5273 29.4928 25.5273 29.5449V29.7207H25.6445C26.2174 29.3952 26.5039 28.9167 26.5039 28.2852C26.4648 28.2135 26.4453 28.1582 26.4453 28.1191H26.5039C26.4648 28.041 26.4453 27.9824 26.4453 27.9434C26.4453 27.0384 26.4844 26.3711 26.5625 25.9414C26.5234 25.8633 26.5039 25.8047 26.5039 25.7656H26.5625C26.5234 25.694 26.5039 25.6387 26.5039 25.5996C26.5039 24.8184 26.5234 23.9753 26.5625 23.0703L26.4453 21.1855C26.4844 20.7363 26.5039 20.4108 26.5039 20.209C26.5039 20.0918 26.3509 19.1934 26.0449 17.5137L26.1035 17.2305V16.8887C26.2923 15.2871 26.3867 14.0078 26.3867 13.0508C26.4648 13.0508 26.5039 12.7643 26.5039 12.1914V11.332C26.5039 11.293 26.5234 11.2734 26.5625 11.2734L26.5039 11.1562V10.4727L26.5625 10.3555H26.5039L26.5625 10.2383V7.94336L26.4453 8.00195H26.3281C25.6576 8.00195 24.8568 8.13542 23.9258 8.40234V8.97852C23.776 9.47331 23.7012 9.8737 23.7012 10.1797V11.498C23.7012 11.804 23.6816 12.2044 23.6426 12.6992C23.9095 13.2005 24.043 13.5065 24.043 13.6172V14.0176C24.043 14.3236 23.9453 15.1276 23.75 16.4297V16.9473C23.9062 16.9473 23.9844 17.3086 23.9844 18.0312C24.0234 18.0703 24.0625 18.3763 24.1016 18.9492C24.0625 19.8021 24.0039 20.3001 23.9258 20.4434L23.9844 20.7266C23.9453 21.1237 23.9258 21.4492 23.9258 21.7031H23.8672L23.9258 21.8105V23.7051C23.8607 24.89 23.6686 25.4824 23.3496 25.4824C23.1738 25.5801 22.832 25.6745 22.3242 25.7656C22.3242 25.8047 22.2461 25.8633 22.0898 25.9414C22.0638 25.9414 21.9499 25.9219 21.748 25.8828C21.6764 25.8828 21.5234 26.0358 21.2891 26.3418C21.0807 26.3809 20.9082 26.4004 20.7715 26.4004C20.127 26.2962 19.8047 25.8926 19.8047 25.1895V24.9648H19.8535L19.8047 24.8477V24.1055C19.8047 24.0664 19.7852 24.0469 19.7461 24.0469L19.8047 23.9297V23.1875C19.8047 22.9792 19.7852 22.7122 19.7461 22.3867L19.8535 21.9863L19.8047 21.4688C19.8047 21.0977 19.86 20.6029 19.9707 19.9844L19.9121 19.8672L20.0879 18.4316C20.0098 18.0345 19.9707 17.7285 19.9707 17.5137C20.0098 16.8691 20.0684 16.4883 20.1465 16.3711C19.9512 15.7721 19.8535 15.0462 19.8535 14.1934C19.8926 14.1934 19.9121 14.1738 19.9121 14.1348H19.8535C19.9707 13.4512 20.0293 12.9564 20.0293 12.6504V9.37891C20.0293 9.33984 20.0488 9.32031 20.0879 9.32031L20.0293 9.20312V8.97852C20.0293 8.2168 20.0684 7.71875 20.1465 7.48438L20.0879 7.37695C20.3158 6.90169 20.4297 6.34831 20.4297 5.7168H20.3711C19.8633 5.9056 19.2513 6.0944 18.5352 6.2832C18.5286 6.30273 18.3594 6.40039 18.0273 6.57617ZM19.1113 9.1543C19.2285 9.1543 19.2871 9.40169 19.2871 9.89648L19.2285 10.1211C19.2285 10.1602 19.248 10.1797 19.2871 10.1797L19.0527 11.8984C19.0918 11.9766 19.1113 12.0352 19.1113 12.0742L19.0527 12.1914L19.1113 12.2988C19.0853 12.4551 19.0462 12.5332 18.9941 12.5332C19.0332 13.028 19.0723 13.2754 19.1113 13.2754L19.0527 13.3926V13.959C19.0527 13.998 19.0332 14.0176 18.9941 14.0176C19.0723 14.2259 19.1113 14.4961 19.1113 14.8281C19.1113 15.1276 19.0723 15.2773 18.9941 15.2773C19.0723 15.4466 19.1113 15.7526 19.1113 16.1953C19.1113 16.2734 19.0723 16.3125 18.9941 16.3125C18.9941 16.1237 18.9583 16.0293 18.8867 16.0293L18.9453 15.9121C18.9453 15.86 18.8672 15.7266 18.7109 15.5117V15.1699C18.7109 15.0072 18.7305 14.7956 18.7695 14.5352C18.6914 14.3659 18.6523 14.1185 18.6523 13.793V13.7344C18.7305 13.6432 18.7695 13.5684 18.7695 13.5098L18.7109 13.3926C18.75 13.3275 18.7695 13.2493 18.7695 13.1582H18.6523V13.0996C18.6523 13.015 18.6719 12.9401 18.7109 12.875C18.7109 12.8359 18.6914 12.8164 18.6523 12.8164L18.7695 11.791H18.7109C18.8281 11.5501 18.9225 11.127 18.9941 10.5215H19.0527L18.9941 10.4141C18.9941 10.2969 19.0137 10.2383 19.0527 10.2383L18.9941 9.95508V9.89648C18.9941 9.74023 19.0527 9.58724 19.1699 9.4375L19.1113 9.32031V9.1543ZM17.3926 13.2754H17.4512C17.5358 13.2754 17.5944 13.5618 17.627 14.1348C17.5879 14.61 17.5684 14.877 17.5684 14.9355C17.6074 15.5801 17.627 16.0781 17.627 16.4297C17.5879 16.4297 17.5684 16.4492 17.5684 16.4883C17.64 16.4948 17.6758 16.5306 17.6758 16.5957V16.8301C17.6758 16.8691 17.6595 16.8887 17.627 16.8887C17.653 16.9342 17.6888 17.2012 17.7344 17.6895C17.6953 17.7611 17.6758 17.8164 17.6758 17.8555C17.7539 18.0052 17.793 18.2168 17.793 18.4902C17.793 18.5293 17.7734 18.5488 17.7344 18.5488C17.7734 18.6139 17.8125 18.7865 17.8516 19.0664H17.793C17.832 19.138 17.8516 19.1934 17.8516 19.2324C17.8516 19.3105 17.832 19.3496 17.793 19.3496C17.8385 20.2871 17.8971 20.7852 17.9688 20.8438C17.9297 21.0521 17.9102 21.2051 17.9102 21.3027C17.9883 21.4264 18.0273 21.5404 18.0273 21.6445C18.0273 21.6836 18.0078 21.7389 17.9688 21.8105C18.0469 22.1491 18.0859 22.416 18.0859 22.6113C18.0859 22.6504 18.0664 22.8034 18.0273 23.0703L18.0859 23.1875L17.9688 23.6465C18.0078 24.0306 18.0469 24.2227 18.0859 24.2227L18.0273 24.5059V25.541C17.9102 26.9147 17.793 27.6016 17.6758 27.6016C17.6432 27.4518 17.627 27.2988 17.627 27.1426L17.5098 27.2012C17.5098 26.8757 17.4707 26.6283 17.3926 26.459C17.4316 26.3809 17.4512 26.3223 17.4512 26.2832C17.373 26.0423 17.334 25.8893 17.334 25.8242L17.3926 25.707C17.3145 25.3555 17.2754 25.0495 17.2754 24.7891C17.2754 24.7109 17.2949 24.5026 17.334 24.1641L17.2754 23.8223L17.334 23.5879L17.2266 23.0703C17.2591 22.7383 17.2754 22.4518 17.2754 22.2109V22.0449C17.2754 22.0059 17.2949 21.9863 17.334 21.9863L17.2266 21.752C17.2591 21.6803 17.2754 21.625 17.2754 21.5859L17.2266 21.3027C17.2982 21.1595 17.334 21.0065 17.334 20.8438L17.2266 20.668V20.2676C17.2266 20.2285 17.2428 20.209 17.2754 20.209L17.2266 20.0918V20.0332C17.2982 19.9225 17.3535 19.7891 17.3926 19.6328C17.3535 19.5677 17.334 19.4928 17.334 19.4082V19.291H17.4512V19.125C17.334 18.9753 17.2754 18.7637 17.2754 18.4902L17.334 18.373L17.2754 18.2656L17.334 17.9141C17.334 17.7253 17.2982 17.6309 17.2266 17.6309L17.2754 17.5137V17.1133C17.2754 17.0286 17.2591 16.9538 17.2266 16.8887L17.2754 16.7715C17.2428 16.5632 17.2266 16.3906 17.2266 16.2539C17.2982 16.2539 17.334 16.2148 17.334 16.1367V15.9121C17.334 15.873 17.3145 15.8535 17.2754 15.8535L17.334 15.7363V15.5703L17.2266 14.877C17.2786 14.7272 17.334 14.6523 17.3926 14.6523C17.3926 14.6133 17.373 14.5938 17.334 14.5938L17.3926 13.9102V13.2754ZM21.748 16.3711C21.748 16.651 21.6895 17.0905 21.5723 17.6895C21.6504 18.1582 21.709 18.5977 21.748 19.0078C21.709 19.2161 21.6895 19.3691 21.6895 19.4668C21.7546 19.584 21.8132 19.8704 21.8652 20.3262C21.8262 20.3652 21.7676 21.013 21.6895 22.2695C21.7676 22.6536 21.8066 22.9987 21.8066 23.3047C22.1126 23.3047 22.2656 22.6927 22.2656 21.4688C22.2266 20.4466 22.207 19.8151 22.207 19.5742L22.2656 19.4668C22.1094 18.1582 21.9564 17.1263 21.8066 16.3711H21.748ZM38.3496 1.87891C38.5059 1.87891 38.8477 2.01237 39.375 2.2793C39.5117 2.2793 40.3516 2.18164 41.8945 1.98633C42.1224 1.98633 42.526 2.00586 43.1055 2.04492C43.1771 2.00586 43.2324 1.98633 43.2715 1.98633C43.6165 2.10352 43.7891 2.3151 43.7891 2.62109C44.043 2.73828 44.3099 3.3112 44.5898 4.33984C44.707 4.33984 44.8405 4.7793 44.9902 5.6582C45.0293 6.04232 45.127 6.44271 45.2832 6.85938V6.91797C45.2832 7.00911 45.1693 7.23698 44.9414 7.60156C44.9414 7.77734 44.9219 7.89453 44.8828 7.95312C44.9544 8.35026 44.9902 9.05664 44.9902 10.0723V10.1309C44.9902 10.7884 44.8763 11.3223 44.6484 11.7324C44.6875 11.9408 44.707 12.1133 44.707 12.25V12.3086C44.401 12.6862 44.0755 13.2786 43.7305 14.0859C44.1081 14.2422 44.4336 14.6426 44.707 15.2871C44.7331 15.7363 44.9447 16.1172 45.3418 16.4297V16.4883C45.3418 16.9961 45.3581 17.722 45.3906 18.666C45.3581 19.278 45.3223 19.6035 45.2832 19.6426L45.3418 19.9844V20.4434L45.625 20.8438V21.1855C45.4688 22.1361 45.3548 23.015 45.2832 23.8223H45.3418C45.2767 23.8223 45.2181 24.4538 45.166 25.7168C45.2441 26.1139 45.2832 26.3255 45.2832 26.3516C45.0879 27.2174 44.9902 27.7122 44.9902 27.8359C45.0293 28.3177 45.0488 28.6042 45.0488 28.6953C44.821 29.4635 44.707 29.8835 44.707 29.9551C44.7852 30.1504 44.8438 30.248 44.8828 30.248C44.7526 30.9837 44.5801 31.3646 44.3652 31.3906C44.2871 31.4557 43.9421 31.5143 43.3301 31.5664C43.1022 31.7031 42.4902 31.8919 41.4941 32.1328C41.4941 32.25 41.1523 32.3281 40.4688 32.3672C40.1628 32.3672 39.7982 32.2891 39.375 32.1328C38.3854 32.1328 37.4707 32.3249 36.6309 32.709C36.3509 32.8587 36.1784 32.9336 36.1133 32.9336C35.6706 32.7839 34.7917 32.6341 33.4766 32.4844V32.5332L33.3594 32.4844L31.3574 32.6504C30.4785 32.5658 30.0391 32.4909 30.0391 32.4258L29.9219 32.4844H29.8633C29.7591 32.4844 29.6647 32.1784 29.5801 31.5664C29.5801 31.5273 29.5996 31.5078 29.6387 31.5078C29.5345 31.2279 29.4564 30.9609 29.4043 30.707L29.4629 30.1895C29.4629 30.0918 29.4434 29.5742 29.4043 28.6367L29.6387 26.4004C29.6647 26.4004 29.7201 26.2865 29.8047 26.0586V25.9414C29.8047 25.681 29.8438 25.3197 29.9219 24.8574C29.4987 24.6361 29.2871 24.2357 29.2871 23.6562C29.3262 21.8789 29.3848 20.8665 29.4629 20.6191L29.4043 20.502C29.4824 20.0462 29.5215 19.4733 29.5215 18.7832V18.5488L29.6387 18.1484C29.6387 18.0117 29.5996 17.7448 29.5215 17.3477C29.5605 16.9245 29.5801 16.5436 29.5801 16.2051V15.7461C29.502 15.1341 29.3099 14.3105 29.0039 13.2754C29.069 12.8327 29.222 12.3184 29.4629 11.7324C29.4629 11.5697 29.4043 11.3223 29.2871 10.9902C29.3262 10.3066 29.3457 9.75 29.3457 9.32031V9.03711C29.3457 8.90039 29.3652 8.72786 29.4043 8.51953L29.3457 8.41211C29.4238 7.61133 29.4629 7.13281 29.4629 6.97656C29.4238 6.46224 29.4043 6.07812 29.4043 5.82422L29.4629 5.7168L29.4043 5.59961C29.5605 4.66862 29.7135 4.13477 29.8633 3.99805V3.48047C29.8633 3.05729 29.9577 2.8457 30.1465 2.8457L30.4395 2.62109C30.6868 2.73177 30.9928 2.78711 31.3574 2.78711C31.4616 2.78711 31.9564 2.61784 32.8418 2.2793C33.4538 2.24023 33.7598 2.20117 33.7598 2.16211L34.043 2.2207H34.9023C35.0326 2.2207 35.1693 2.27604 35.3125 2.38672H36.0547C37.0898 2.25 37.8548 2.08073 38.3496 1.87891ZM31.582 4.62305V4.68164C31.582 5.04622 31.6016 5.48568 31.6406 6C31.5234 7.10677 31.4648 8.09961 31.4648 8.97852L31.5234 9.32031C31.4844 9.39844 31.4648 9.45703 31.4648 9.49609C31.4648 10.0169 31.6178 10.821 31.9238 11.9082C31.9629 12.2272 31.9824 12.4941 31.9824 12.709V13.3926C31.9824 13.4316 31.9629 13.4512 31.9238 13.4512L31.9824 13.5684C31.9824 13.8613 31.9629 14.1283 31.9238 14.3691C31.9629 14.9095 31.9824 15.3685 31.9824 15.7461C31.9824 16.013 31.9271 16.3385 31.8164 16.7227C31.9661 18.4935 32.041 19.4473 32.041 19.584C32.041 19.8314 31.9466 20.4043 31.7578 21.3027C31.7578 21.5827 31.8913 22.25 32.1582 23.3047V23.9395C32.041 24.4473 31.9434 25.0788 31.8652 25.834C31.9043 27.3314 31.9238 28.4577 31.9238 29.2129L31.9824 29.7891L31.8652 30.707C31.9043 30.7786 31.9238 30.834 31.9238 30.873H32.2754C32.347 30.873 32.3828 30.834 32.3828 30.7559V30.5898L32.4414 29.8965C32.3633 29.8965 32.3242 29.8411 32.3242 29.7305C32.4154 29.4635 32.4935 29.3301 32.5586 29.3301C32.6693 29.3301 32.7246 29.4049 32.7246 29.5547V29.7305C32.8288 29.7305 32.9069 30.0365 32.959 30.6484C32.998 30.6484 33.0176 30.6842 33.0176 30.7559L33.3008 30.707C33.2227 30.6419 33.1673 30.3555 33.1348 29.8477L33.1836 29.5547L33.1348 29.4375C33.2454 29.1901 33.3008 29.0208 33.3008 28.9297V28.8711C33.3008 28.832 33.2812 28.8125 33.2422 28.8125L33.3008 28.6953V28.5781L33.2422 28.2949C33.3203 28.2949 33.3594 28.2363 33.3594 28.1191L33.3008 28.0117L33.3594 27.8945C33.3594 27.862 33.3398 27.709 33.3008 27.4355C33.3789 27.084 33.418 26.8724 33.418 26.8008C33.3398 26.8008 33.3008 26.765 33.3008 26.6934V26.6348C33.3008 26.5957 33.3398 26.4427 33.418 26.1758V25.8926C33.3008 25.7493 33.2422 25.6159 33.2422 25.4922V25.2578L33.3594 25.082C33.2812 24.9583 33.2422 24.8444 33.2422 24.7402C33.2552 24.5124 33.2943 24.3984 33.3594 24.3984L33.3008 24.2812V24.2227L33.3594 24.1152C33.2812 24.1152 33.2422 24.0762 33.2422 23.998V23.8809L33.3008 23.7637C33.2227 23.7637 33.1836 23.7279 33.1836 23.6562V23.0215C33.1836 22.9824 33.2031 22.9629 33.2422 22.9629C33.1706 22.7285 33.1348 22.5755 33.1348 22.5039L33.3594 22.1035L33.2422 21.9375V21.7617L33.3594 21.5859C33.3594 21.5534 33.3398 21.5371 33.3008 21.5371C33.3789 21.2962 33.418 21.1432 33.418 21.0781C33.4961 21.0846 33.5352 21.1204 33.5352 21.1855V21.5859C33.4961 21.7552 33.4766 21.8919 33.4766 21.9961L33.5938 22.0449L33.5352 22.6211L33.6426 23.0215C33.571 23.2689 33.5352 23.4219 33.5352 23.4805C33.724 24.6523 33.877 25.7982 33.9941 26.918C33.9551 27.1719 33.9355 27.4225 33.9355 27.6699V28.3535C33.9355 28.4382 33.9551 28.513 33.9941 28.5781L33.9355 28.6953L33.9941 28.8125C33.916 29.112 33.877 29.3398 33.877 29.4961L33.9355 29.7891C33.9355 29.8086 33.916 29.8835 33.877 30.0137C33.903 30.3978 33.9583 30.5898 34.043 30.5898H34.3359C34.3815 30.0755 34.4206 29.7695 34.4531 29.6719C34.4141 29.6068 34.3945 29.5286 34.3945 29.4375C34.3945 29.3008 34.4141 29.1315 34.4531 28.9297L34.3945 28.8125C34.4206 28.6562 34.4564 28.5781 34.502 28.5781C34.4694 28.5065 34.4531 28.4512 34.4531 28.4121C34.4531 28.3796 34.4694 28.2656 34.502 28.0703L34.4531 27.9531L34.5605 27.3184L34.502 27.2109C34.5801 26.9245 34.6191 26.7715 34.6191 26.752L34.5605 26.459C34.6777 26.0553 34.7363 25.7135 34.7363 25.4336H34.9023V25.541C34.9023 25.6582 34.8861 25.7168 34.8535 25.7168L34.9609 26.5762H34.9023L35.0781 27.2598L35.0195 27.5527V28.4707C35.0195 28.5098 35 28.5293 34.9609 28.5293C35.0391 28.6855 35.1172 29.3333 35.1953 30.4727C35.1562 30.4727 35.1367 30.4922 35.1367 30.5312H35.2539C35.4167 30.5312 35.7585 30.4173 36.2793 30.1895C36.2793 30.1309 36.2598 29.8249 36.2207 29.2715L36.2793 29.1543C36.2402 29.0827 36.2207 29.0273 36.2207 28.9883H36.2793L36.2207 28.8711V28.4707L36.3965 28.5781C36.4486 28.3503 36.5072 28.2363 36.5723 28.2363C36.6764 28.2363 36.7708 28.8092 36.8555 29.9551L37.0312 30.1309H37.832C37.9622 30.1309 38.0371 29.6719 38.0566 28.7539C37.985 28.5065 37.9492 28.334 37.9492 28.2363H37.998L37.8906 27.8359L37.9492 27.7188C37.8711 27.5951 37.832 27.5007 37.832 27.4355C37.832 27.4095 37.8516 27.2956 37.8906 27.0938C37.8516 27.0156 37.832 26.957 37.832 26.918C37.8841 26.918 37.9395 26.8626 37.998 26.752H37.9492C38.0534 26.446 38.1868 26.2539 38.3496 26.1758L38.457 26.3516C38.457 26.4036 38.4017 26.459 38.291 26.5176L38.3496 26.6348V27.377C38.4863 27.377 38.6393 28.028 38.8086 29.3301C38.8086 29.3691 38.7891 29.4245 38.75 29.4961C38.7891 29.9193 38.8444 30.1309 38.916 30.1309H39.2676L39.4922 29.3887L39.375 28.2949C39.5898 27.5723 39.7819 27.2109 39.9512 27.2109C39.9902 27.2956 40.0488 27.5234 40.127 27.8945L40.0684 28.0117C40.0684 28.0833 40.1042 28.2168 40.1758 28.4121C40.1432 28.4772 40.127 28.5521 40.127 28.6367H40.1758L40.127 28.7539V28.8125C40.127 28.8516 40.1432 28.8711 40.1758 28.8711L40.127 28.9883V29.3887C40.127 29.4212 40.1432 29.4375 40.1758 29.4375L40.127 29.5547V30.248C40.3743 30.3197 40.5436 30.3555 40.6348 30.3555C40.6348 30.2513 40.752 29.9095 40.9863 29.3301V29.2129L40.9277 28.4121H40.9863L40.9277 28.2949V28.0703C40.9277 27.8359 41.0417 27.7188 41.2695 27.7188V27.6699C41.1523 27.5202 41.0938 27.3477 41.0938 27.1523C41.0938 27.0872 41.1328 26.9701 41.2109 26.8008L41.1523 26.459L41.2109 26.2344C41.1719 26.1693 41.1523 26.0911 41.1523 26H41.2109C41.2109 25.9609 41.1914 25.9414 41.1523 25.9414C41.1523 25.8633 41.2858 25.349 41.5527 24.3984V23.4805C41.4811 22.9206 41.4453 22.6146 41.4453 22.5625V21.7617C41.4453 21.5599 41.4616 21.3874 41.4941 21.2441C41.4616 21.0423 41.4453 20.8535 41.4453 20.6777V19.9258C41.4518 19.8477 41.4876 19.8086 41.5527 19.8086L41.4941 19.7012V19.6426C41.5592 19.4863 41.6927 19.4082 41.8945 19.4082C41.8945 19.4538 41.9141 19.5124 41.9531 19.584C41.9141 19.7012 41.8783 19.7598 41.8457 19.7598L41.8945 19.8672V19.9258C41.8945 19.9648 41.8783 19.9844 41.8457 19.9844C41.8457 20.0234 41.862 20.043 41.8945 20.043C41.8229 20.5898 41.7871 21.3353 41.7871 22.2793V22.6211C41.7871 22.7057 41.7676 22.7839 41.7285 22.8555L41.7871 22.9629C41.7871 22.9889 41.7676 23.2396 41.7285 23.7148C41.7676 24.0469 41.7871 24.2357 41.7871 24.2812C41.748 24.3594 41.7285 24.418 41.7285 24.457L41.8457 24.5156L41.7871 24.7988C41.8262 25.1309 41.8457 25.3229 41.8457 25.375C41.8066 25.4466 41.7871 25.502 41.7871 25.541C41.7871 25.5801 41.8066 25.5996 41.8457 25.5996L41.7871 25.8926V25.9414L41.8457 26.2344C41.7676 26.2344 41.7285 26.2897 41.7285 26.4004C41.7285 26.4395 41.748 26.5924 41.7871 26.8594L41.7285 26.9766C41.7285 27.0156 41.748 27.0742 41.7871 27.1523C41.748 27.6471 41.7285 28.0475 41.7285 28.3535C41.7285 28.4382 41.748 28.513 41.7871 28.5781C41.748 28.6497 41.7285 28.7279 41.7285 28.8125V29.0957C41.7285 29.1803 41.748 29.2585 41.7871 29.3301C41.748 29.3952 41.7285 29.4701 41.7285 29.5547V30.0137L41.6699 30.1309C42.3991 30.0267 42.7637 29.8542 42.7637 29.6133C42.9525 28.7734 43.0469 28.2949 43.0469 28.1777V28.1191C43.0469 27.9173 43.0273 27.748 42.9883 27.6113C42.9883 27.071 43.0827 26.5924 43.2715 26.1758C43.2324 25.8503 43.2129 25.5833 43.2129 25.375V25.0332L43.2715 24.6816C43.2715 24.6426 43.252 24.623 43.2129 24.623L43.2715 24.2812C43.2715 23.1029 43.252 21.498 43.2129 19.4668L43.3301 18.6074C43.291 17.7546 43.2715 17.0677 43.2715 16.5469C43.2715 16.1628 42.6986 15.4173 41.5527 14.3105L41.4453 14.1348V14.0273C41.6406 13.3112 42.0964 12.6797 42.8125 12.1328C42.8906 11.3906 42.9883 9.76628 43.1055 7.25977V6.23438C42.9883 6.11068 42.8158 5.63216 42.5879 4.79883C42.4577 4.39518 42.3047 4.06966 42.1289 3.82227C41.6276 3.87435 41.3411 3.91341 41.2695 3.93945C41.2044 3.90039 41.1263 3.88086 41.0352 3.88086L40.9277 3.93945L40.8105 3.88086L40.293 3.93945L40.1758 3.88086C39.9023 4.0306 39.5996 4.10547 39.2676 4.10547C38.9876 4.10547 38.5482 4.01107 37.9492 3.82227L33.0762 4.56445C32.8092 4.56445 32.3112 4.58398 31.582 4.62305ZM38.3984 7.37695H38.6914C39.681 7.51367 40.1758 8.01172 40.1758 8.87109L40.293 9.37891C40.026 10.3945 39.4141 11.2376 38.457 11.9082C38.3268 12.1751 38.1738 12.3086 37.998 12.3086L37.7148 12.25H37.3145C37.0215 12.5169 36.7936 12.6504 36.6309 12.6504C36.3249 12.4095 36.1719 12.0645 36.1719 11.6152C36.0156 11.1204 35.9375 10.7396 35.9375 10.4727L36.2793 10.3555L36.2207 9.7793V9.37891C36.0254 9.04688 35.9115 8.8776 35.8789 8.87109C35.8789 8.10286 36.0905 7.71875 36.5137 7.71875L38.3984 7.37695ZM37.5977 9.21289C37.6758 9.56445 37.7148 9.87044 37.7148 10.1309H37.832C38.1055 9.89648 38.278 9.7793 38.3496 9.7793V9.73047L38.291 9.03711H38.2324C38.0697 9.03711 37.8581 9.0957 37.5977 9.21289ZM35.9961 16.7715H36.0547C36.0938 16.7715 36.1133 16.791 36.1133 16.8301L36.2207 16.7715H36.3379C36.8001 16.9277 37.1452 17.0059 37.373 17.0059H38.0566L38.3984 17.0645C38.4701 17.0254 38.5482 17.0059 38.6328 17.0059C39.4727 17.123 39.8926 17.3314 39.8926 17.6309C40.1986 18.2038 40.3516 18.7409 40.3516 19.2422C40.4688 19.6198 40.5469 20.0983 40.5859 20.6777C40.5469 20.9251 40.5273 21.1725 40.5273 21.4199L40.5859 22.2207C40.5143 22.4811 40.4557 23.054 40.4102 23.9395L40.5273 24.1738C39.9284 24.5124 39.5638 24.6816 39.4336 24.6816C39.3229 24.6816 39.1699 24.6458 38.9746 24.5742C38.2064 24.6849 37.6139 24.7988 37.1973 24.916C36.4355 24.916 36.0547 24.418 36.0547 23.4219L35.8789 22.5039C35.8789 22.3151 35.8984 22.0286 35.9375 21.6445L35.8789 21.3027C36.1068 21.1725 36.2207 20.9805 36.2207 20.7266L36.1133 20.043C36.1523 19.8346 36.1719 19.623 36.1719 19.4082C36.0938 19.2975 36.0547 19.1641 36.0547 19.0078C36.0547 18.7865 36.0352 18.3861 35.9961 17.8066L36.0547 17.6895L35.9375 16.9473C35.9766 16.8757 35.9961 16.8171 35.9961 16.7715ZM37.7734 18.5V18.5488C37.8125 18.972 37.832 19.3366 37.832 19.6426V19.7012C37.832 19.7402 37.8516 19.7598 37.8906 19.7598L37.832 19.8672V22.9043H37.8906C38.3073 22.7546 38.5156 22.6016 38.5156 22.4453L38.6328 20.9609C38.5938 20.707 38.5742 20.4596 38.5742 20.2188H38.6328L38.5156 19.8086C38.5482 19.6589 38.5872 19.584 38.6328 19.584L38.5742 19.3008C38.5742 19.2682 38.5938 19.1152 38.6328 18.8418C38.6328 18.6725 38.3464 18.5586 37.7734 18.5ZM59.7559 1.69336L60 1.75195C60.0716 1.71289 60.1497 1.69336 60.2344 1.69336C60.638 1.83659 60.8398 1.93424 60.8398 1.98633L60.7129 2.28906C60.9603 2.82943 61.084 3.1224 61.084 3.16797L61.0156 3.57812C61.1654 3.92969 61.2663 4.32031 61.3184 4.75C61.2337 5.4987 61.1914 6.14648 61.1914 6.69336C61.2305 7.72852 61.25 8.33724 61.25 8.51953C61.2109 9.0013 61.1133 9.55143 60.957 10.1699C60.9961 10.4368 61.0156 10.6549 61.0156 10.8242C61.0156 10.8438 60.9961 10.9186 60.957 11.0488L61.1914 12.0547C61.1263 12.7318 61.0677 14.2031 61.0156 16.4688C61.1328 17.1003 61.1914 17.7676 61.1914 18.4707C61.1523 19.4277 61.1328 19.9551 61.1328 20.0527L61.4355 21.0586V21.4102C61.3574 21.957 61.2956 22.2305 61.25 22.2305L61.3184 22.3477V22.416C61.3184 22.5788 61.276 22.735 61.1914 22.8848C61.1523 24.2845 61.1328 25.3815 61.1328 26.1758V26.5371C61.1328 26.7845 61.1165 27.0775 61.084 27.416C61.1165 27.9108 61.1719 28.2624 61.25 28.4707C61.25 28.8092 61.0514 29.1445 60.6543 29.4766C59.9642 29.6523 59.3294 29.8672 58.75 30.1211C58.6393 30.1211 58.457 30.2806 58.2031 30.5996C57.6302 30.9447 57.2721 31.1172 57.1289 31.1172H56.8945C56.6211 30.9544 56.3574 30.6224 56.1035 30.1211V29.7109C56.1035 29.5677 55.9635 28.9785 55.6836 27.9434C55.6445 27.5527 55.5469 27.0026 55.3906 26.293C55.2734 26.332 55.1139 26.6673 54.9121 27.2988C54.6777 27.6309 54.4987 27.8066 54.375 27.8262C54.0169 27.735 53.8379 27.5169 53.8379 27.1719C53.7337 26.9961 53.6133 26.6478 53.4766 26.127L53.2422 25.9414V26.0586C53.3138 26.7227 53.3496 27.0938 53.3496 27.1719C53.3496 27.3542 53.3333 27.6113 53.3008 27.9434C53.3268 28.373 53.3659 28.5879 53.418 28.5879C53.5807 28.6465 53.6621 28.7083 53.6621 28.7734C53.6621 28.8451 53.6198 28.8809 53.5352 28.8809C53.4635 28.8483 53.4017 28.832 53.3496 28.832L53.3008 28.9395L53.3496 29.3008L53.2422 29.4766V30.0625C53.2422 30.375 53.0208 30.6094 52.5781 30.7656C52.5781 30.8438 52.1191 30.9251 51.2012 31.0098C51.1296 31.0098 50.9342 30.9674 50.6152 30.8828L50.4883 30.9512C50.2344 30.9512 49.1764 30.6549 47.3145 30.0625C46.5592 29.6914 46.1816 29.1608 46.1816 28.4707L45.8789 26.6445V26.5371C46.0807 25.528 46.2402 24.0729 46.3574 22.1719L46.2988 21.9375H46.3574C46.3053 21.3906 46.224 21.1172 46.1133 21.1172L46.1816 20.8145V20.2969C46.1816 20.1276 46.1589 19.9095 46.1133 19.6426C46.1849 19.5059 46.2891 18.7214 46.4258 17.2891C46.4648 17.2891 46.4844 17.2695 46.4844 17.2305C46.3607 16.1693 46.1589 15.0918 45.8789 13.998C45.8789 13.666 45.8594 12.901 45.8203 11.7031C46.0156 11.3841 46.1133 11.0488 46.1133 10.6973V9.4082C46.1133 9.16081 46.0938 8.86458 46.0547 8.51953C46.0938 8.3763 46.1133 8.20052 46.1133 7.99219C46.0482 7.40625 45.9928 7.11328 45.9473 7.11328L46.0059 6.51758V5.57031C46.0059 5.51823 45.9635 5.04948 45.8789 4.16406V4.10547C45.8789 3.85156 46.1393 3.61719 46.6602 3.40234C47.2396 2.69922 47.8353 2.34766 48.4473 2.34766C48.6751 2.30859 48.8346 2.28906 48.9258 2.28906L49.0527 2.34766C49.1243 2.30859 49.1862 2.28906 49.2383 2.28906C49.3945 2.28906 49.8112 2.36393 50.4883 2.51367C50.5273 2.51367 50.5469 2.49414 50.5469 2.45508C51.0221 2.45508 51.3411 2.8099 51.5039 3.51953C51.888 4.20964 52.1289 4.60026 52.2266 4.69141C52.4023 4.69141 52.6009 5.24154 52.8223 6.3418V6.76172C52.8223 7.50391 53.0404 8.13216 53.4766 8.64648C53.763 9.54492 53.9648 9.99414 54.082 9.99414C54.5573 9.18034 54.7949 8.57161 54.7949 8.16797C55.0358 7.59505 55.1562 7.24349 55.1562 7.11328H55.0977C55.293 6.63151 55.3906 6.33529 55.3906 6.22461L55.332 5.93164C55.332 5.57357 55.5729 4.43424 56.0547 2.51367C56.2956 2.08398 56.7122 1.86914 57.3047 1.86914C57.3503 1.86914 57.373 1.88867 57.373 1.92773L58.8086 1.75195C58.8737 1.79102 58.9518 1.81055 59.043 1.81055C59.3945 1.73242 59.6322 1.69336 59.7559 1.69336ZM57.8516 3.92969C57.8906 4.33333 57.9102 4.64909 57.9102 4.87695V4.99414C57.7083 6.19857 57.4056 7.17839 57.002 7.93359L57.1875 8.51953V8.69531C57.1875 9.02083 56.7904 9.98438 55.9961 11.5859C55.8594 11.6641 55.6771 11.8789 55.4492 12.2305V12.6992C55.4492 13.0182 55.2507 13.3926 54.8535 13.8223C54.7233 14.4212 54.4661 15.0495 54.082 15.707C54.0495 15.707 53.929 15.7266 53.7207 15.7656C53.597 15.6549 53.4961 15.3001 53.418 14.7012C53.112 14.1413 52.832 13.1973 52.5781 11.8691L51.3281 8.46094C51.3281 8.18099 51.0482 7.37695 50.4883 6.04883L50.0098 4.45703C49.9902 4.06641 49.9284 3.87109 49.8242 3.87109H49.707C49.6224 3.87109 49.2448 4.04688 48.5742 4.39844C47.9753 4.52865 47.6758 4.76302 47.6758 5.10156C47.832 5.96094 47.9525 6.90495 48.0371 7.93359C48.0762 7.93359 48.1152 8.14844 48.1543 8.57812L47.9688 10.3457L48.0371 10.4629L47.9688 10.5801C48.0534 10.7298 48.0957 10.9479 48.0957 11.2344L47.8613 13.9395C47.9785 14.3561 48.0957 15.4368 48.2129 17.1816C48.1738 17.6243 48.1152 19.0924 48.0371 21.5859C48.0762 21.9896 48.1152 22.6764 48.1543 23.6465L47.8613 25.2383C47.8939 25.7917 47.9525 26.2799 48.0371 26.7031C47.9915 27.1068 47.9688 27.4225 47.9688 27.6504C48.0404 28.36 48.1217 28.7148 48.2129 28.7148H48.5156C48.5938 28.7148 48.6328 28.6725 48.6328 28.5879L48.5742 28.4707C48.6133 28.1973 48.6751 27.9238 48.7598 27.6504L48.6914 27.5234L48.7598 27.1719L48.6914 27.0547C48.7695 26.931 48.8086 26.8138 48.8086 26.7031H48.7598C48.7923 26.5924 48.8281 26.5371 48.8672 26.5371L48.8086 26.127V26.0586C48.8086 25.5117 48.8704 25.2383 48.9941 25.2383L48.9258 24.9355V24.7109C48.9388 24.5091 48.9811 24.4082 49.0527 24.4082L48.9941 23.8906C48.9941 23.7409 49.0137 23.5618 49.0527 23.3535C49.0137 23.1061 48.9941 22.8327 48.9941 22.5332L49.0527 22.416C48.9681 22.2858 48.9258 22.1686 48.9258 22.0645C48.9258 21.9798 48.9876 21.9375 49.1113 21.9375V21.7617H48.9941C48.9941 21.6315 49.0527 21.4948 49.1699 21.3516L49.1113 21.2246L49.2383 21C49.1536 20.8568 49.1113 20.7005 49.1113 20.5312L49.2383 20.4629H49.2871V20.7656C49.4108 20.8958 49.4727 20.9935 49.4727 21.0586C49.4727 21.1888 49.4499 21.2865 49.4043 21.3516C49.4759 22.0742 49.5378 22.4486 49.5898 22.4746L49.5312 22.582V23.2949L49.4727 23.6465C49.5117 23.998 49.5508 24.1738 49.5898 24.1738C49.5117 25.0788 49.4108 25.8047 49.2871 26.3516L49.4043 27.3574C49.3262 27.9238 49.2871 28.3145 49.2871 28.5293C49.3262 28.6074 49.3457 28.6693 49.3457 28.7148H50.0098C49.9707 28.3372 49.9316 28.1191 49.8926 28.0605C49.9707 27.8978 50.0098 27.7806 50.0098 27.709C49.9512 27.709 49.8893 27.6471 49.8242 27.5234V27.416C49.9284 27.3053 50.0098 27.0319 50.0684 26.5957C50.0293 26.5241 50.0098 26.4427 50.0098 26.3516H50.0684C50.1725 26.3516 50.3125 26.7064 50.4883 27.416C50.4492 27.5332 50.4102 27.5918 50.3711 27.5918C50.5729 28.5293 50.8691 28.998 51.2598 28.998C51.4095 29.1217 51.5495 29.1836 51.6797 29.1836H51.748C51.4681 28.1094 51.3281 27.2467 51.3281 26.5957V26.1758L51.2012 25.7656C51.4225 25.0299 51.5625 24.6165 51.6211 24.5254C51.543 23.1257 51.4648 22.0482 51.3867 21.293L51.4453 21.1758C51.2435 20.7982 51.084 19.4831 50.9668 17.2305H51.0254C50.9082 16.8789 50.8073 16.3906 50.7227 15.7656C50.8073 15.6354 50.8496 15.5345 50.8496 15.4629C51.0905 15.4629 51.25 15.6615 51.3281 16.0586C51.4844 16.3385 51.6829 17.1426 51.9238 18.4707C52.3079 19.4603 52.5456 20.0072 52.6367 20.1113C52.7083 19.5645 52.7702 19.291 52.8223 19.291L52.7637 18.9883V18.4707C52.9004 18.4707 52.9785 18.8418 52.998 19.584H52.9395L52.998 19.7012C52.998 19.7533 52.959 19.9681 52.8809 20.3457V20.5898C52.8809 20.8372 53.0599 21.485 53.418 22.5332H53.5352V22.4746C53.5352 22.3053 53.5547 22.0872 53.5938 21.8203C53.5938 21.7943 53.5742 21.6771 53.5352 21.4688C53.6198 21.0391 53.6621 20.7656 53.6621 20.6484H53.7207C53.8379 20.8828 53.9583 21.3743 54.082 22.123V22.2891C54.082 22.4518 54.0592 22.6113 54.0137 22.7676C54.0592 22.9043 54.082 23.0996 54.082 23.3535C54.3555 23.2298 54.4922 22.9368 54.4922 22.4746V22.416L54.4336 22.0645L54.5605 21.7617C54.5605 21.7227 54.5378 21.6641 54.4922 21.5859C54.4987 20.8958 54.6191 20.1504 54.8535 19.3496H54.9121L54.8535 19.0566C54.8665 18.9785 54.9056 18.9395 54.9707 18.9395C54.9707 19.0306 54.9935 19.1087 55.0391 19.1738L54.9707 19.5254C54.9707 19.61 54.9935 19.6914 55.0391 19.7695C54.9544 19.9193 54.9121 20.1309 54.9121 20.4043V20.8145C55.1921 20.5605 55.4915 19.916 55.8105 18.8809C56.0059 18.1126 56.1458 17.2467 56.2305 16.2832C56.1458 15.9382 56.1035 15.6094 56.1035 15.2969L56.3477 14.6426V14.3496H56.416C56.4941 14.3496 56.5332 14.4049 56.5332 14.5156L56.4746 15.2285L56.5332 15.3555L56.3477 15.9902C56.4714 16.3678 56.5332 16.5859 56.5332 16.6445L56.4746 16.752C56.4746 16.804 56.4941 16.8659 56.5332 16.9375C56.4941 17.1523 56.4746 17.3281 56.4746 17.4648C56.6699 17.4648 56.7676 17.6797 56.7676 18.1094L56.709 18.4707C56.7871 18.6139 56.8262 18.7702 56.8262 18.9395V19.7012C56.9108 20.0853 56.9531 20.3001 56.9531 20.3457L56.8945 20.7656C56.9661 20.8958 57.002 21.013 57.002 21.1172V21.1758L56.9531 21.5273C57.0573 21.7422 57.1354 22.4681 57.1875 23.7051C57.2396 23.7051 57.3014 24.0599 57.373 24.7695C57.5553 24.7695 57.6725 23.985 57.7246 22.416H57.959C57.959 22.4746 58.0013 22.5495 58.0859 22.6406C58.0859 22.6862 58.0664 22.748 58.0273 22.8262C58.0664 23.1517 58.1673 23.5423 58.3301 23.998L58.1445 24.7695V24.8184C58.1445 24.9876 58.1641 25.2057 58.2031 25.4727C58.1641 25.5378 58.1445 25.6159 58.1445 25.707C58.1836 25.7852 58.2031 25.8438 58.2031 25.8828C58.1641 25.9479 58.1445 26.0293 58.1445 26.127C58.2292 26.1335 58.2715 26.1693 58.2715 26.2344V26.293C58.2715 26.4297 58.2487 26.5306 58.2031 26.5957L58.3301 27.3574C58.291 27.429 58.2715 27.4844 58.2715 27.5234C58.3105 27.6471 58.3464 27.709 58.3789 27.709C58.9258 27.4225 59.2448 27.224 59.3359 27.1133C59.2188 26.6445 59.1602 26.2539 59.1602 25.9414C59.2383 25.681 59.2969 25.3457 59.3359 24.9355C59.2969 24.7337 59.2773 24.5417 59.2773 24.3594V23.998C59.2773 23.9134 59.2969 23.8353 59.3359 23.7637C59.2969 23.6986 59.2773 23.6204 59.2773 23.5293C59.2773 23.4121 59.2969 23.3535 59.3359 23.3535L59.2773 23.0508V22.582C59.1992 21.6771 59.0788 19.8932 58.916 17.2305C58.877 17.1003 58.7598 16.3939 58.5645 15.1113L58.623 14.9941C58.584 14.9225 58.5645 14.8444 58.5645 14.7598L58.623 14.3496L58.5645 14.2324C58.7598 13.4577 58.8574 12.3411 58.8574 10.8828C59.0202 10.2708 59.1439 9.15104 59.2285 7.52344C59.2611 7.52344 59.2773 7.46159 59.2773 7.33789C59.2122 5.02669 59.1146 3.87109 58.9844 3.87109C59.0234 3.65625 59.043 3.47721 59.043 3.33398V3.10938H58.9844C58.4375 3.10938 58.0599 3.38281 57.8516 3.92969ZM49.8242 15.1113L49.8926 15.4043C49.847 15.6777 49.8242 15.8958 49.8242 16.0586C50.0651 16.7161 50.1855 17.3835 50.1855 18.0605V18.1094C50.1855 18.2461 50.0651 18.6204 49.8242 19.2324V19.877C49.8242 19.9551 49.7852 19.9941 49.707 19.9941H49.6582C49.5736 19.9941 49.5312 19.9551 49.5312 19.877V19.584C49.5312 19.4603 49.5508 19.3626 49.5898 19.291L49.5312 18.9395V18.7637C49.5312 18.7246 49.5508 18.7051 49.5898 18.7051C49.4857 18.5358 49.4043 18.2005 49.3457 17.6992C49.3848 17.2826 49.4661 17.0286 49.5898 16.9375L49.4043 16.2832V16.1758L49.5312 15.9902V15.9316C49.5312 15.847 49.5117 15.7721 49.4727 15.707C49.5508 15.5768 49.5898 15.4596 49.5898 15.3555C49.5508 15.2708 49.5312 15.209 49.5312 15.1699C49.5833 15.1309 49.681 15.1113 49.8242 15.1113ZM57.9102 19.9941C57.9883 20.0072 58.0273 20.0462 58.0273 20.1113C58.0273 20.1569 58.0046 20.1797 57.959 20.1797C58.0046 20.4336 58.0664 20.6289 58.1445 20.7656C58.0664 20.7721 58.0273 20.8112 58.0273 20.8828L58.1445 20.9414L58.0859 21.3516V21.5273L58.2031 21.7031L58.0859 21.8789L58.1445 22.1719L58.0273 22.2305H57.9102C57.8516 22.2305 57.7897 22.1751 57.7246 22.0645V21.9375C57.7376 21.8594 57.7799 21.8203 57.8516 21.8203L57.793 21.5273C57.806 21.4492 57.8451 21.4102 57.9102 21.4102L57.8516 21.293V20.7656L57.793 20.0527L57.9102 19.9941ZM66.4551 3.26562H66.6895C67.3275 3.6237 67.6693 3.83203 67.7148 3.89062C67.526 4.47005 67.4121 5.0332 67.373 5.58008V5.82422C67.373 6.02604 67.3535 6.28646 67.3145 6.60547C67.3535 6.93099 67.373 7.19466 67.373 7.39648C67.373 7.49414 67.3535 7.64388 67.3145 7.8457C67.3535 8.05404 67.373 8.22331 67.373 8.35352C67.334 8.82227 67.3145 9.08594 67.3145 9.14453L67.5391 9.99414C67.5391 10.5801 67.3893 10.9577 67.0898 11.127V11.2344C67.3372 11.2344 67.6595 11.6315 68.0566 12.4258L67.998 12.5332L68.1152 12.875L68.0566 13.2656C68.0957 14.0143 68.1152 14.4277 68.1152 14.5059C68.0046 14.7402 67.9492 14.9095 67.9492 15.0137C67.9818 15.9121 67.998 16.6283 67.998 17.1621C67.998 17.3835 67.9818 17.7188 67.9492 18.168C68.2552 19.2747 68.4635 19.8965 68.5742 20.0332V20.4824C68.3854 20.8014 68.291 21.2148 68.291 21.7227C68.291 23.181 68.4049 24.3659 68.6328 25.2773L68.5742 25.3848L69.1504 28.6074C69.1113 28.6725 69.0918 28.7474 69.0918 28.832C69.3197 28.8776 69.4336 29.2357 69.4336 29.9062C69.4727 29.9062 69.5117 30.2448 69.5508 30.9219C69.4401 30.9219 68.9225 31.0879 67.998 31.4199C66.9824 31.6868 66.2956 31.9147 65.9375 32.1035L65.0781 31.9277C64.4922 32.123 64.1862 32.2207 64.1602 32.2207C63.776 32.0189 63.3952 31.7715 63.0176 31.4785H62.959C62.2624 31.7454 61.862 31.8789 61.7578 31.8789C61.8685 30.9349 61.9238 30.388 61.9238 30.2383C61.8587 30.082 61.8034 29.5189 61.7578 28.5488C61.7578 28.5098 61.7773 28.4902 61.8164 28.4902L61.7578 28.1582C61.7578 28.0605 61.7773 27.9076 61.8164 27.6992C61.7383 27.4388 61.6797 26.804 61.6406 25.7949C61.6797 25.5801 61.6992 25.4271 61.6992 25.3359L61.6406 25.2285C61.6406 25.1634 61.7741 24.8411 62.041 24.2617C61.9629 23.1094 61.888 22.377 61.8164 22.0645V21.7227C62.0443 21.2148 62.1582 20.8405 62.1582 20.5996L62.2168 20.3164L62.0996 19.3008C62.1387 19.1576 62.1582 19.0078 62.1582 18.8516C61.8132 17.0286 61.6406 16.013 61.6406 15.8047C61.6667 15.3099 61.7057 15.0625 61.7578 15.0625L61.6992 14.5059V12.3672C61.6992 12.1003 61.9076 11.778 62.3242 11.4004V11.3516C62.3242 11.2148 62.2493 11.0423 62.0996 10.834C62.0996 10.6257 62.1745 9.97135 62.3242 8.87109V8.35352C62.3242 8.17773 62.3079 7.98893 62.2754 7.78711L62.3242 7.57227C62.3633 6.79102 62.2884 5.93815 62.0996 5.01367C62.0996 4.75326 62.3307 4.62305 62.793 4.62305C63.6328 4.62305 64.0527 4.47331 64.0527 4.17383C65.0358 3.60742 65.7812 3.32422 66.2891 3.32422C66.2891 3.28516 66.3444 3.26562 66.4551 3.26562ZM64.1016 6.37109C64.1016 6.5599 64.1406 6.6543 64.2188 6.6543L64.1602 6.76172C64.1211 7.6276 64.1602 8.68555 64.2773 9.93555C64.1992 10.2741 64.1602 10.5215 64.1602 10.6777L64.2188 10.7754C64.5247 10.6322 64.8698 10.502 65.2539 10.3848H65.5957V9.54492C65.5957 9.50586 65.5762 9.48633 65.5371 9.48633C65.5762 9.41471 65.5957 9.35938 65.5957 9.32031C65.5957 9.03385 65.5762 8.36979 65.5371 7.32812C65.6152 6.77474 65.6543 6.40039 65.6543 6.20508H65.5957L65.6543 6.08789V5.46289H65.5957C64.5996 5.6582 64.1016 5.96094 64.1016 6.37109ZM63.5352 12.7578C63.6458 13.2656 63.7012 13.5879 63.7012 13.7246C63.7012 13.8353 63.6263 14.2812 63.4766 15.0625C63.7044 16.2148 63.877 17.3639 63.9941 18.5098C63.9941 18.6335 63.9746 18.7279 63.9355 18.793C63.9746 19.112 63.9941 19.3757 63.9941 19.584V20.9414C63.9941 21.0716 64.0104 21.2409 64.043 21.4492C64.0104 21.4818 63.9746 21.7259 63.9355 22.1816C63.9746 22.377 63.9941 22.4876 63.9941 22.5137C63.7598 23.64 63.6426 25.069 63.6426 26.8008C63.4928 27.901 63.418 28.5423 63.418 28.7246V30.1797C63.431 30.2578 63.4701 30.2969 63.5352 30.2969H63.9355C64.0462 30.2578 64.1016 30.1471 64.1016 29.9648V29.3984L64.2773 28.7832H64.4531C64.4531 28.9329 64.4694 29.0827 64.502 29.2324C64.502 29.2715 64.4857 29.3268 64.4531 29.3984C64.4857 29.6003 64.502 29.7695 64.502 29.9062C64.502 29.9453 64.4857 29.9648 64.4531 29.9648C64.4857 30.1471 64.5605 30.2383 64.6777 30.2383L65.5371 29.9648C65.5762 29.2096 65.6152 28.6986 65.6543 28.4316C65.6152 28.3665 65.5957 28.2949 65.5957 28.2168C65.5957 28.1452 65.6348 28.0117 65.7129 27.8164L65.5957 26.5176H65.6543C65.6543 26.485 65.6348 26.4688 65.5957 26.4688C65.6348 25.9609 65.6543 25.5833 65.6543 25.3359V24.9941L65.5957 24.8867C65.6738 24.8867 65.7129 24.8281 65.7129 24.7109H65.8203L65.9961 26.127V26.6836C65.9961 26.7747 66.0156 26.8529 66.0547 26.918L65.9961 27.0352C66.0938 28.0052 66.1719 28.4902 66.2305 28.4902L66.1719 28.6074C66.1719 28.7962 66.2077 28.8906 66.2793 28.8906C66.2793 28.9297 66.263 28.985 66.2305 29.0566C66.263 29.4408 66.2793 29.7435 66.2793 29.9648V30.082H66.3965C66.5723 30.082 66.8034 29.9844 67.0898 29.7891C67.0898 29.7565 66.9173 29.099 66.5723 27.8164C66.5723 27.6927 66.6081 27.3737 66.6797 26.8594L66.6309 26.7422L66.6797 26.4688C66.4909 25.2839 66.3574 24.1738 66.2793 23.1387C66.1296 23.1387 65.9961 22.4583 65.8789 21.0977C65.957 20.3229 65.9961 19.7988 65.9961 19.5254V19.3496C65.9961 18.8613 65.957 18.526 65.8789 18.3438L65.9375 18.0117V17.7188C65.9375 17.5365 65.918 17.3509 65.8789 17.1621C65.9701 16.0553 66.0482 15.3945 66.1133 15.1797C66.1914 14.8477 66.2305 14.623 66.2305 14.5059C66.1133 13.8678 66.0547 13.474 66.0547 13.3242C66.0547 13.2656 66.0742 13.002 66.1133 12.5332C66.0091 12.2923 65.9115 12.1589 65.8203 12.1328H65.7715C65.7324 12.1328 65.7129 12.1523 65.7129 12.1914L65.5957 12.1328C64.222 12.4714 63.5352 12.6797 63.5352 12.7578ZM64.6191 19.1934L64.6777 19.3008C64.6777 19.3333 64.6582 19.3496 64.6191 19.3496C64.6452 19.6556 64.6842 19.8086 64.7363 19.8086C64.7363 19.8411 64.7168 19.8574 64.6777 19.8574C64.7038 20.1243 64.7428 20.2578 64.7949 20.2578C64.7168 20.3945 64.6777 20.5443 64.6777 20.707V20.9414L64.8535 21.8398L64.7949 21.9473C64.7949 21.9733 64.8893 22.2207 65.0781 22.6895C65.0781 23.0931 65.1172 23.6172 65.1953 24.2617C65.1172 24.8802 65.0228 25.4238 64.9121 25.8926H64.7949C64.7103 25.8926 64.6126 25.6875 64.502 25.2773C64.541 24.5286 64.6387 23.6465 64.7949 22.6309V22.4551C64.7949 22.3509 64.7559 22.2402 64.6777 22.123C64.6777 22.084 64.6973 22.0645 64.7363 22.0645L64.502 20.6484L64.5605 20.375L64.4531 20.3164C64.5247 19.8411 64.5605 19.5026 64.5605 19.3008C64.5215 19.3008 64.502 19.2812 64.502 19.2422L64.6191 19.1934ZM79.1699 1.76172C79.2936 1.83333 79.4076 1.86914 79.5117 1.86914C79.6419 1.79753 79.7559 1.76172 79.8535 1.76172C79.9512 1.83333 80.0488 1.86914 80.1465 1.86914C80.0293 3.65951 79.8958 4.92253 79.7461 5.6582C79.7461 5.77539 79.668 5.96419 79.5117 6.22461C79.375 8.06055 79.2806 8.97852 79.2285 8.97852C78.8249 9.16732 78.3854 9.26172 77.9102 9.26172C77.3958 9.33984 77.0703 9.37891 76.9336 9.37891L76.25 9.26172C76.1263 9.33984 76.0319 9.37891 75.9668 9.37891V10.0137L75.6738 11.957C75.9017 13.9427 76.1133 14.9355 76.3086 14.9355C76.5365 16.4199 76.6504 17.2598 76.6504 17.4551V17.5137C76.5723 17.7871 76.5332 17.9401 76.5332 17.9727V20.0918C76.5332 20.3587 76.4941 20.4922 76.416 20.4922L76.5332 22.1621L76.4746 22.2695C76.4746 22.3086 76.4941 22.3281 76.5332 22.3281L76.416 23.6465C76.4681 23.985 76.5072 24.1966 76.5332 24.2812L76.4746 24.3887C76.9759 25.2871 77.2266 25.86 77.2266 26.1074L77.1094 26.918C77.1484 26.9896 77.168 27.0449 77.168 27.084L77.0508 27.6016C77.1289 27.8815 77.2038 28.3405 77.2754 28.9785C77.2428 29.584 77.2266 29.9453 77.2266 30.0625C77.2591 30.7331 77.2754 31.153 77.2754 31.3223C76.9759 31.6673 76.6895 31.8398 76.416 31.8398C76.123 31.612 75.9147 31.498 75.791 31.498C74.7949 31.7259 74.2969 31.9342 74.2969 32.123H74.2383C73.3073 31.8952 72.7539 31.7812 72.5781 31.7812H71.9531C71.6927 31.7812 71.1003 31.8952 70.1758 32.123V29.3203C70.1758 29.1315 70.1172 28.7116 70 28.0605C70.0391 27.8522 70.0586 27.6992 70.0586 27.6016C70.0586 27.3997 70.0391 27.2272 70 27.084C70.0391 26.7259 70.0586 26.3841 70.0586 26.0586V25.8242C69.9805 24.9648 69.9414 24.5059 69.9414 24.4473V23.9883C69.9414 23.9036 70.0195 23.6758 70.1758 23.3047C70.0391 20.8958 69.9056 19.6914 69.7754 19.6914C69.7363 19.6328 69.7168 19.5384 69.7168 19.4082V19.125C69.7168 18.9622 69.8698 18.6921 70.1758 18.3145V17.8066C70.1758 17.6439 70.1953 17.4909 70.2344 17.3477L70.1172 16.4883L70.1758 16.3711C70.0977 16.013 70.0586 15.707 70.0586 15.4531L70.2344 14.7109C70.1562 14.1641 70.1172 13.7799 70.1172 13.5586C70.1562 13.2852 70.1953 13.1159 70.2344 13.0508C70.1562 12.8164 70.0781 11.9375 70 10.4141V10.0723L69.7754 8.63672C69.7363 8.63672 69.7168 8.57812 69.7168 8.46094C69.3717 8.48698 69.1992 8.52604 69.1992 8.57812C68.5938 8.27214 68.0599 8.04427 67.5977 7.89453L67.8223 6.91797C67.8223 6.87891 67.8027 6.82031 67.7637 6.74219L67.8223 6.45898C67.7507 4.7207 67.6758 3.72786 67.5977 3.48047L67.6562 3.36328C67.5781 3.16797 67.5391 3.03451 67.5391 2.96289C67.9232 2.85872 68.1152 2.74479 68.1152 2.62109H68.5156L69.834 2.16211L69.9414 2.2207H70.1172L70.293 2.10352C70.2995 2.18164 70.3353 2.2207 70.4004 2.2207L70.9766 2.16211C71.9076 2.38997 72.4805 2.50391 72.6953 2.50391H73.4375C73.6068 2.50391 73.7598 2.46484 73.8965 2.38672C74.0918 2.46484 74.2253 2.50391 74.2969 2.50391L74.7559 2.38672C74.9512 2.50391 75.1042 2.5625 75.2148 2.5625L75.791 2.50391L76.1328 2.5625C76.8229 2.19141 77.474 1.94401 78.0859 1.82031L78.4863 1.86914C78.8249 1.79753 79.0527 1.76172 79.1699 1.76172ZM76.5332 4.04688C76.1556 4.01432 75.8691 3.99805 75.6738 3.99805H75.5566C75.472 3.99805 75.3971 4.01432 75.332 4.04688C75.2539 3.98828 74.9479 3.93294 74.4141 3.88086C74.1602 3.68555 73.9518 3.58789 73.7891 3.58789C73.6458 3.58789 73.3952 3.66602 73.0371 3.82227C72.9525 3.82227 72.8776 3.80273 72.8125 3.76367C72.5391 3.76367 71.888 3.8418 70.8594 3.99805C70.5469 3.99805 70.0879 4.03385 69.4824 4.10547H69.4336L69.1406 4.04688L68.9746 5.7168C69.0592 6.5957 69.2285 7.03516 69.4824 7.03516C70.1465 6.91797 70.6445 6.85938 70.9766 6.85938L71.0938 6.91797L71.2109 6.85938C71.4453 6.88542 71.6536 6.96029 71.8359 7.08398L71.7773 7.37695V9.4375C71.7773 9.52214 71.7578 9.59701 71.7188 9.66211C71.8359 9.98112 71.9531 11.1107 72.0703 13.0508C71.9987 13.5065 71.9401 13.7344 71.8945 13.7344L71.9531 14.3105V15.5703C71.9531 15.8633 72.028 16.1888 72.1777 16.5469C72.1517 17.0677 72.0573 17.543 71.8945 17.9727C72.0443 18.819 72.1191 19.3171 72.1191 19.4668V20.209C72.1191 20.4173 72.0638 20.8177 71.9531 21.4102C72.0312 21.7682 72.0703 22.0547 72.0703 22.2695V22.5625C71.7643 23.5911 71.6113 24.1641 71.6113 24.2812C71.6113 24.3464 71.7643 24.7663 72.0703 25.541C72.0703 25.6647 72.0117 26.0065 71.8945 26.5664C71.9336 27.2109 71.9922 27.7285 72.0703 28.1191L72.0117 28.6855C72.0117 28.8613 72.0312 29.112 72.0703 29.4375C72.0312 29.6784 72.0117 30.0007 72.0117 30.4043L72.1191 30.4629H72.2949C72.373 30.4629 72.4121 30.4271 72.4121 30.3555V30.2969C72.4121 30.2578 72.3926 30.2383 72.3535 30.2383L72.4707 30.0039L72.4121 29.7207C72.4837 29.2389 72.5195 28.9329 72.5195 28.8027C72.487 28.6009 72.4707 28.487 72.4707 28.4609C72.6335 27.4648 72.7474 26.8724 72.8125 26.6836C72.8125 26.6445 72.793 26.625 72.7539 26.625C72.832 25.974 72.946 25.6484 73.0957 25.6484L73.0371 25.541V25.4824L73.0957 25.3652C72.985 25.3652 72.9297 25.3457 72.9297 25.3066C72.9622 25.0788 73.0176 24.9648 73.0957 24.9648H73.2129L73.3301 25.7656L73.2129 26.2246C73.2389 26.5306 73.278 26.6836 73.3301 26.6836L73.2715 26.8008C73.3105 27.1328 73.3301 27.3216 73.3301 27.3672C73.1738 28.3372 73.0957 28.8548 73.0957 28.9199C73.1348 28.985 73.1543 29.0599 73.1543 29.1445V29.6035L73.0371 29.7793V30.1797C73.0501 30.2578 73.0892 30.2969 73.1543 30.2969H73.4375C73.7435 30.2969 73.8965 30.1992 73.8965 30.0039C73.8249 29.8477 73.7891 29.7337 73.7891 29.6621C73.8607 29.1803 73.8965 28.8743 73.8965 28.7441H74.2383V28.8613C74.1667 28.8613 74.1309 28.8809 74.1309 28.9199C74.2415 29.0892 74.3164 29.3171 74.3555 29.6035L74.2969 29.9453V30.0039C74.3034 30.056 74.401 30.1341 74.5898 30.2383H75.0488C75.1335 30.2383 75.1888 30.0658 75.2148 29.7207C75.1758 29.3301 75.1562 29.0241 75.1562 28.8027H75.2148L75.1562 28.6855V28.4023C75.1562 28.194 75.1367 27.9271 75.0977 27.6016C75.0977 27.5625 75.1172 27.543 75.1562 27.543C75.1562 27.1003 75.0033 26.0684 74.6973 24.4473C74.6973 23.6009 74.5833 22.722 74.3555 21.8105L74.4141 21.7031C74.3359 21.5599 74.2969 21.3874 74.2969 21.1855L74.3555 20.9512C74.3555 20.9121 74.3359 20.8926 74.2969 20.8926L74.4141 19.8672C74.375 19.7891 74.3555 19.7305 74.3555 19.6914C74.3555 19.6068 74.375 19.5319 74.4141 19.4668C74.375 19.2064 74.3555 18.9948 74.3555 18.832C74.3555 18.487 74.4531 17.8197 74.6484 16.8301V16.5469C74.6484 16.2018 74.5312 15.1699 74.2969 13.4512C74.2969 13.3014 74.2611 12.7839 74.1895 11.8984C74.1895 11.6836 74.2253 11.0553 74.2969 10.0137C74.2578 9.49284 74.2383 9.16732 74.2383 9.03711C74.2643 8.30794 74.3815 7.94336 74.5898 7.94336C74.7266 8.02148 74.8958 8.06055 75.0977 8.06055C75.319 7.94987 75.5892 7.83594 75.9082 7.71875C76.3574 7.79688 76.6439 7.83594 76.7676 7.83594L77.9688 7.43555L78.0859 6.17578L78.0273 5.48242C78.0664 4.96159 78.0859 4.63607 78.0859 4.50586C78.0078 3.82227 77.9492 3.48047 77.9102 3.48047C77.8385 3.44141 77.7799 3.42188 77.7344 3.42188C76.9401 3.75391 76.5397 3.96224 76.5332 4.04688ZM72.9297 17.8066H72.9785C73.0566 17.8132 73.0957 17.849 73.0957 17.9141L73.0371 18.2656L73.0957 18.666C73.0566 19.1999 73.0176 19.4863 72.9785 19.5254C73.0176 19.6035 73.0566 19.7728 73.0957 20.0332C73.0566 20.4564 73.0013 20.668 72.9297 20.668H72.8711V20.6094C72.8711 20.362 72.9069 20.0951 72.9785 19.8086C72.9069 19.7695 72.8516 19.75 72.8125 19.75C72.8125 19.7109 72.832 19.6523 72.8711 19.5742C72.8711 19.5091 72.832 19.3952 72.7539 19.2324C72.832 19.2324 72.8711 19.1771 72.8711 19.0664L72.8125 18.7148C72.832 18.5 72.8874 18.3307 72.9785 18.207V18.0898L72.9297 17.8066ZM73.0957 23.7637C73.0957 23.8027 73.1152 23.8223 73.1543 23.8223L73.0957 23.9297V24.2227L73.1543 24.623L73.0371 24.6816H72.9297V24.3301C72.9297 24.2975 72.946 24.2812 72.9785 24.2812C72.9785 24.2422 72.9622 24.2227 72.9297 24.2227C72.9622 23.9167 73.0176 23.7637 73.0957 23.7637ZM81.1523 0.443359H81.2109C81.4779 0.443359 81.8034 0.518229 82.1875 0.667969L83.1641 0.501953C83.7695 0.91862 84.3783 1.26042 84.9902 1.52734C85.0684 1.52734 85.1074 1.45247 85.1074 1.30273C85.3353 1.30273 86.0417 1.22461 87.2266 1.06836C87.5586 1.10742 87.8451 1.12695 88.0859 1.12695H88.7793C89.1569 1.13346 89.3457 1.17253 89.3457 1.24414C89.3066 1.36133 89.2676 1.41992 89.2285 1.41992C89.3066 1.61523 89.3457 1.76497 89.3457 1.86914C89.2415 2.24674 89.0527 3.33724 88.7793 5.14062C88.5449 5.14062 88.2943 7.67969 88.0273 12.7578C88.0273 12.9141 88.0664 13.1647 88.1445 13.5098C88.1445 14.903 87.9167 16.1823 87.4609 17.3477C87.3828 17.7773 87.3438 18.0833 87.3438 18.2656V18.373C87.3438 18.5098 87.3633 18.6823 87.4023 18.8906C87.3307 19.2357 87.2721 19.6751 87.2266 20.209C87.2656 20.2741 87.2852 20.3522 87.2852 20.4434V20.9512C87.2852 21.2507 87.0573 21.5762 86.6016 21.9277V22.0449C86.901 22.2663 87.0508 22.5527 87.0508 22.9043L87.002 23.1289C87.0736 23.3047 87.1094 23.4967 87.1094 23.7051C87.1094 23.8288 87.0736 24.1348 87.002 24.623C87.1126 25.4824 87.168 26.0163 87.168 26.2246V26.4004C87.168 27.1882 86.9792 27.8945 86.6016 28.5195C86.6016 28.9102 86.3704 29.5026 85.9082 30.2969C84.9447 30.7917 84.4303 31.0391 84.3652 31.0391C84.2871 30.7721 84.1536 30.6387 83.9648 30.6387L82.4707 31.498C82.2038 31.3613 82.0703 30.9609 82.0703 30.2969C81.9206 27.7318 81.748 26.1823 81.5527 25.6484L81.4941 25.3066C81.5332 24.7012 81.5527 24.3398 81.5527 24.2227C81.5527 24.125 81.5137 23.8743 81.4355 23.4707C81.4355 23.1257 81.6862 22.8229 82.1875 22.5625H82.8125C83.0859 22.5625 83.2975 22.5983 83.4473 22.6699C84.235 22.5137 84.7298 22.3249 84.9316 22.1035C83.7728 21.5892 82.9525 21.3223 82.4707 21.3027C82.1908 21.1986 81.9824 20.873 81.8457 20.3262C81.748 19.8835 81.5951 19.5189 81.3867 19.2324C81.3867 19.1934 81.403 19.1738 81.4355 19.1738C81.3639 18.9069 81.3086 18.3177 81.2695 17.4062L81.3281 17.2891L81.2695 17.1719C81.4583 16.3125 81.5527 15.8177 81.5527 15.6875C81.5527 15.2904 81.3997 14.7533 81.0938 14.0762C81.0221 13.8353 80.9863 13.6823 80.9863 13.6172C81.1751 12.9531 81.2695 12.4583 81.2695 12.1328C81.2695 10.4857 81.1914 9.22266 81.0352 8.34375L81.0938 7.66016C80.8659 6.5013 80.7324 5.29688 80.6934 4.04688C80.5046 3.24609 80.3906 2.42578 80.3516 1.58594C80.3516 1 80.6185 0.619141 81.1523 0.443359ZM82.4707 2.2793C82.5488 2.38997 82.5879 2.52344 82.5879 2.67969C82.6921 6.15625 82.8255 7.89453 82.9883 7.89453C83.2161 8.67578 83.3301 9.26497 83.3301 9.66211C83.3301 9.85742 83.2357 10.528 83.0469 11.6738V12.6992C83.3138 13.8646 83.4473 14.763 83.4473 15.3945C83.3691 15.7917 83.3105 16.5957 83.2715 17.8066L83.3887 18.207C83.3887 18.2461 83.3691 18.2656 83.3301 18.2656C83.3301 18.3047 83.3496 18.36 83.3887 18.4316C83.3496 18.8939 83.3301 19.2389 83.3301 19.4668C83.3301 20.0007 83.4082 20.2676 83.5645 20.2676C83.8053 20.2676 84.3945 20.4596 85.332 20.8438C85.332 20.7461 85.3158 20.4596 85.2832 19.9844C85.2832 19.6589 85.319 19.3529 85.3906 19.0664C85.3516 18.8711 85.3158 18.7734 85.2832 18.7734L85.332 18.666V18.0898C85.332 17.8424 85.3711 17.5755 85.4492 17.2891L85.3906 17.1719C85.3906 17.0547 85.4883 16.4069 85.6836 15.2285C85.6836 15.0462 85.6641 14.8542 85.625 14.6523C85.625 14.3398 85.7585 13.8223 86.0254 13.0996C86.6374 10.1895 86.9434 8.33724 86.9434 7.54297C87.1191 6.7487 87.2721 5.14388 87.4023 2.72852C87.1159 2.76758 86.9043 2.8457 86.7676 2.96289C86.1165 2.93685 85.791 2.89779 85.791 2.8457C85.4655 2.9043 85.2181 3.07682 85.0488 3.36328H84.6484C84.1406 2.875 83.5482 2.56901 82.8711 2.44531C82.819 2.33464 82.6855 2.2793 82.4707 2.2793ZM83.6719 24.2227C83.6003 24.1836 83.5449 24.1641 83.5059 24.1641C83.4277 24.2031 83.3691 24.2227 83.3301 24.2227V24.4473L83.2715 24.8477H83.3301L83.2715 24.9648V25.8828C83.3887 26.2799 83.5612 27.3477 83.7891 29.0859C83.8672 29.0859 83.9062 29.0501 83.9062 28.9785C83.8672 28.5618 83.8477 28.1973 83.8477 27.8848H83.9062L83.8477 27.7773C83.8867 27.3867 83.9062 27.0807 83.9062 26.8594L83.8477 26.7422C83.8867 26.6771 83.9062 26.599 83.9062 26.5078C83.8672 26.5078 83.8477 26.4915 83.8477 26.459C83.9258 26.459 83.9844 26.2669 84.0234 25.8828H84.1309C84.3587 26 84.4727 26.1139 84.4727 26.2246C84.4727 26.2637 84.4922 26.3223 84.5312 26.4004L84.3652 26.6836C84.5345 26.6836 84.6484 27.123 84.707 28.002C84.7461 28.002 84.7656 28.0215 84.7656 28.0605L84.707 28.4023V28.4609H84.8242C85.2018 26.332 85.3906 25.1471 85.3906 24.9062C85.3516 24.6914 85.332 24.3854 85.332 23.9883L85.2246 23.9297H85.166C84.9186 23.9297 84.4206 24.0273 83.6719 24.2227Z" fill="black"/>
</svg>
