<svg width="148" height="54" viewBox="0 0 148 54" fill="none" xmlns="http://www.w3.org/2000/svg">
<path d="M19.1094 3.21875C19.3073 3.33333 19.4896 3.39062 19.6562 3.39062C19.8646 3.27604 20.0469 3.21875 20.2031 3.21875C20.3594 3.33333 20.5156 3.39062 20.6719 3.39062C20.4844 6.25521 20.2708 8.27604 20.0312 9.45312C20.0312 9.64062 19.9062 9.94271 19.6562 10.3594C19.4375 13.2969 19.2865 14.7656 19.2031 14.7656C18.5573 15.0677 17.8542 15.2188 17.0938 15.2188C16.2708 15.3438 15.75 15.4062 15.5312 15.4062L14.4375 15.2188C14.2396 15.3438 14.0885 15.4062 13.9844 15.4062V16.4219L13.5156 19.5312C13.8802 22.7083 14.2188 24.2969 14.5312 24.2969C14.8958 26.6719 15.0781 28.0156 15.0781 28.3281V28.4219C14.9531 28.8594 14.8906 29.1042 14.8906 29.1562V32.5469C14.8906 32.974 14.8281 33.1875 14.7031 33.1875L14.8906 35.8594L14.7969 36.0312C14.7969 36.0938 14.8281 36.125 14.8906 36.125L14.7031 38.2344C14.7865 38.776 14.849 39.1146 14.8906 39.25L14.7969 39.4219C15.599 40.8594 16 41.776 16 42.1719L15.8125 43.4688C15.875 43.5833 15.9062 43.6719 15.9062 43.7344L15.7188 44.5625C15.8438 45.0104 15.9635 45.7448 16.0781 46.7656C16.026 47.7344 16 48.3125 16 48.5C16.0521 49.5729 16.0781 50.2448 16.0781 50.5156C15.599 51.0677 15.1406 51.3438 14.7031 51.3438C14.2344 50.9792 13.901 50.7969 13.7031 50.7969C12.1094 51.1615 11.3125 51.4948 11.3125 51.7969H11.2188C9.72917 51.4323 8.84375 51.25 8.5625 51.25H7.5625C7.14583 51.25 6.19792 51.4323 4.71875 51.7969V47.3125C4.71875 47.0104 4.625 46.3385 4.4375 45.2969C4.5 44.9635 4.53125 44.7188 4.53125 44.5625C4.53125 44.2396 4.5 43.9635 4.4375 43.7344C4.5 43.1615 4.53125 42.6146 4.53125 42.0938V41.7188C4.40625 40.3438 4.34375 39.6094 4.34375 39.5156V38.7812C4.34375 38.6458 4.46875 38.2812 4.71875 37.6875C4.5 33.8333 4.28646 31.9062 4.07812 31.9062C4.01562 31.8125 3.98438 31.6615 3.98438 31.4531V31C3.98438 30.7396 4.22917 30.3073 4.71875 29.7031V28.8906C4.71875 28.6302 4.75 28.3854 4.8125 28.1562L4.625 26.7812L4.71875 26.5938C4.59375 26.0208 4.53125 25.5312 4.53125 25.125L4.8125 23.9375C4.6875 23.0625 4.625 22.4479 4.625 22.0938C4.6875 21.6562 4.75 21.3854 4.8125 21.2812C4.6875 20.9062 4.5625 19.5 4.4375 17.0625V16.5156L4.07812 14.2188C4.01562 14.2188 3.98438 14.125 3.98438 13.9375C3.43229 13.9792 3.15625 14.0417 3.15625 14.125C2.1875 13.6354 1.33333 13.2708 0.59375 13.0312L0.953125 11.4688C0.953125 11.4062 0.921875 11.3125 0.859375 11.1875L0.953125 10.7344C0.838542 7.95312 0.71875 6.36458 0.59375 5.96875L0.6875 5.78125C0.5625 5.46875 0.5 5.25521 0.5 5.14062C1.11458 4.97396 1.42188 4.79167 1.42188 4.59375H2.0625L4.17188 3.85938L4.34375 3.95312H4.625L4.90625 3.76562C4.91667 3.89062 4.97396 3.95312 5.07812 3.95312L6 3.85938C7.48958 4.22396 8.40625 4.40625 8.75 4.40625H9.9375C10.2083 4.40625 10.4531 4.34375 10.6719 4.21875C10.9844 4.34375 11.1979 4.40625 11.3125 4.40625L12.0469 4.21875C12.3594 4.40625 12.6042 4.5 12.7812 4.5L13.7031 4.40625L14.25 4.5C15.3542 3.90625 16.3958 3.51042 17.375 3.3125L18.0156 3.39062C18.5573 3.27604 18.9219 3.21875 19.1094 3.21875ZM14.8906 6.875C14.2865 6.82292 13.8281 6.79688 13.5156 6.79688H13.3281C13.1927 6.79688 13.0729 6.82292 12.9688 6.875C12.8438 6.78125 12.3542 6.69271 11.5 6.60938C11.0938 6.29688 10.7604 6.14062 10.5 6.14062C10.2708 6.14062 9.86979 6.26562 9.29688 6.51562C9.16146 6.51562 9.04167 6.48438 8.9375 6.42188C8.5 6.42188 7.45833 6.54688 5.8125 6.79688C5.3125 6.79688 4.57812 6.85417 3.60938 6.96875H3.53125L3.0625 6.875L2.79688 9.54688C2.93229 10.9531 3.20312 11.6562 3.60938 11.6562C4.67188 11.4688 5.46875 11.375 6 11.375L6.1875 11.4688L6.375 11.375C6.75 11.4167 7.08333 11.5365 7.375 11.7344L7.28125 12.2031V15.5C7.28125 15.6354 7.25 15.7552 7.1875 15.8594C7.375 16.3698 7.5625 18.1771 7.75 21.2812C7.63542 22.0104 7.54167 22.375 7.46875 22.375L7.5625 23.2969V25.3125C7.5625 25.7812 7.68229 26.3021 7.92188 26.875C7.88021 27.7083 7.72917 28.4688 7.46875 29.1562C7.70833 30.5104 7.82812 31.3073 7.82812 31.5469V32.7344C7.82812 33.0677 7.73958 33.7083 7.5625 34.6562C7.6875 35.2292 7.75 35.6875 7.75 36.0312V36.5C7.26042 38.1458 7.01562 39.0625 7.01562 39.25C7.01562 39.3542 7.26042 40.026 7.75 41.2656C7.75 41.4635 7.65625 42.0104 7.46875 42.9062C7.53125 43.9375 7.625 44.7656 7.75 45.3906L7.65625 46.2969C7.65625 46.5781 7.6875 46.9792 7.75 47.5C7.6875 47.8854 7.65625 48.401 7.65625 49.0469L7.82812 49.1406H8.10938C8.23438 49.1406 8.29688 49.0833 8.29688 48.9688V48.875C8.29688 48.8125 8.26562 48.7812 8.20312 48.7812L8.39062 48.4062L8.29688 47.9531C8.41146 47.1823 8.46875 46.6927 8.46875 46.4844C8.41667 46.1615 8.39062 45.9792 8.39062 45.9375C8.65104 44.3438 8.83333 43.3958 8.9375 43.0938C8.9375 43.0312 8.90625 43 8.84375 43C8.96875 41.9583 9.15104 41.4375 9.39062 41.4375L9.29688 41.2656V41.1719L9.39062 40.9844C9.21354 40.9844 9.125 40.9531 9.125 40.8906C9.17708 40.526 9.26562 40.3438 9.39062 40.3438H9.57812L9.76562 41.625L9.57812 42.3594C9.61979 42.849 9.68229 43.0938 9.76562 43.0938L9.67188 43.2812C9.73438 43.8125 9.76562 44.1146 9.76562 44.1875C9.51562 45.7396 9.39062 46.5677 9.39062 46.6719C9.45312 46.776 9.48438 46.8958 9.48438 47.0312V47.7656L9.29688 48.0469V48.6875C9.31771 48.8125 9.38021 48.875 9.48438 48.875H9.9375C10.4271 48.875 10.6719 48.7188 10.6719 48.4062C10.5573 48.1562 10.5 47.974 10.5 47.8594C10.6146 47.0885 10.6719 46.599 10.6719 46.3906H11.2188V46.5781C11.1042 46.5781 11.0469 46.6094 11.0469 46.6719C11.224 46.9427 11.3438 47.3073 11.4062 47.7656L11.3125 48.3125V48.4062C11.3229 48.4896 11.4792 48.6146 11.7812 48.7812H12.5156C12.651 48.7812 12.7396 48.5052 12.7812 47.9531C12.7188 47.3281 12.6875 46.8385 12.6875 46.4844H12.7812L12.6875 46.2969V45.8438C12.6875 45.5104 12.6562 45.0833 12.5938 44.5625C12.5938 44.5 12.625 44.4688 12.6875 44.4688C12.6875 43.7604 12.4427 42.1094 11.9531 39.5156C11.9531 38.1615 11.7708 36.7552 11.4062 35.2969L11.5 35.125C11.375 34.8958 11.3125 34.6198 11.3125 34.2969L11.4062 33.9219C11.4062 33.8594 11.375 33.8281 11.3125 33.8281L11.5 32.1875C11.4375 32.0625 11.4062 31.9688 11.4062 31.9062C11.4062 31.7708 11.4375 31.651 11.5 31.5469C11.4375 31.1302 11.4062 30.7917 11.4062 30.5312C11.4062 29.9792 11.5625 28.9115 11.875 27.3281V26.875C11.875 26.3229 11.6875 24.6719 11.3125 21.9219C11.3125 21.6823 11.2552 20.8542 11.1406 19.4375C11.1406 19.0938 11.1979 18.0885 11.3125 16.4219C11.25 15.5885 11.2188 15.0677 11.2188 14.8594C11.2604 13.6927 11.4479 13.1094 11.7812 13.1094C12 13.2344 12.2708 13.2969 12.5938 13.2969C12.9479 13.1198 13.3802 12.9375 13.8906 12.75C14.6094 12.875 15.0677 12.9375 15.2656 12.9375L17.1875 12.2969L17.375 10.2812L17.2812 9.17188C17.3438 8.33854 17.375 7.81771 17.375 7.60938C17.25 6.51562 17.1562 5.96875 17.0938 5.96875C16.9792 5.90625 16.8854 5.875 16.8125 5.875C15.5417 6.40625 14.901 6.73958 14.8906 6.875ZM9.125 28.8906H9.20312C9.32812 28.901 9.39062 28.9583 9.39062 29.0625L9.29688 29.625L9.39062 30.2656C9.32812 31.1198 9.26562 31.5781 9.20312 31.6406C9.26562 31.7656 9.32812 32.0365 9.39062 32.4531C9.32812 33.1302 9.23958 33.4688 9.125 33.4688H9.03125V33.375C9.03125 32.9792 9.08854 32.5521 9.20312 32.0938C9.08854 32.0312 9 32 8.9375 32C8.9375 31.9375 8.96875 31.8438 9.03125 31.7188C9.03125 31.6146 8.96875 31.4323 8.84375 31.1719C8.96875 31.1719 9.03125 31.0833 9.03125 30.9062L8.9375 30.3438C8.96875 30 9.05729 29.7292 9.20312 29.5312V29.3438L9.125 28.8906ZM9.39062 38.4219C9.39062 38.4844 9.42188 38.5156 9.48438 38.5156L9.39062 38.6875V39.1562L9.48438 39.7969L9.29688 39.8906H9.125V39.3281C9.125 39.276 9.15104 39.25 9.20312 39.25C9.20312 39.1875 9.17708 39.1562 9.125 39.1562C9.17708 38.6667 9.26562 38.4219 9.39062 38.4219ZM28.7031 5.625H29.0781C30.099 6.19792 30.6458 6.53125 30.7188 6.625C30.4167 7.55208 30.2344 8.45312 30.1719 9.32812V9.71875C30.1719 10.0417 30.1406 10.4583 30.0781 10.9688C30.1406 11.4896 30.1719 11.9115 30.1719 12.2344C30.1719 12.3906 30.1406 12.6302 30.0781 12.9531C30.1406 13.2865 30.1719 13.5573 30.1719 13.7656C30.1094 14.5156 30.0781 14.9375 30.0781 15.0312L30.4375 16.3906C30.4375 17.3281 30.1979 17.9323 29.7188 18.2031V18.375C30.1146 18.375 30.6302 19.0104 31.2656 20.2812L31.1719 20.4531L31.3594 21L31.2656 21.625C31.3281 22.8229 31.3594 23.4844 31.3594 23.6094C31.1823 23.9844 31.0938 24.2552 31.0938 24.4219C31.1458 25.8594 31.1719 27.0052 31.1719 27.8594C31.1719 28.2135 31.1458 28.75 31.0938 29.4688C31.5833 31.2396 31.9167 32.2344 32.0938 32.4531V33.1719C31.7917 33.6823 31.6406 34.3438 31.6406 35.1562C31.6406 37.4896 31.8229 39.3854 32.1875 40.8438L32.0938 41.0156L33.0156 46.1719C32.9531 46.276 32.9219 46.3958 32.9219 46.5312C33.2865 46.6042 33.4688 47.1771 33.4688 48.25C33.5312 48.25 33.5938 48.7917 33.6562 49.875C33.4792 49.875 32.651 50.1406 31.1719 50.6719C29.5469 51.099 28.4479 51.4635 27.875 51.7656L26.5 51.4844C25.5625 51.7969 25.0729 51.9531 25.0312 51.9531C24.4167 51.6302 23.8073 51.2344 23.2031 50.7656H23.1094C21.9948 51.1927 21.3542 51.4062 21.1875 51.4062C21.3646 49.8958 21.4531 49.0208 21.4531 48.7812C21.349 48.5312 21.2604 47.6302 21.1875 46.0781C21.1875 46.0156 21.2188 45.9844 21.2812 45.9844L21.1875 45.4531C21.1875 45.2969 21.2188 45.0521 21.2812 44.7188C21.1562 44.3021 21.0625 43.2865 21 41.6719C21.0625 41.3281 21.0938 41.0833 21.0938 40.9375L21 40.7656C21 40.6615 21.2135 40.1458 21.6406 39.2188C21.5156 37.375 21.3958 36.2031 21.2812 35.7031V35.1562C21.6458 34.3438 21.8281 33.7448 21.8281 33.3594L21.9219 32.9062L21.7344 31.2812C21.7969 31.0521 21.8281 30.8125 21.8281 30.5625C21.276 27.6458 21 26.0208 21 25.6875C21.0417 24.8958 21.1042 24.5 21.1875 24.5L21.0938 23.6094V20.1875C21.0938 19.7604 21.4271 19.2448 22.0938 18.6406V18.5625C22.0938 18.3438 21.974 18.0677 21.7344 17.7344C21.7344 17.401 21.8542 16.3542 22.0938 14.5938V13.7656C22.0938 13.4844 22.0677 13.1823 22.0156 12.8594L22.0938 12.5156C22.1562 11.2656 22.0365 9.90104 21.7344 8.42188C21.7344 8.00521 22.1042 7.79688 22.8438 7.79688C24.1875 7.79688 24.8594 7.55729 24.8594 7.07812C26.4323 6.17188 27.625 5.71875 28.4375 5.71875C28.4375 5.65625 28.526 5.625 28.7031 5.625ZM24.9375 10.5938C24.9375 10.8958 25 11.0469 25.125 11.0469L25.0312 11.2188C24.9688 12.6042 25.0312 14.2969 25.2188 16.2969C25.0938 16.8385 25.0312 17.2344 25.0312 17.4844L25.125 17.6406C25.6146 17.4115 26.1667 17.2031 26.7812 17.0156H27.3281V15.6719C27.3281 15.6094 27.2969 15.5781 27.2344 15.5781C27.2969 15.4635 27.3281 15.375 27.3281 15.3125C27.3281 14.8542 27.2969 13.7917 27.2344 12.125C27.3594 11.2396 27.4219 10.6406 27.4219 10.3281H27.3281L27.4219 10.1406V9.14062H27.3281C25.7344 9.45312 24.9375 9.9375 24.9375 10.5938ZM24.0312 20.8125C24.2083 21.625 24.2969 22.1406 24.2969 22.3594C24.2969 22.5365 24.1771 23.25 23.9375 24.5C24.3021 26.3438 24.5781 28.1823 24.7656 30.0156C24.7656 30.2135 24.7344 30.3646 24.6719 30.4688C24.7344 30.9792 24.7656 31.401 24.7656 31.7344V33.9062C24.7656 34.1146 24.7917 34.3854 24.8438 34.7188C24.7917 34.7708 24.7344 35.1615 24.6719 35.8906C24.7344 36.2031 24.7656 36.3802 24.7656 36.4219C24.3906 38.224 24.2031 40.5104 24.2031 43.2812C23.9635 45.0417 23.8438 46.0677 23.8438 46.3594V48.6875C23.8646 48.8125 23.9271 48.875 24.0312 48.875H24.6719C24.849 48.8125 24.9375 48.6354 24.9375 48.3438V47.4375L25.2188 46.4531H25.5C25.5 46.6927 25.526 46.9323 25.5781 47.1719C25.5781 47.2344 25.5521 47.3229 25.5 47.4375C25.5521 47.7604 25.5781 48.0312 25.5781 48.25C25.5781 48.3125 25.5521 48.3438 25.5 48.3438C25.5521 48.6354 25.6719 48.7812 25.8594 48.7812L27.2344 48.3438C27.2969 47.1354 27.3594 46.3177 27.4219 45.8906C27.3594 45.7865 27.3281 45.6719 27.3281 45.5469C27.3281 45.4323 27.3906 45.2188 27.5156 44.9062L27.3281 42.8281H27.4219C27.4219 42.776 27.3906 42.75 27.3281 42.75C27.3906 41.9375 27.4219 41.3333 27.4219 40.9375V40.3906L27.3281 40.2188C27.4531 40.2188 27.5156 40.125 27.5156 39.9375H27.6875L27.9688 42.2031V43.0938C27.9688 43.2396 28 43.3646 28.0625 43.4688L27.9688 43.6562C28.125 45.2083 28.25 45.9844 28.3438 45.9844L28.25 46.1719C28.25 46.474 28.3073 46.625 28.4219 46.625C28.4219 46.6875 28.3958 46.776 28.3438 46.8906C28.3958 47.5052 28.4219 47.9896 28.4219 48.3438V48.5312H28.6094C28.8906 48.5312 29.2604 48.375 29.7188 48.0625C29.7188 48.0104 29.4427 46.9583 28.8906 44.9062C28.8906 44.7083 28.9479 44.1979 29.0625 43.375L28.9844 43.1875L29.0625 42.75C28.7604 40.8542 28.5469 39.0781 28.4219 37.4219C28.1823 37.4219 27.9688 36.3333 27.7812 34.1562C27.9062 32.9167 27.9688 32.0781 27.9688 31.6406V31.3594C27.9688 30.5781 27.9062 30.0417 27.7812 29.75L27.875 29.2188V28.75C27.875 28.4583 27.8438 28.1615 27.7812 27.8594C27.9271 26.0885 28.0521 25.0312 28.1562 24.6875C28.2812 24.1562 28.3438 23.7969 28.3438 23.6094C28.1562 22.5885 28.0625 21.9583 28.0625 21.7188C28.0625 21.625 28.0938 21.2031 28.1562 20.4531C27.9896 20.0677 27.8333 19.8542 27.6875 19.8125H27.6094C27.5469 19.8125 27.5156 19.8438 27.5156 19.9062L27.3281 19.8125C25.1302 20.3542 24.0312 20.6875 24.0312 20.8125ZM25.7656 31.1094L25.8594 31.2812C25.8594 31.3333 25.8281 31.3594 25.7656 31.3594C25.8073 31.849 25.8698 32.0938 25.9531 32.0938C25.9531 32.1458 25.9219 32.1719 25.8594 32.1719C25.901 32.599 25.9635 32.8125 26.0469 32.8125C25.9219 33.0312 25.8594 33.2708 25.8594 33.5312V33.9062L26.1406 35.3438L26.0469 35.5156C26.0469 35.5573 26.1979 35.9531 26.5 36.7031C26.5 37.349 26.5625 38.1875 26.6875 39.2188C26.5625 40.2083 26.4115 41.0781 26.2344 41.8281H26.0469C25.9115 41.8281 25.7552 41.5 25.5781 40.8438C25.6406 39.6458 25.7969 38.2344 26.0469 36.6094V36.3281C26.0469 36.1615 25.9844 35.9844 25.8594 35.7969C25.8594 35.7344 25.8906 35.7031 25.9531 35.7031L25.5781 33.4375L25.6719 33L25.5 32.9062C25.6146 32.1458 25.6719 31.6042 25.6719 31.2812C25.6094 31.2812 25.5781 31.25 25.5781 31.1875L25.7656 31.1094ZM51.7812 2.48438C53.3646 2.48438 54.9583 3.40104 56.5625 5.23438C56.8021 5.24479 57.1771 5.60938 57.6875 6.32812C57.6146 7.25521 57.5573 7.77604 57.5156 7.89062C57.5677 8.22396 57.5938 8.5 57.5938 8.71875V10.5469C57.4896 10.9844 57.4375 11.2292 57.4375 11.2812V14.6719C57.4375 15.2865 57.4635 16.0208 57.5156 16.875C57.349 17.6875 57.2656 18.3594 57.2656 18.8906L57.8594 21.9219C57.8594 22.151 57.6615 22.4271 57.2656 22.75H57.0781C57.026 22.75 57 22.7188 57 22.6562C56.8854 22.7188 56.7969 22.75 56.7344 22.75L56.5625 22.6562C56.0938 22.8438 55.6615 22.9375 55.2656 22.9375C54.7344 22.9375 53.9792 22.9062 53 22.8438C52.5417 23.0208 51.875 23.2031 51 23.3906H50.6562C49.3229 23.2135 48.6562 22.5104 48.6562 21.2812C48.5417 20.1146 48.4219 19.5312 48.2969 19.5312C48.1927 19.5938 48.1094 19.625 48.0469 19.625C48.1615 19.8958 48.276 20.8438 48.3906 22.4688V24.7656C48.224 27.2344 48.1406 28.5469 48.1406 28.7031C48.1406 28.7656 48.1667 28.7969 48.2188 28.7969L48.1406 29.2656C48.2448 31.0573 48.3281 32.0938 48.3906 32.375L48.2969 32.9219V33.8438L48.3906 34.3906C48.224 34.9635 48.1406 35.6042 48.1406 36.3125V36.5938C48.1406 36.8958 48.1667 37.3542 48.2188 37.9688H48.2969C48.8281 37.8646 49.0938 37.7135 49.0938 37.5156C49.1458 35.5052 49.1719 33.9427 49.1719 32.8281C49.1198 32.7135 49.0938 32.625 49.0938 32.5625C49.1458 32.5625 49.3177 32.4375 49.6094 32.1875H50.2188C50.8542 32.5625 51.724 32.75 52.8281 32.75C53.2135 32.75 54.2292 32.5052 55.875 32.0156C56.1771 31.9531 56.349 31.9219 56.3906 31.9219C57.6094 31.9219 58.3333 32.5312 58.5625 33.75C58.5625 33.9062 58.5312 34.151 58.4688 34.4844C58.5312 34.9531 58.5625 35.474 58.5625 36.0469V36.1406C58.5625 36.2031 58.5312 36.2344 58.4688 36.2344C58.4688 36.2865 58.5 36.3125 58.5625 36.3125C58.4271 38.0938 58.224 38.9844 57.9531 38.9844C57.8385 39.5677 57.7812 40.4219 57.7812 41.5469H57.6875C57.6875 42.276 57.9479 42.9479 58.4688 43.5625C58.4688 46.9062 57.8646 48.9531 56.6562 49.7031C56.6562 50.5573 55.7865 50.9844 54.0469 50.9844C52.8281 50.9844 50.8021 51.3542 47.9688 52.0938C47.7396 52.0938 46.9531 51.9115 45.6094 51.5469C45.3073 51.6615 44.5573 51.7812 43.3594 51.9062C41.901 52.2708 41.0625 52.4531 40.8438 52.4531C39.6458 52.3698 38.1615 51.7604 36.3906 50.625C36.0573 50.2292 35.8594 49.7083 35.7969 49.0625C35.849 48.7292 35.875 48.4844 35.875 48.3281C35.875 47.901 35.6146 47.3229 35.0938 46.5938C35.0312 46.4792 35 46.3542 35 46.2188C35 45.5104 35.0312 44.3802 35.0938 42.8281L34.3906 39.7188V39.625C34.7552 38.4792 34.9375 37.224 34.9375 35.8594C34.8125 34.8906 34.75 34.0677 34.75 33.3906H34.8438C34.4375 31.7135 34.2344 30.5521 34.2344 29.9062L34.1406 29.3438H34.2344C34.0573 28.75 33.9688 28.3542 33.9688 28.1562V27.1562C34.1979 26.0938 34.3125 25.2656 34.3125 24.6719C34.1458 23.5677 34.0625 22.8021 34.0625 22.375L34.4844 20.0938C34.3698 18.2188 34.3125 17.026 34.3125 16.5156V15.7812L34.3906 14.6719H34.3125C34.3646 14.5781 34.4219 14.0885 34.4844 13.2031C34.4844 13.151 34.4531 13.125 34.3906 13.125C34.5156 12.5 34.5781 11.8281 34.5781 11.1094L34.3125 7.0625C34.5208 5.71875 34.8125 5.04688 35.1875 5.04688C35.5417 5.04688 35.9167 4.80208 36.3125 4.3125C37.1042 3.58333 37.8594 3.21875 38.5781 3.21875C40.4531 3.64583 41.4635 3.85938 41.6094 3.85938L44.5625 3.48438C45.375 3.18229 46.1562 3.03125 46.9062 3.03125C48.0833 3.09375 48.901 3.125 49.3594 3.125C49.5365 3.125 50.3438 2.91146 51.7812 2.48438ZM37 7.98438L37.0938 9.26562L37 9.45312C37 9.51562 37.0312 9.54688 37.0938 9.54688L37 10V10.0938C37 10.1562 37.0312 10.1875 37.0938 10.1875C37.0938 10.25 37.0625 10.2812 37 10.2812L37.1875 12.2031H37.0938L37.1875 12.3906V14.5938C37.3646 16.5938 37.4531 17.9688 37.4531 18.7188C37.4531 19.3958 37.3906 20.2188 37.2656 21.1875C37.2656 21.25 37.2969 21.3438 37.3594 21.4688C37.2969 22.0938 37.2656 22.5833 37.2656 22.9375V23.0156C37.4948 25.2656 37.7865 27.651 38.1406 30.1719V30.2656C38.1406 31.0885 38.0833 32.25 37.9688 33.75C38.1458 34.3958 38.2344 34.8854 38.2344 35.2188V35.4062C38.2344 35.6458 38.1771 36.0417 38.0625 36.5938C38.2292 37.75 38.3698 39.1875 38.4844 40.9062C38.4219 41.7917 38.3906 42.2812 38.3906 42.375C38.4531 43.5208 38.5156 44.224 38.5781 44.4844C38.5781 44.5469 38.5469 44.5781 38.4844 44.5781C38.4844 46.0469 38.6875 46.7812 39.0938 46.7812C39.1979 46.8333 39.3177 46.8594 39.4531 46.8594C39.6198 45.5781 39.8177 44.9375 40.0469 44.9375L39.9688 44.75C39.9688 44.5 40.026 43.9844 40.1406 43.2031L40.0469 43.0156C40.224 42.401 40.3125 42.0312 40.3125 41.9062H40.5781L40.6562 42.5625L40.5781 43.0156C40.8073 43.0156 40.9219 43.474 40.9219 44.3906V44.75C40.8073 45.6458 40.75 46.1354 40.75 46.2188V47.1406C40.75 47.6615 41.1823 48.2135 42.0469 48.7969C42.0469 48.849 42.0781 48.875 42.1406 48.875H42.3125C42.4271 48.5104 42.5417 47.9323 42.6562 47.1406L42.5781 46.9531C42.7969 45.6615 42.9062 44.6823 42.9062 44.0156C42.8646 42.6823 42.8438 41.7969 42.8438 41.3594L42.9062 41.1875L42.8438 41L42.9062 40.8125C42.8646 40.4792 42.8438 40.2031 42.8438 39.9844V39.7969H43C43 39.599 42.9688 39.4479 42.9062 39.3438C42.9583 38.9792 43.0208 38.7969 43.0938 38.7969L42.8438 38.3438L43.1719 37.2344C43.1198 36.8073 43.0625 36.5938 43 36.5938L43.1719 36.1406C43.1198 35.724 43.0938 35.3854 43.0938 35.125V35.0312C43.1354 34.6667 43.224 34.4844 43.3594 34.4844C43.474 34.5052 43.5312 34.5677 43.5312 34.6719V34.7656C43.5312 34.901 43.5 35.0208 43.4375 35.125C43.5 35.2292 43.5312 35.3542 43.5312 35.5L43.3594 35.7656C43.526 35.7656 43.6094 35.8906 43.6094 36.1406C43.6094 36.2031 43.5833 36.2917 43.5312 36.4062C43.5312 36.4792 43.5573 36.5729 43.6094 36.6875C43.5573 37.2083 43.5312 37.6354 43.5312 37.9688V38.4219L43.4375 38.6094C43.5521 38.6302 43.6094 38.6927 43.6094 38.7969V39.7188L43.7031 40.1719H43.6094C43.6719 40.2865 43.7031 40.3802 43.7031 40.4531C43.7031 41.3281 43.7604 41.9688 43.875 42.375C43.875 42.4375 43.8438 42.4688 43.7812 42.4688L44.0469 44.2969C43.9948 44.401 43.9688 44.526 43.9688 44.6719L44.0469 44.8438C43.974 45.6667 43.8854 46.25 43.7812 46.5938C43.7812 46.6562 43.8125 46.7448 43.875 46.8594C43.8125 47.7865 43.6979 48.4896 43.5312 48.9688H43.6094C43.8802 48.9688 44.1719 49 44.4844 49.0625C45.0052 49.0312 45.2656 48.9688 45.2656 48.875C45.2656 48.8125 45.2969 48.724 45.3594 48.6094L45.2656 48.2344L45.3594 47.5938C45.2344 47.3958 45.1719 47.2448 45.1719 47.1406C45.1719 46.9844 45.2344 46.6458 45.3594 46.125C45.2969 46.0312 45.2656 45.8802 45.2656 45.6719C45.3802 45.6719 45.4375 45.6094 45.4375 45.4844C45.4375 45.349 45.4115 45.2292 45.3594 45.125C45.4427 44.875 45.526 44.75 45.6094 44.75L45.5312 44.5781C45.5312 44.4844 45.6458 44.3906 45.875 44.2969C45.9896 44.4427 46.0469 44.5677 46.0469 44.6719L45.9688 44.8438C45.9688 45.0312 46.0573 45.125 46.2344 45.125V45.3906C46.2344 45.5365 46.2031 45.6615 46.1406 45.7656C46.2448 46.0156 46.2969 46.1979 46.2969 46.3125H46.2344C46.401 47.2292 46.5104 47.6875 46.5625 47.6875C46.5625 48.4271 46.7396 48.7969 47.0938 48.7969C47.6771 48.7552 47.9688 48.6927 47.9688 48.6094C48.0208 48.6094 48.0469 48.6406 48.0469 48.7031L48.5625 48.6094V48.2344C48.5625 47.9844 48.651 47.7396 48.8281 47.5L48.75 47.3281V46.9531C48.8333 46.7135 49.0365 46.5938 49.3594 46.5938H49.5312C49.6979 47.0625 49.7812 47.3958 49.7812 47.5938C49.7812 47.7396 49.75 47.8646 49.6875 47.9688C49.7917 48.4583 49.9115 48.7031 50.0469 48.7031H50.4844C50.6927 48.5885 50.9219 48.4062 51.1719 48.1562C51.5156 48.1562 51.6875 48.3698 51.6875 48.7969H52.1406V48.3281C52.1406 48.1302 52.224 47.7344 52.3906 47.1406L52.2031 45.9531C52.2656 45.7656 52.3281 45.6719 52.3906 45.6719L52.2969 45.2188C52.5156 44.625 52.75 44.1667 53 43.8438L52.9062 43.375C52.9688 43.375 53 43.3438 53 43.2812C52.8854 43.2812 52.8281 43.224 52.8281 43.1094V43.0156C52.8906 43.0156 52.974 42.9844 53.0781 42.9219L53 42.7344C53.1146 42.5365 53.1719 42.3542 53.1719 42.1875L53.0781 41.7344L53.2656 41.3594L53.1719 41.1875L53.2656 40.8125C53.2656 40.75 53.2344 40.7188 53.1719 40.7188L53.2656 40.3594L53.1719 39.5312C53.401 39.2292 53.5729 38.6771 53.6875 37.875L54.0469 37.6094H54.2031V38.1562C54.2031 38.4583 54.1198 38.6094 53.9531 38.6094V38.8906L54.0469 39.0781C53.9323 39.0885 53.875 39.1458 53.875 39.25L54.0469 39.625C53.8698 39.9583 53.7812 40.2344 53.7812 40.4531C53.8438 40.8802 53.875 41.125 53.875 41.1875C53.75 41.3854 53.6875 41.5677 53.6875 41.7344C53.6875 41.7969 53.7188 41.8854 53.7812 42C53.7188 42.125 53.6875 42.2188 53.6875 42.2812L53.7812 42.7344L53.6094 43.1094L53.6875 43.75C53.5 44.25 53.3594 44.5573 53.2656 44.6719C53.3802 44.8698 53.4375 45.0521 53.4375 45.2188V45.7656C53.4375 46.1927 53.4948 46.7708 53.6094 47.5C53.6094 47.5312 53.5781 47.6562 53.5156 47.875C53.5573 48.2396 53.7656 48.4219 54.1406 48.4219L54.2969 48.6094C55.1615 48.1719 55.5938 46.8281 55.5938 44.5781C55.6562 44.5781 55.6875 44.3021 55.6875 43.75C55.2812 42.3646 55.0781 41.4479 55.0781 41L55.3438 37.875C55.2917 36.5625 55.2656 35.6146 55.2656 35.0312H55C54.1979 35.0312 53.3281 35.1875 52.3906 35.5C52.3906 36.1771 52.4479 37.276 52.5625 38.7969C52.2812 39.651 51.849 40.0781 51.2656 40.0781C50.401 40.5677 49.5885 40.8125 48.8281 40.8125H48.4844C48.0156 40.8125 47.1458 40.5052 45.875 39.8906C45.6979 39.4948 45.6094 39.224 45.6094 39.0781C45.6094 38.776 45.6406 38.4062 45.7031 37.9688C45.474 36.2812 45.3594 35.026 45.3594 34.2031V34.0312C45.3594 33.8958 45.3854 33.7708 45.4375 33.6562C45.3854 33.5521 45.3594 33.4323 45.3594 33.2969V32.8281C45.3594 32.0365 45.4167 31.4896 45.5312 31.1875L45.4375 31C45.6667 30.0729 45.7812 29.276 45.7812 28.6094C45.7812 27.5052 45.6667 26.0729 45.4375 24.3125C45.4375 24.2396 45.4688 24.1458 45.5312 24.0312C45.4688 23.6979 45.4375 23.4219 45.4375 23.2031C45.4375 23.0156 45.4688 22.8021 45.5312 22.5625C45.4167 21.9792 45.3594 21.3698 45.3594 20.7344C45.4219 18.5885 45.6823 17.5156 46.1406 17.5156C46.8177 16.7865 47.9167 16.2396 49.4375 15.875H49.6094C50.8906 16.1771 51.5312 17.0938 51.5312 18.625C51.4167 19.7083 51.3594 20.3802 51.3594 20.6406V20.9062H51.4375C52.0729 20.9062 53.1771 20.5417 54.75 19.8125C54.625 18.8021 54.5625 18.1302 54.5625 17.7969C54.5625 17.4635 54.625 16.9427 54.75 16.2344C54.75 16.0781 54.7188 15.2552 54.6562 13.7656C54.7188 11.474 54.75 10.0677 54.75 9.54688H54.8281L54.75 9.35938V7.15625C54.7396 7.07292 54.0417 6.70833 52.6562 6.0625C52.1667 6.0625 49.849 6.21354 45.7031 6.51562H44.3906C44.151 6.51562 43.8333 6.54688 43.4375 6.60938C43.3646 6.53646 42.9635 6.47396 42.2344 6.42188C40.9219 6.48438 40.1042 6.51562 39.7812 6.51562C39.4375 6.51562 39.0938 6.33333 38.75 5.96875C37.5833 6.84375 37 7.51562 37 7.98438ZM43.3594 18.8125H43.5312L43.9688 23.6719C43.9062 23.7865 43.875 23.875 43.875 23.9375C43.875 24.0729 43.9062 24.4115 43.9688 24.9531L43.875 25.5938C43.9375 25.9688 43.9688 26.3958 43.9688 26.875V27.2344H43.7812C43.8438 28.151 43.875 28.8281 43.875 29.2656V29.3438C43.875 29.875 43.7031 30.6094 43.3594 31.5469C43.3594 31.7344 43.2969 31.8281 43.1719 31.8281C43.099 31.526 42.9896 31.375 42.8438 31.375L42.9062 30.9062L42.75 30.8125L43 28.3438C42.9375 28.2396 42.9062 28.1146 42.9062 27.9688C42.9479 27.4271 43.0104 27.1562 43.0938 27.1562L43 26.9688C43.1146 26.5729 43.1719 26.2969 43.1719 26.1406V25.2188C43.1719 25.1562 43.2031 25.125 43.2656 25.125L43.1719 24.9531C43.1719 24.6094 43.2344 23.9948 43.3594 23.1094C43.2865 23.0156 43.224 22.7135 43.1719 22.2031C43.1719 22.1406 43.2031 22.1094 43.2656 22.1094L43.1719 21.6406V21.2812C43.2969 20.3854 43.3594 19.8958 43.3594 19.8125V18.8125ZM39.875 22.6562H40.0469C40.0469 22.9479 40.1094 23.1615 40.2344 23.2969V23.4844C40.2344 23.5469 40.2031 23.5781 40.1406 23.5781C40.2448 23.8594 40.3594 24.8333 40.4844 26.5C40.599 26.5 40.6562 26.8385 40.6562 27.5156C40.6562 27.9844 40.5417 28.5677 40.3125 29.2656L40.3906 29.7188V30.4531L40.5781 30.7188L40.3906 31.375L40.4844 31.7344C40.4844 31.7969 40.4531 31.8281 40.3906 31.8281L40.4844 32.2812V32.6562C40.4844 32.7917 40.4531 32.9115 40.3906 33.0156C40.5156 33.2135 40.5781 33.3698 40.5781 33.4844C40.5781 33.5469 40.5469 33.6354 40.4844 33.75C40.5469 34.4896 40.6042 34.8594 40.6562 34.8594C40.6562 34.9115 40.6302 34.9375 40.5781 34.9375L40.6562 35.4062C40.6562 35.4688 40.6302 35.5573 40.5781 35.6719C40.6927 36.3802 40.75 36.8125 40.75 36.9688L40.6562 37.4219L40.75 37.6094C40.6875 38.0365 40.599 38.25 40.4844 38.25C39.9635 37.4792 39.7031 36.9271 39.7031 36.5938C39.6406 36.0521 39.6094 35.7188 39.6094 35.5938H39.7031L39.6094 35.4062C39.6094 35.0938 39.6406 34.6354 39.7031 34.0312L39.6094 33.2031C39.6094 33.0885 39.6667 32.875 39.7812 32.5625L39.7031 32.1875C39.7552 31.8646 39.7812 31.5938 39.7812 31.375C39.7812 31.3125 39.7552 31.2812 39.7031 31.2812C39.776 30.4375 39.8333 29.9167 39.875 29.7188C39.8125 29.6042 39.7812 29.5104 39.7812 29.4375C39.9062 29.4375 39.9688 29.3802 39.9688 29.2656L39.7812 28.9844C39.9062 28.0052 39.9948 27.5156 40.0469 27.5156C40.1719 27.5156 40.2344 27.4531 40.2344 27.3281L39.7812 26.4219C39.9583 26.4219 40.0469 26.2969 40.0469 26.0469C40.0469 25.3177 39.9896 24.9531 39.875 24.9531C39.9375 24.7656 39.9948 24.6719 40.0469 24.6719L39.9688 24.4844V24.4062L40.0469 24.2188C39.9323 24.2188 39.875 24.125 39.875 23.9375C39.875 23.875 39.9062 23.8438 39.9688 23.8438L39.875 23.3906V22.6562ZM71.0781 0.640625V0.734375C71.0156 1.25521 70.9844 1.68229 70.9844 2.01562V3.125C70.9844 3.34375 70.9531 3.61979 70.8906 3.95312L71.0781 4.3125C70.9531 4.78125 70.8281 6.73958 70.7031 10.1875C70.7031 11.1146 70.7969 11.9375 70.9844 12.6562H71.0781C71.5573 12.1667 72.0156 10.9479 72.4531 9C72.4531 7.65625 72.7552 6.30729 73.3594 4.95312C73.7656 2.75521 74.2865 1.65625 74.9219 1.65625H75.0156C75.0156 1.86458 75.2292 1.98438 75.6562 2.01562C75.6562 2.11979 76.1771 2.30729 77.2188 2.57812L77.4062 2.75C77.6771 2.63542 77.9792 2.57812 78.3125 2.57812L78.7812 2.67188V2.57812C79.5521 2.93229 80.4375 3.57292 81.4375 4.5L81.9844 5.51562C81.0677 8.40104 80.4583 10.1094 80.1562 10.6406C79.2396 11.6406 78.7812 12.4948 78.7812 13.2031C78.0312 14.2448 77.5104 15.5 77.2188 16.9688L76.2969 19.4531C76.3594 19.5573 76.3906 19.6771 76.3906 19.8125C75.2865 21.3021 74.6458 22.6146 74.4688 23.75H74.5625L74.4688 23.9375C74.4688 24.0521 74.8021 24.6354 75.4688 25.6875C75.4688 25.9479 75.8073 26.526 76.4844 27.4219C76.724 28.9115 77.0885 29.9844 77.5781 30.6406C77.5781 30.8906 77.9479 32.0208 78.6875 34.0312V34.125L78.5938 34.2969C78.8542 34.2969 79.1875 34.9115 79.5938 36.1406C79.7917 36.4323 80.0052 36.6146 80.2344 36.6875C81.151 37.9688 81.8854 39.4062 82.4375 41C82.75 41.6875 82.9062 42.1458 82.9062 42.375C82.9062 43.0521 83.151 43.7865 83.6406 44.5781C83.7552 44.9635 83.8125 45.2083 83.8125 45.3125C83.8125 45.8542 83.0521 46.7708 81.5312 48.0625C80.8438 49.1979 79.9531 49.8698 78.8594 50.0781C77.9115 50.4323 76.8125 51.0417 75.5625 51.9062C75.3333 51.9062 75.026 51.9688 74.6406 52.0938C74.5365 52.0938 74.2031 51.849 73.6406 51.3594C73.1719 51.1094 72.6823 50.9583 72.1719 50.9062C71.9115 50.6667 71.7292 50.2656 71.625 49.7031C71.4062 49.7031 71.224 48.9427 71.0781 47.4219C70.4635 45.9531 70.1562 45.0052 70.1562 44.5781H70.0625V44.8438C70.25 45.8958 70.3438 46.6302 70.3438 47.0469C69.9167 47.8073 69.7031 48.2656 69.7031 48.4219C69.9427 49.401 70.0625 50.0156 70.0625 50.2656C70 50.3802 69.9688 50.4688 69.9688 50.5312C70.2188 51.3958 70.3438 52.0677 70.3438 52.5469C69.5625 52.5469 68.9167 52.3021 68.4062 51.8125C68.125 51.6979 67.8542 51.6406 67.5938 51.6406V51.7188C64.8854 50.9896 62.9896 50.3802 61.9062 49.8906C60.8021 49.7031 60.25 49.151 60.25 48.2344C60.25 47.8073 60.1875 47.2917 60.0625 46.6875L60.1562 45.2188L59.8906 42.1875C59.8906 42.125 59.9167 42.0312 59.9688 41.9062C59.9167 39.7604 59.8281 38.2656 59.7031 37.4219L59.7969 37.2344C59.7969 37.1719 59.7656 37.1406 59.7031 37.1406C59.8802 36.1302 59.9688 35.5208 59.9688 35.3125V35.125C59.9688 34.9896 59.9427 34.8698 59.8906 34.7656C60.0573 33.7135 60.1771 32.2135 60.25 30.2656C60.3125 30.2656 60.3438 30.2031 60.3438 30.0781L59.7031 28.3438C59.6406 28.3438 59.6094 28.2812 59.6094 28.1562C60.1615 26.5 60.4375 25.4323 60.4375 24.9531C60.1875 24.2969 60.0625 23.776 60.0625 23.3906V22.6562C60.0625 22.1667 60.0312 21.5833 59.9688 20.9062C60.0312 20.7917 60.0625 20.7031 60.0625 20.6406L59.7969 17.8906C59.9115 16.776 59.9688 16.1615 59.9688 16.0469C59.6667 15.3281 59.5156 13.8021 59.5156 11.4688C59.0885 9.33333 58.875 8.04688 58.875 7.60938V7.15625C58.875 5.76042 59.151 4.8125 59.7031 4.3125H59.8906L60.25 4.5C60.375 4.25 60.5573 4.125 60.7969 4.125C60.8906 4.375 60.9844 4.5 61.0781 4.5C61.1719 4.5 61.2917 4.22396 61.4375 3.67188C61.625 3.67188 61.7188 3.76562 61.7188 3.95312C62.4062 3.54688 63.599 3.02604 65.2969 2.39062C65.2969 2.24479 65.7552 2.09375 66.6719 1.9375C66.6719 1.84375 66.9792 1.71875 67.5938 1.5625C68.0208 1.21875 68.4479 0.973958 68.875 0.828125C69.0729 0.953125 69.2552 1.01562 69.4219 1.01562C70.026 0.765625 70.5781 0.640625 71.0781 0.640625ZM62 5.875V6.0625C62 6.19792 62.026 6.31771 62.0781 6.42188C62.0781 6.48438 62.0521 6.51562 62 6.51562L62.2656 9H62.1719C62.2344 9.125 62.2969 9.39583 62.3594 9.8125L62.2656 10C62.3385 10.5729 62.401 10.9427 62.4531 11.1094L62.3594 11.6562V12.2031L62.4531 12.75C62.3906 12.8542 62.3594 13.0052 62.3594 13.2031V13.2969C62.5469 14.3281 62.7917 15.4323 63.0938 16.6094C63.1562 17.2135 63.1875 17.6719 63.1875 17.9844L62.7188 21.5625V21.7344C63.2083 22.5365 63.4531 24.7083 63.4531 28.25H63.5469C63.5469 28.3125 63.5156 28.3438 63.4531 28.3438C63.5156 29.3542 63.6094 30.3646 63.7344 31.375L63.2812 33.6562C63.2812 33.8854 63.401 34.5312 63.6406 35.5938L63.375 38.0625C63.375 43.0521 63.4635 46.2292 63.6406 47.5938C63.7865 47.5938 64.0938 47.7188 64.5625 47.9688C64.6667 47.8229 64.7865 47.0885 64.9219 45.7656C64.8594 45.6615 64.8281 45.5365 64.8281 45.3906C64.8281 45.3385 64.8594 45.3125 64.9219 45.3125L64.8281 45.125C65.0156 44.4271 65.1094 44.0312 65.1094 43.9375C65.0469 43.75 64.9844 43.6562 64.9219 43.6562L65.0156 43.4688V43.375C65.0156 43.0833 64.9844 42.7812 64.9219 42.4688L65.0156 41.9062L64.9219 41.4531C65.0156 41.4531 65.1094 41.3646 65.2031 41.1875C65.2031 41.0625 65.1406 41 65.0156 41L65.1094 40.8125L65.0156 40.3594C65.0573 40.3594 65.2135 40.2031 65.4844 39.8906H65.5625C65.6562 39.8906 65.75 39.9844 65.8438 40.1719V41.0938C66.0312 41.375 66.125 41.6198 66.125 41.8281C66.125 41.8802 66.0938 41.9062 66.0312 41.9062L66.125 42.5625V43.2031L66.0312 43.75C66.1562 43.9479 66.2188 44.099 66.2188 44.2031C66.1562 44.7448 66.125 45.0521 66.125 45.125C66.1875 45.2396 66.2188 45.3281 66.2188 45.3906C66.2188 45.4531 66.1875 45.4844 66.125 45.4844L66.2188 45.9531V46.2188C66.2188 46.5104 66.1875 46.8177 66.125 47.1406L66.2188 47.6875C66.2188 47.8125 66.125 48.1198 65.9375 48.6094L67.2188 49.1562V48.9688L66.9375 48.5156V48.0625C66.9375 47.8542 67.0938 47.3333 67.4062 46.5V45.8594C67.4062 45.4323 67.3125 44.6667 67.125 43.5625L67.4062 41.9062C67.4062 41.8125 67.375 41.3281 67.3125 40.4531C67.375 39.3385 67.4062 38.6354 67.4062 38.3438C67.3438 38.0208 67.3125 37.8333 67.3125 37.7812C67.375 37.6667 67.4062 37.5781 67.4062 37.5156C67.3438 37.1927 67.3125 37.0104 67.3125 36.9688L67.4062 36.0469C67.4062 35.9844 67.375 35.8906 67.3125 35.7656L67.4062 35.2188V34.4844L67.3125 33.9375L67.4062 33.75L67.2188 32.0156C67.2188 31.099 67.4323 30.6406 67.8594 30.6406C67.8594 30.5781 67.9531 30.5469 68.1406 30.5469H68.2344C68.4219 30.5469 68.724 31.125 69.1406 32.2812L69.875 34.2969C69.9896 34.349 70.2344 34.8385 70.6094 35.7656H70.7969V35.0312C70.9844 34.4375 71.0781 34.1042 71.0781 34.0312L70.9844 33.8438C70.9844 33.7292 71.0417 33.5156 71.1562 33.2031C71 33.2031 70.849 33.0521 70.7031 32.75V32.5625C70.724 32.25 70.7865 32.0938 70.8906 32.0938L70.7969 31.9219V31.8281L70.9844 31.5469V31.375C70.8594 31.2188 70.7969 31.0938 70.7969 31C70.7969 30.9375 70.8281 30.9062 70.8906 30.9062L70.7969 30.4531C70.7969 30.2031 70.8594 29.8333 70.9844 29.3438C70.8594 29.3438 70.7969 29.2865 70.7969 29.1719V28.5312H70.9844C71.0469 28.5312 71.1979 28.9583 71.4375 29.8125C71.5208 29.8125 71.6146 29.901 71.7188 30.0781V30.2656C71.7188 30.401 71.6875 30.526 71.625 30.6406L71.7188 30.8125C71.6562 31.3333 71.625 31.7344 71.625 32.0156L71.9844 34.2031C71.9844 34.2656 71.9531 34.2969 71.8906 34.2969C71.9531 34.9115 71.9844 35.3698 71.9844 35.6719V36.2344C71.9844 36.6615 71.9271 36.875 71.8125 36.875L71.8906 37.0469V37.5156C71.8906 37.901 71.9219 38.2969 71.9844 38.7031V39.5312C72.1094 39.5938 72.2031 39.625 72.2656 39.625V39.7188L72.0781 39.9844V40.1719C72.0781 40.3177 72.1719 40.5938 72.3594 41L72.2656 41.5469L72.3594 42.1875L72.2656 42.7344C72.4427 43.2344 72.6562 43.6042 72.9062 43.8438C73.0312 43.4479 73.0938 43.1719 73.0938 43.0156C73.0938 42.9531 73.0625 42.9219 73 42.9219C73.1042 42.7344 73.1927 42.2135 73.2656 41.3594C73.151 41.3594 73.0938 41.3021 73.0938 41.1875V40.4531C73.1042 40.1406 73.1615 39.9844 73.2656 39.9844L73.1875 39.7969C73.1875 39.6823 73.276 39.625 73.4531 39.625V39.4375C73.2135 39.4375 73.0938 39.3177 73.0938 39.0781L73.1875 38.4219H73.0938C73.1979 38.2031 73.2865 37.901 73.3594 37.5156L73.1875 36.5L73.5469 35.5V35.4062H73.3594V34.9375H73.5469C73.5469 35.1667 73.6667 35.3229 73.9062 35.4062C74.1562 36.75 74.2812 37.6667 74.2812 38.1562C74.1562 38.1771 74.0938 38.2396 74.0938 38.3438V39.0781C74.0938 39.224 74.1562 39.4948 74.2812 39.8906C74.2188 40.0156 74.1875 40.1094 74.1875 40.1719L74.2812 40.3594C74.2812 40.4219 74.25 40.4531 74.1875 40.4531C74.2812 41.9427 74.4323 42.7031 74.6406 42.7344C74.5885 42.8594 74.5625 42.9531 74.5625 43.0156C74.5625 46.8698 74.6823 48.7969 74.9219 48.7969C75.599 48.651 75.9375 48.3438 75.9375 47.875C75.9375 47.7708 75.875 47.526 75.75 47.1406C75.75 47.0052 75.7812 46.8854 75.8438 46.7812C75.7812 46.1562 75.75 45.6667 75.75 45.3125V43.4688C75.75 43.2188 75.7812 42.8854 75.8438 42.4688C75.7812 42.3646 75.75 42.2083 75.75 42C75.75 41.9375 75.7812 41.849 75.8438 41.7344C75.7812 41.401 75.75 41.125 75.75 40.9062V40.625C75.75 40.4896 75.7812 40.3698 75.8438 40.2656L75.75 40.0781C75.8542 39.4635 75.974 39.1562 76.1094 39.1562H76.3906L76.6719 39.3438C76.6719 39.4688 76.5781 39.9271 76.3906 40.7188V40.8125C76.5156 40.8125 76.5781 40.8438 76.5781 40.9062C76.5781 41.25 76.5156 41.6146 76.3906 42C76.4531 42.6771 76.5156 43.0156 76.5781 43.0156L76.4844 43.2031L76.6719 45.0312C76.6094 45.0312 76.5781 45.0625 76.5781 45.125C76.6927 45.125 76.8438 45.8281 77.0312 47.2344L77.2188 47.3281H77.3125C77.6771 47.3281 77.8594 46.5938 77.8594 45.125L77.7656 44.75C77.8281 44.6562 77.8594 44.5052 77.8594 44.2969C77.8594 44.2344 77.8281 44.1406 77.7656 44.0156C77.8385 43.474 77.9583 43.2031 78.125 43.2031H78.2188C78.5417 43.2031 78.7552 43.4167 78.8594 43.8438L78.7812 44.0156C78.8333 44.1406 78.8594 44.2344 78.8594 44.2969C78.8594 44.3594 78.8333 44.3906 78.7812 44.3906L78.8594 44.8438V46.0469H78.9531C79.9219 45.3698 80.5052 45.0312 80.7031 45.0312V44.8438C80.0885 44.0729 79.7812 43.1562 79.7812 42.0938C78.9688 41.2292 78.3281 40.1615 77.8594 38.8906C77.6094 38.8906 77.3333 38.0625 77.0312 36.4062C76.5417 35.8021 76.2031 35.1927 76.0156 34.5781C75.6719 34.3802 75.2135 33.2188 74.6406 31.0938C74.099 30.0312 73.1823 27.7396 71.8906 24.2188L71.9844 24.0312C71.9219 23.9271 71.8906 23.8073 71.8906 23.6719C72.0781 23.4844 72.3854 22.6562 72.8125 21.1875C73.7917 19.2708 74.2812 17.7448 74.2812 16.6094C74.4271 16.6094 74.8229 15.7188 75.4688 13.9375C76.2708 12.6146 76.6719 11.7292 76.6719 11.2812C76.6719 10.4271 77.1302 9.60417 78.0469 8.8125C78.4115 8.26042 78.7448 7.1875 79.0469 5.59375C77.8698 5.22917 76.9219 5.01562 76.2031 4.95312C75.901 4.69271 75.75 4.39062 75.75 4.04688C75.6771 4.04688 75.4635 4.53646 75.1094 5.51562L75.2031 5.875L73.9062 12.1094C72.875 14.099 72.1458 15.9948 71.7188 17.7969C71.1979 19.9323 70.526 21 69.7031 21H68.7812C68.5312 21 68.349 19.8385 68.2344 17.5156V16.7031C68.2344 15.1927 68.3854 13.8438 68.6875 12.6562C68.5833 11.8229 68.4583 10.2031 68.3125 7.79688V7.53125C68.3125 7.32292 68.375 6.89062 68.5 6.23438C68.4375 6.23438 68.4062 6.20833 68.4062 6.15625H68.5L68.4062 5.96875L68.6875 3.76562C68.625 3.76562 68.5938 3.73438 68.5938 3.67188L63.375 5.14062C62.6979 5.63021 62.2396 5.875 62 5.875ZM64.8281 21.6406H64.9219C65.2344 22.776 65.3906 24.6146 65.3906 27.1562C64.9635 27.75 64.75 28.1146 64.75 28.25H64.4688V28.1562C64.5938 27.5417 64.7135 27.2344 64.8281 27.2344C64.776 26.6927 64.7188 26.3594 64.6562 26.2344C64.7188 25.9948 64.8073 25.7812 64.9219 25.5938V24.4062C64.9219 23.7188 64.8906 22.8281 64.8281 21.7344V21.6406ZM64.5625 28.4375H64.75C64.8854 28.4375 65.0677 28.9271 65.2969 29.9062L65.2031 30.0781C65.2865 30.9948 65.3802 31.4531 65.4844 31.4531L65.3906 31.6406C65.5052 32.4948 65.5625 33.1354 65.5625 33.5625L65.4844 33.9375L65.5625 34.125L65.3906 34.6719L65.4844 35.0312C65.4219 35.4583 65.3281 35.6719 65.2031 35.6719C65.0052 35.4115 64.7604 35.0156 64.4688 34.4844L64.5625 33.8438V33.75C64.5625 33.5938 64.5 33.3177 64.375 32.9219C64.4375 32.8177 64.4688 32.6979 64.4688 32.5625C64.4062 32.5625 64.375 32.5312 64.375 32.4688C64.5833 32.4688 64.7344 32.1042 64.8281 31.375C64.776 31.375 64.6562 31.1562 64.4688 30.7188L64.5625 30.5469C64.375 30.2135 64.2812 29.9375 64.2812 29.7188C64.3229 29.5312 64.4479 29.4062 64.6562 29.3438L64.5625 28.8906V28.4375ZM92.0156 5.78125L94.9531 6.23438H96.5938C97.1562 6.23438 97.9531 6.20833 98.9844 6.15625L99.1562 6.23438C99.2708 6.18229 99.8854 6.0625 101 5.875C102.344 5.90625 103.016 6.05729 103.016 6.32812C103.141 6.55729 103.203 6.80208 103.203 7.0625C103.203 7.33333 103.141 7.57812 103.016 7.79688C103.078 8.31771 103.109 8.74479 103.109 9.07812C102.807 10.3906 102.656 11.3385 102.656 11.9219V12.3906C102.656 12.526 102.625 12.6458 102.562 12.75C102.562 12.8125 102.594 12.8438 102.656 12.8438C102.656 14.3125 102.411 15.1979 101.922 15.5H101.453L101.094 15.2344C100.969 15.2344 100.661 15.2917 100.172 15.4062C99.3802 15.2917 98.9844 15.1719 98.9844 15.0469C98.349 15.2865 97.3073 15.5312 95.8594 15.7812C95.9844 16.0104 96.1094 16.8021 96.2344 18.1562L95.9531 18.8125C96.0156 19.4271 96.0469 19.9115 96.0469 20.2656V20.7344L96.1406 21.1875H96.4062C97.6354 20.4583 98.3125 20.0938 98.4375 20.0938C98.7917 20.1875 99.3698 20.3073 100.172 20.4531C100.276 20.8698 100.401 21.1771 100.547 21.375C100.547 23.2812 100.422 24.7188 100.172 25.6875V28.4375C99.9531 29.1042 99.6771 29.4375 99.3438 29.4375C98.0625 29.5208 97.4219 29.7083 97.4219 30C97.4219 30.4375 97.3594 30.8333 97.2344 31.1875L97.3281 32.4688C97.2031 33.0208 97.1406 33.4167 97.1406 33.6562V34.0312H97.5156C97.5469 34.0312 97.9115 33.9375 98.6094 33.75C98.9219 33.875 99.1667 33.9375 99.3438 33.9375C99.6771 33.9375 100.318 33.6615 101.266 33.1094C101.578 33.0469 101.734 32.9844 101.734 32.9219C102.38 33.2344 102.776 33.3906 102.922 33.3906C102.922 33.2656 103.229 33.1406 103.844 33.0156H104.484C104.547 33.0156 104.578 33.0469 104.578 33.1094L104.75 33.0156H105.125L105.219 33.4844C105.052 33.4844 104.776 34.401 104.391 36.2344C104.089 39.099 103.844 40.5312 103.656 40.5312C103.74 40.9792 103.891 41.4375 104.109 41.9062C104.109 42.3333 103.927 42.8229 103.562 43.375L104.031 45.2188V46.0469C104.031 46.099 104.057 46.125 104.109 46.125L104.031 46.3125C104.146 46.875 104.203 47.2135 104.203 47.3281C103.839 47.5677 103.562 47.6875 103.375 47.6875H101.922L101.641 47.5C100.286 47.9375 99.4323 48.1562 99.0781 48.1562L98.8906 48.0625L98.3438 48.1562H98.0625L97.4219 47.9688C96.349 47.9688 95.0938 48.2708 93.6562 48.875C92.7812 49.1875 92.2344 49.3438 92.0156 49.3438H90.0781C89.651 49.3438 89.3177 49.2812 89.0781 49.1562C88.9635 49.2188 88.8698 49.25 88.7969 49.25L88.4375 49.0625C88.3854 49.0625 88.2031 49.0938 87.8906 49.1562C86.6927 48.7292 85.9583 48.5156 85.6875 48.5156H84.7656C84.6406 48.5156 84.5781 48.4531 84.5781 48.3281V46.4062C84.7656 45.7812 84.9792 44.4688 85.2188 42.4688C85.3021 42.4688 85.3646 42.2812 85.4062 41.9062C85.2812 37.875 85.1615 35.6458 85.0469 35.2188C85.1094 35.1146 85.1406 34.9948 85.1406 34.8594L84.5781 33.3906C84.5781 33.0677 84.7031 32.151 84.9531 30.6406V29.2656L84.8594 28.7031C84.9219 28.599 84.9531 28.4792 84.9531 28.3438C84.9531 27.6771 84.8281 26.6042 84.5781 25.125V24.6719C84.5781 24.4323 84.7344 23.974 85.0469 23.2969C84.7969 23.2031 84.6719 23.1094 84.6719 23.0156V22.5625C84.6719 21.0938 84.6094 19.3802 84.4844 17.4219C84.4844 17.1198 84.5469 16.9688 84.6719 16.9688L84.5781 16.7812V16.1406C84.276 14.3698 84.125 13.3646 84.125 13.125C84.3125 12.2812 84.4062 11.3646 84.4062 10.375V9.90625C84.4062 9.84375 84.375 9.8125 84.3125 9.8125C84.3854 9.71875 84.4427 9.41667 84.4844 8.90625C84.4323 8.38542 84.4062 7.98438 84.4062 7.70312C84.5417 7.27604 84.6302 7.0625 84.6719 7.0625L84.5781 6.89062V6.70312C84.6198 6.33854 84.7135 6.15625 84.8594 6.15625C85.7135 6.15625 86.5677 6.36979 87.4219 6.79688L92.0156 5.78125ZM97.6094 8.71875C97.5469 8.71875 97.5156 8.6875 97.5156 8.625L95.125 9.35938C94.1146 9.35938 93.5052 9.42188 93.2969 9.54688C92.6719 9.48438 92.1823 9.45312 91.8281 9.45312H91.4688C91.2083 9.45312 90.8698 9.48438 90.4531 9.54688C89.9323 9.35938 89.5677 9.26562 89.3594 9.26562H88.3438C88.0417 9.28646 87.8906 9.34896 87.8906 9.45312C88.0052 10.151 88.0625 10.6406 88.0625 10.9219C88.0625 11.1198 88.0312 11.2708 87.9688 11.375C88.0521 12.3125 88.1146 12.8646 88.1562 13.0312L87.9688 13.7656C88.0312 13.8802 88.0625 13.9688 88.0625 14.0312C87.9479 14.9479 87.8906 15.5625 87.8906 15.875L87.9688 16.0469C87.8542 16.3594 87.7969 16.8177 87.7969 17.4219C87.7969 17.7656 87.8281 18.1979 87.8906 18.7188C87.7656 19.8438 87.7031 20.5469 87.7031 20.8281L87.7969 21.1875L87.6094 22.1094C88.0365 22.9323 88.25 24.3698 88.25 26.4219C88.375 27.026 88.526 27.4219 88.7031 27.6094V28.4375L88.625 28.9844C88.6771 29.099 88.7031 29.1927 88.7031 29.2656C88.7031 29.4115 88.6458 29.8073 88.5312 30.4531C88.5938 30.5677 88.625 30.6562 88.625 30.7188C88.25 31.25 88.0625 31.5573 88.0625 31.6406C88.1875 34.0469 88.3125 35.9115 88.4375 37.2344C88.4375 37.2969 88.4062 37.3281 88.3438 37.3281L88.4375 37.7812V39.0781C88.4375 39.2135 88.4062 39.3333 88.3438 39.4375C88.4062 39.5417 88.4375 39.6615 88.4375 39.7969V40.3594C88.3125 40.7865 88.25 41.0312 88.25 41.0938V41.8281C88.25 41.9635 88.2812 42.0833 88.3438 42.1875C88.2812 42.4896 88.2188 42.6406 88.1562 42.6406L88.3438 43.375C88.2812 43.5 88.25 43.5938 88.25 43.6562L88.3438 44.2031H88.25L88.3438 44.3906C88.3438 44.526 88.3125 44.6458 88.25 44.75C88.3125 44.8646 88.3438 44.9896 88.3438 45.125H88.25C88.25 45.1875 88.2812 45.2188 88.3438 45.2188L88.25 45.8594V46.5938H88.3438C88.7292 46.5938 89.25 46.4688 89.9062 46.2188C89.9062 45.9688 89.9635 45.4531 90.0781 44.6719L90 44.4844C90.0417 44.0573 90.099 43.8438 90.1719 43.8438L90.0781 43.375V42.1875L90.1719 41.0938H90.2656C90.3698 41.0938 90.526 41.6406 90.7344 42.7344H90.8125V42.8281C90.8333 43.4427 90.8958 43.75 91 43.75L90.9062 43.9375V44.1094L91 44.75H90.8125V44.9375C91.0312 44.9375 91.1562 45.2448 91.1875 45.8594L91.375 45.7656H91.9219V44.75L92.0156 44.2031L91.9219 44.0156L92.0156 43.5625L91.9219 42.9219C91.9219 42.8594 91.9531 42.8281 92.0156 42.8281L91.9219 42.375V42L92.0156 41.5469H91.5469C91.8594 40.526 92.0156 39.8229 92.0156 39.4375C91.8802 39.4375 91.7865 39.0729 91.7344 38.3438C91.8594 38.1354 91.9219 37.9792 91.9219 37.875L91.5469 37.6875C91.7135 37.0833 91.8385 36.7812 91.9219 36.7812L91.8281 36.5938C91.8906 35.8021 92.0104 35.1927 92.1875 34.7656L92.1094 34.2031V33.6562L92.375 33.2969V33.0156L92.1875 32.75C92.3125 32.6042 92.375 32.3854 92.375 32.0938H92.5625V32.375C92.5625 32.4375 92.5312 32.4688 92.4688 32.4688L92.5625 32.6562V33.4844C92.5625 33.7344 92.5938 34.0677 92.6562 34.4844C92.5938 34.5885 92.5625 34.7135 92.5625 34.8594L92.6562 35.4062H92.5625L92.6562 35.5938C92.5312 35.7917 92.4688 35.974 92.4688 36.1406V36.2344C92.4688 36.2865 92.5 36.3125 92.5625 36.3125L92.4688 36.5V37.4219L92.8438 42V42.0938C92.8438 42.6771 92.75 43.1667 92.5625 43.5625L93.2031 44.9375L93.1094 45.3906L93.2031 46.0469H93.8438C93.9062 46.0469 94.0573 45.7708 94.2969 45.2188C94.2448 45.0938 94.2188 45 94.2188 44.9375C94.2188 44.875 94.2448 44.7865 94.2969 44.6719C94.1823 43.9948 94.125 43.2292 94.125 42.375C93.9583 42.375 93.8333 42.1302 93.75 41.6406V41.2656C93.75 41.1823 93.8438 41.0938 94.0312 41H94.2188C94.4167 41.4688 94.7188 42.9635 95.125 45.4844H95.0312C95.0833 45.9115 95.2969 46.125 95.6719 46.125L96.1406 46.0469V45.5781C96.3177 45.3802 96.4062 45.2292 96.4062 45.125H96.6875C96.9375 45.1979 97.0625 45.474 97.0625 45.9531H97.3281C97.8802 45.9531 98.1562 45.6771 98.1562 45.125C98.0312 44.1042 97.9688 43.25 97.9688 42.5625C98.0104 42.5625 98.1667 42.4062 98.4375 42.0938C98.5521 42.4896 98.6094 42.7656 98.6094 42.9219V43.1094L98.25 43.2031V43.2812C98.6146 43.5417 98.7969 43.7292 98.7969 43.8438L98.7031 44.0156C98.8281 45.1823 98.9531 45.7656 99.0781 45.7656C99.599 45.7656 100.24 45.6406 101 45.3906C101 45.2552 100.969 45.1354 100.906 45.0312C100.906 43.8333 101.182 41.7552 101.734 38.7969C101.734 38.526 101.854 37.6719 102.094 36.2344C101.896 36.1094 101.745 36.0469 101.641 36.0469C101.089 36.224 100.724 36.3125 100.547 36.3125C100.484 36.3125 100.453 36.2865 100.453 36.2344L98.7031 36.7812C98.7031 37.0729 97.9115 37.2552 96.3281 37.3281C96.0885 37.5156 95.8438 37.6094 95.5938 37.6094C94.6146 37.6094 94.125 37.3333 94.125 36.7812C93.9375 36.7812 93.8125 35.4948 93.75 32.9219C94.1771 32.401 94.3906 31.5469 94.3906 30.3594C94.2865 28.9531 94.1354 28.25 93.9375 28.25C93.8542 28.25 93.7604 28.1562 93.6562 27.9688V27.8906C93.6562 27.6198 94.8802 27.2812 97.3281 26.875V25.9531C97.3281 25.7135 97.4219 25.1979 97.6094 24.4062V23.5781L97.5156 23.3906C96.526 23.4531 95.9427 23.5469 95.7656 23.6719C95.526 23.6094 95.3125 23.5781 95.125 23.5781L93.9375 23.75C93.6042 23.75 93.3281 23.2344 93.1094 22.2031V22.1094C93.1198 21.4948 93.1823 21.1875 93.2969 21.1875C93.1094 18.625 92.9271 17.0677 92.75 16.5156V16.2344C92.75 15.5156 92.9323 15.0573 93.2969 14.8594L93.2031 14.6719V14.5C93.9948 13.9583 94.9115 13.651 95.9531 13.5781H96.9688C98.2708 13.2135 99.0625 13.0312 99.3438 13.0312H99.5312L99.625 11.9219V11.375C99.625 11.2396 99.6562 11.1198 99.7188 11.0156C99.6562 10.901 99.625 10.776 99.625 10.6406C99.625 10.3594 99.6875 9.86979 99.8125 9.17188L99.7188 8.53125C98.3333 8.60417 97.6302 8.66667 97.6094 8.71875ZM89.8125 22.375H90.0781C90.0781 22.8021 90.0208 23.0156 89.9062 23.0156C90.1458 23.3906 90.2656 23.6354 90.2656 23.75L90.1719 24.2188L90.2656 24.8594C90.1406 25.2448 90.0781 25.4583 90.0781 25.5H89.7188L89.8125 24.6719C89.75 24.4948 89.6875 24.4062 89.625 24.4062L89.7188 23.75L89.625 22.9375C89.75 22.7292 89.8125 22.5417 89.8125 22.375ZM89.625 26.1406H89.9062C90.0208 26.5677 90.0781 26.8125 90.0781 26.875C89.9635 27.2604 89.9062 27.474 89.9062 27.5156L90.0781 27.6094C90.0781 27.5469 90.1094 27.5156 90.1719 27.5156V27.6094L90.0781 28.0625C90.2656 28.0625 90.4219 28.6146 90.5469 29.7188L90.4531 29.9062L90.6406 31.0938C90.5781 31.7604 90.5469 32.3385 90.5469 32.8281H90.4531C90.5052 32.9635 90.5677 33.3021 90.6406 33.8438C90.5781 33.9375 90.5469 34.1198 90.5469 34.3906C90.401 34.2656 90.276 34.2031 90.1719 34.2031H89.9062C89.9062 34.0052 89.75 33.8542 89.4375 33.75L89.7188 32.75L89.5312 32.375C89.6562 32.1771 89.7188 31.9948 89.7188 31.8281C89.5938 31.8281 89.5312 31.7656 89.5312 31.6406V31.5469C89.5312 31.224 89.5625 30.9479 89.625 30.7188C89.5417 29.7396 89.4792 29.1927 89.4375 29.0781C89.5 28.9531 89.5312 28.8594 89.5312 28.7969C89.5312 28.6719 89.5 28.6094 89.4375 28.6094L89.5312 27.7031V26.7812C89.6562 26.6354 89.7188 26.5156 89.7188 26.4219C89.6562 26.2969 89.625 26.2031 89.625 26.1406ZM124.141 3.21875C124.339 3.33333 124.521 3.39062 124.688 3.39062C124.896 3.27604 125.078 3.21875 125.234 3.21875C125.391 3.33333 125.547 3.39062 125.703 3.39062C125.516 6.25521 125.302 8.27604 125.062 9.45312C125.062 9.64062 124.938 9.94271 124.688 10.3594C124.469 13.2969 124.318 14.7656 124.234 14.7656C123.589 15.0677 122.885 15.2188 122.125 15.2188C121.302 15.3438 120.781 15.4062 120.562 15.4062L119.469 15.2188C119.271 15.3438 119.12 15.4062 119.016 15.4062V16.4219L118.547 19.5312C118.911 22.7083 119.25 24.2969 119.562 24.2969C119.927 26.6719 120.109 28.0156 120.109 28.3281V28.4219C119.984 28.8594 119.922 29.1042 119.922 29.1562V32.5469C119.922 32.974 119.859 33.1875 119.734 33.1875L119.922 35.8594L119.828 36.0312C119.828 36.0938 119.859 36.125 119.922 36.125L119.734 38.2344C119.818 38.776 119.88 39.1146 119.922 39.25L119.828 39.4219C120.63 40.8594 121.031 41.776 121.031 42.1719L120.844 43.4688C120.906 43.5833 120.938 43.6719 120.938 43.7344L120.75 44.5625C120.875 45.0104 120.995 45.7448 121.109 46.7656C121.057 47.7344 121.031 48.3125 121.031 48.5C121.083 49.5729 121.109 50.2448 121.109 50.5156C120.63 51.0677 120.172 51.3438 119.734 51.3438C119.266 50.9792 118.932 50.7969 118.734 50.7969C117.141 51.1615 116.344 51.4948 116.344 51.7969H116.25C114.76 51.4323 113.875 51.25 113.594 51.25H112.594C112.177 51.25 111.229 51.4323 109.75 51.7969V47.3125C109.75 47.0104 109.656 46.3385 109.469 45.2969C109.531 44.9635 109.562 44.7188 109.562 44.5625C109.562 44.2396 109.531 43.9635 109.469 43.7344C109.531 43.1615 109.562 42.6146 109.562 42.0938V41.7188C109.438 40.3438 109.375 39.6094 109.375 39.5156V38.7812C109.375 38.6458 109.5 38.2812 109.75 37.6875C109.531 33.8333 109.318 31.9062 109.109 31.9062C109.047 31.8125 109.016 31.6615 109.016 31.4531V31C109.016 30.7396 109.26 30.3073 109.75 29.7031V28.8906C109.75 28.6302 109.781 28.3854 109.844 28.1562L109.656 26.7812L109.75 26.5938C109.625 26.0208 109.562 25.5312 109.562 25.125L109.844 23.9375C109.719 23.0625 109.656 22.4479 109.656 22.0938C109.719 21.6562 109.781 21.3854 109.844 21.2812C109.719 20.9062 109.594 19.5 109.469 17.0625V16.5156L109.109 14.2188C109.047 14.2188 109.016 14.125 109.016 13.9375C108.464 13.9792 108.188 14.0417 108.188 14.125C107.219 13.6354 106.365 13.2708 105.625 13.0312L105.984 11.4688C105.984 11.4062 105.953 11.3125 105.891 11.1875L105.984 10.7344C105.87 7.95312 105.75 6.36458 105.625 5.96875L105.719 5.78125C105.594 5.46875 105.531 5.25521 105.531 5.14062C106.146 4.97396 106.453 4.79167 106.453 4.59375H107.094L109.203 3.85938L109.375 3.95312H109.656L109.938 3.76562C109.948 3.89062 110.005 3.95312 110.109 3.95312L111.031 3.85938C112.521 4.22396 113.438 4.40625 113.781 4.40625H114.969C115.24 4.40625 115.484 4.34375 115.703 4.21875C116.016 4.34375 116.229 4.40625 116.344 4.40625L117.078 4.21875C117.391 4.40625 117.635 4.5 117.812 4.5L118.734 4.40625L119.281 4.5C120.385 3.90625 121.427 3.51042 122.406 3.3125L123.047 3.39062C123.589 3.27604 123.953 3.21875 124.141 3.21875ZM119.922 6.875C119.318 6.82292 118.859 6.79688 118.547 6.79688H118.359C118.224 6.79688 118.104 6.82292 118 6.875C117.875 6.78125 117.385 6.69271 116.531 6.60938C116.125 6.29688 115.792 6.14062 115.531 6.14062C115.302 6.14062 114.901 6.26562 114.328 6.51562C114.193 6.51562 114.073 6.48438 113.969 6.42188C113.531 6.42188 112.49 6.54688 110.844 6.79688C110.344 6.79688 109.609 6.85417 108.641 6.96875H108.562L108.094 6.875L107.828 9.54688C107.964 10.9531 108.234 11.6562 108.641 11.6562C109.703 11.4688 110.5 11.375 111.031 11.375L111.219 11.4688L111.406 11.375C111.781 11.4167 112.115 11.5365 112.406 11.7344L112.312 12.2031V15.5C112.312 15.6354 112.281 15.7552 112.219 15.8594C112.406 16.3698 112.594 18.1771 112.781 21.2812C112.667 22.0104 112.573 22.375 112.5 22.375L112.594 23.2969V25.3125C112.594 25.7812 112.714 26.3021 112.953 26.875C112.911 27.7083 112.76 28.4688 112.5 29.1562C112.74 30.5104 112.859 31.3073 112.859 31.5469V32.7344C112.859 33.0677 112.771 33.7083 112.594 34.6562C112.719 35.2292 112.781 35.6875 112.781 36.0312V36.5C112.292 38.1458 112.047 39.0625 112.047 39.25C112.047 39.3542 112.292 40.026 112.781 41.2656C112.781 41.4635 112.688 42.0104 112.5 42.9062C112.562 43.9375 112.656 44.7656 112.781 45.3906L112.688 46.2969C112.688 46.5781 112.719 46.9792 112.781 47.5C112.719 47.8854 112.688 48.401 112.688 49.0469L112.859 49.1406H113.141C113.266 49.1406 113.328 49.0833 113.328 48.9688V48.875C113.328 48.8125 113.297 48.7812 113.234 48.7812L113.422 48.4062L113.328 47.9531C113.443 47.1823 113.5 46.6927 113.5 46.4844C113.448 46.1615 113.422 45.9792 113.422 45.9375C113.682 44.3438 113.865 43.3958 113.969 43.0938C113.969 43.0312 113.938 43 113.875 43C114 41.9583 114.182 41.4375 114.422 41.4375L114.328 41.2656V41.1719L114.422 40.9844C114.245 40.9844 114.156 40.9531 114.156 40.8906C114.208 40.526 114.297 40.3438 114.422 40.3438H114.609L114.797 41.625L114.609 42.3594C114.651 42.849 114.714 43.0938 114.797 43.0938L114.703 43.2812C114.766 43.8125 114.797 44.1146 114.797 44.1875C114.547 45.7396 114.422 46.5677 114.422 46.6719C114.484 46.776 114.516 46.8958 114.516 47.0312V47.7656L114.328 48.0469V48.6875C114.349 48.8125 114.411 48.875 114.516 48.875H114.969C115.458 48.875 115.703 48.7188 115.703 48.4062C115.589 48.1562 115.531 47.974 115.531 47.8594C115.646 47.0885 115.703 46.599 115.703 46.3906H116.25V46.5781C116.135 46.5781 116.078 46.6094 116.078 46.6719C116.255 46.9427 116.375 47.3073 116.438 47.7656L116.344 48.3125V48.4062C116.354 48.4896 116.51 48.6146 116.812 48.7812H117.547C117.682 48.7812 117.771 48.5052 117.812 47.9531C117.75 47.3281 117.719 46.8385 117.719 46.4844H117.812L117.719 46.2969V45.8438C117.719 45.5104 117.688 45.0833 117.625 44.5625C117.625 44.5 117.656 44.4688 117.719 44.4688C117.719 43.7604 117.474 42.1094 116.984 39.5156C116.984 38.1615 116.802 36.7552 116.438 35.2969L116.531 35.125C116.406 34.8958 116.344 34.6198 116.344 34.2969L116.438 33.9219C116.438 33.8594 116.406 33.8281 116.344 33.8281L116.531 32.1875C116.469 32.0625 116.438 31.9688 116.438 31.9062C116.438 31.7708 116.469 31.651 116.531 31.5469C116.469 31.1302 116.438 30.7917 116.438 30.5312C116.438 29.9792 116.594 28.9115 116.906 27.3281V26.875C116.906 26.3229 116.719 24.6719 116.344 21.9219C116.344 21.6823 116.286 20.8542 116.172 19.4375C116.172 19.0938 116.229 18.0885 116.344 16.4219C116.281 15.5885 116.25 15.0677 116.25 14.8594C116.292 13.6927 116.479 13.1094 116.812 13.1094C117.031 13.2344 117.302 13.2969 117.625 13.2969C117.979 13.1198 118.411 12.9375 118.922 12.75C119.641 12.875 120.099 12.9375 120.297 12.9375L122.219 12.2969L122.406 10.2812L122.312 9.17188C122.375 8.33854 122.406 7.81771 122.406 7.60938C122.281 6.51562 122.188 5.96875 122.125 5.96875C122.01 5.90625 121.917 5.875 121.844 5.875C120.573 6.40625 119.932 6.73958 119.922 6.875ZM114.156 28.8906H114.234C114.359 28.901 114.422 28.9583 114.422 29.0625L114.328 29.625L114.422 30.2656C114.359 31.1198 114.297 31.5781 114.234 31.6406C114.297 31.7656 114.359 32.0365 114.422 32.4531C114.359 33.1302 114.271 33.4688 114.156 33.4688H114.062V33.375C114.062 32.9792 114.12 32.5521 114.234 32.0938C114.12 32.0312 114.031 32 113.969 32C113.969 31.9375 114 31.8438 114.062 31.7188C114.062 31.6146 114 31.4323 113.875 31.1719C114 31.1719 114.062 31.0833 114.062 30.9062L113.969 30.3438C114 30 114.089 29.7292 114.234 29.5312V29.3438L114.156 28.8906ZM114.422 38.4219C114.422 38.4844 114.453 38.5156 114.516 38.5156L114.422 38.6875V39.1562L114.516 39.7969L114.328 39.8906H114.156V39.3281C114.156 39.276 114.182 39.25 114.234 39.25C114.234 39.1875 114.208 39.1562 114.156 39.1562C114.208 38.6667 114.297 38.4219 114.422 38.4219ZM142.344 1.46875H142.625C143.073 1.875 143.958 2.30208 145.281 2.75C145.469 2.75 145.62 3.23958 145.734 4.21875C145.922 4.36458 146.016 4.57812 146.016 4.85938C146.016 5.00521 145.984 5.13021 145.922 5.23438C146.047 5.50521 146.109 5.90104 146.109 6.42188H146.016L146.109 6.60938C146.109 7.38021 146.229 8.54167 146.469 10.0938C146.469 10.5104 146.625 11.2135 146.938 12.2031C147.062 12.8073 147.125 13.3542 147.125 13.8438V13.9375C147 14.0938 146.938 14.2188 146.938 14.3125C146.323 14.3125 145.438 14.5573 144.281 15.0469C143.677 15.0469 143.156 15.3177 142.719 15.8594C142.344 16.3177 141.76 16.6562 140.969 16.875V16.9688C140.312 16.9688 139.854 16.4167 139.594 15.3125C139.656 14.9792 139.688 14.7344 139.688 14.5781C139.688 14.5156 139.599 14.0573 139.422 13.2031H138.953L138.312 13.1094L138.219 13.2969V13.9375C138.104 14.5312 138.047 14.8698 138.047 14.9531C138.224 15.9844 138.495 16.8073 138.859 17.4219L138.5 19.9062V20.3594H138.594C139.156 20.2344 139.49 20.1719 139.594 20.1719C140.979 20.2344 141.745 20.2969 141.891 20.3594C142.005 20.2969 142.099 20.2656 142.172 20.2656C145.349 21.4427 146.938 22.2969 146.938 22.8281C147.073 22.8281 147.161 23.5312 147.203 24.9375H147.125L147.203 25.125C146.714 28.625 146.443 30.8542 146.391 31.8125H146.469C146.417 31.9375 146.391 32.0312 146.391 32.0938C146.391 32.3125 146.479 32.9531 146.656 34.0156L146.562 34.2031C146.812 34.7135 146.969 35.6302 147.031 36.9531C147.094 36.9531 147.125 36.9844 147.125 37.0469C147.062 37.6719 147.031 38.1615 147.031 38.5156V39.25C147.031 39.3854 147 39.5052 146.938 39.6094C147.062 40.4844 147.214 41.2188 147.391 41.8125L146.938 45.0156C147.062 45.4115 147.125 45.6875 147.125 45.8438V46.2969C147.125 46.974 146.849 47.7708 146.297 48.6875C146.297 49.3333 145.625 50.1562 144.281 51.1562C144.281 51.3021 143.911 51.5156 143.172 51.7969V51.8906H142.906C142.448 51.8906 141.589 51.9531 140.328 52.0781V51.9844C140.266 51.9844 140.234 52.0156 140.234 52.0781L139.781 51.9844H139.141C138.62 51.9844 138.068 51.9531 137.484 51.8906C136.578 51.974 135.417 52.401 134 53.1719C134 53.2552 133.818 53.3177 133.453 53.3594C131.932 53.2552 131.172 53.0729 131.172 52.8125C130.578 52.1354 129.599 51.4635 128.234 50.7969C128.047 50.6406 127.891 49.8438 127.766 48.4062C127.891 47.5417 127.953 47.0521 127.953 46.9375C127.891 46.3958 127.802 46 127.688 45.75C127.74 45.4167 127.766 45.1719 127.766 45.0156L127.688 44.375C127.74 44.2604 127.766 44.1719 127.766 44.1094C127.651 44.1094 127.594 44.0469 127.594 43.9219V43.0938C127.469 42.5 127.286 41.9219 127.047 41.3594C127.161 40.651 127.219 40.1302 127.219 39.7969C126.917 37.6927 126.672 36.5312 126.484 36.3125C127.047 35.9583 128.302 35.651 130.25 35.3906C130.979 35.1927 131.375 34.9792 131.438 34.75H131.25C131.042 34.8125 130.922 34.8438 130.891 34.8438C129.786 34.5208 129.234 34.2135 129.234 33.9219C128.078 33.6927 127.5 33.1771 127.5 32.375C127.354 32.375 127.203 32.0052 127.047 31.2656C127.141 30.8073 127.26 29.7708 127.406 28.1562C127.344 28.0417 127.312 27.9167 127.312 27.7812H127.406C127.344 27.7083 127.281 27.2812 127.219 26.5C127.385 26.5 127.51 26.1667 127.594 25.5C127.594 24.6667 127.318 23.2865 126.766 21.3594V20.1719C127.193 19.5469 127.406 18.875 127.406 18.1562C127.344 16.9375 127.281 16.3281 127.219 16.3281L127.312 16.1406C126.656 13.2344 126.323 11.2188 126.312 10.0938C126.229 10.0938 126.135 9.72396 126.031 8.98438V8.90625C126.76 7.86458 127.37 6.64062 127.859 5.23438C128.599 3.97396 129.214 3.20833 129.703 2.9375C129.797 2.9375 130.193 2.81771 130.891 2.57812H131.344C131.698 2.57812 132.188 2.54688 132.812 2.48438C133.344 2.66146 133.865 2.75 134.375 2.75C134.521 2.75 135.193 2.69271 136.391 2.57812C136.745 2.75521 137.109 2.84375 137.484 2.84375C139.359 2.35417 140.979 1.89583 142.344 1.46875ZM138.312 5.32812H136.75C135.021 5.50521 133.589 5.59375 132.453 5.59375H131.719C131.583 5.59375 131.458 5.5625 131.344 5.5C130.729 5.82292 130.302 6.40625 130.062 7.25L129.969 7.60938C130.094 8.28646 130.156 8.74479 130.156 8.98438C130.156 9.42188 130.094 9.85417 129.969 10.2812C129.969 10.3333 130 10.3594 130.062 10.3594C130 10.7969 129.969 11.0417 129.969 11.0938C129.969 11.9583 130.094 13.0312 130.344 14.3125C130.344 14.4479 130.312 14.5677 130.25 14.6719C130.375 16.1406 130.469 16.875 130.531 16.875L130.438 17.3281V17.9688C130.438 18.1146 130.469 18.2396 130.531 18.3438C130.281 19.1562 130.156 19.6771 130.156 19.9062C130.344 20.5938 130.438 21.7812 130.438 23.4688V23.9375C130.438 24 130.406 24.0312 130.344 24.0312C130.406 24.1354 130.526 24.6823 130.703 25.6719C130.703 25.8177 130.521 26.4896 130.156 27.6875C130.406 28.0938 130.531 28.5521 130.531 29.0625V29.5312C130.531 29.5938 130.557 29.625 130.609 29.625C130.495 29.9062 130.438 30.1771 130.438 30.4375C130.812 31.2917 131.422 31.7188 132.266 31.7188C133.724 31.7188 134.703 31.8125 135.203 32H136.031L136.297 31.8125C136.359 31.8125 136.391 31.8438 136.391 31.9062L136.844 31.8125H137.031C137.167 31.8125 137.292 31.8438 137.406 31.9062L137.578 31.8125C138.807 32.0521 139.422 32.6354 139.422 33.5625C139.047 35.6667 138.833 37.224 138.781 38.2344C138.833 38.474 138.859 38.7188 138.859 38.9688C138.203 39.6458 137.776 39.9844 137.578 39.9844C135.318 40.2135 134.188 40.5469 134.188 40.9844H133.188C132.635 40.4635 132.359 40.1562 132.359 40.0625L132.453 39.8906C132.328 39.2656 132.266 38.8958 132.266 38.7812C132.266 38.7188 132.297 38.6302 132.359 38.5156L132.266 37.9531V37.4062C130.755 37.75 129.99 37.9635 129.969 38.0469C129.667 39.4115 129.516 40.6979 129.516 41.9062C129.651 41.9062 129.896 42.5781 130.25 43.9219V44.2812C130.25 44.4062 130.219 44.4688 130.156 44.4688L130.25 45.1094V46.4844C130.25 46.7448 130.281 47.0833 130.344 47.5C130.219 47.7188 130.156 47.9635 130.156 48.2344V48.6875C130.156 49.1771 130.521 49.4219 131.25 49.4219C131.25 49.3594 131.281 49.2656 131.344 49.1406L131.25 48.6875L131.531 46.8594C131.531 46.5885 131.411 46.2812 131.172 45.9375V45.8438C131.182 45.5417 131.24 45.3906 131.344 45.3906L131.25 44.9219V44.75C131.5 44.75 131.625 44.6562 131.625 44.4688C131.562 44.4688 131.531 44.4375 131.531 44.375L131.344 44.4688H131.25L131.078 43.6406H131.172C131.109 43.526 131.078 43.4375 131.078 43.375L131.438 42.1719H131.531V42.5469L131.438 42.7344C131.562 42.7344 131.625 42.8229 131.625 43L131.531 43.6406C131.698 43.6406 131.849 43.9792 131.984 44.6562C132.047 44.6562 132.078 44.6875 132.078 44.75V45.2969C132.203 46.7135 132.448 47.9948 132.812 49.1406L132.719 49.7031C133.031 49.7552 133.188 49.8125 133.188 49.875C133.25 49.875 133.281 49.8438 133.281 49.7812L133.734 49.875C134.036 49.875 134.188 49.5729 134.188 48.9688H134.094V48.6875C134.344 48.4792 134.469 48.2969 134.469 48.1406H134.375C134.25 48.1406 134.188 48.0781 134.188 47.9531V47.6719H134.469L134.375 47.2188V47.125C134.396 47 134.458 46.9375 134.562 46.9375H134.656C134.656 47.2708 134.745 47.5156 134.922 47.6719V48.0469C134.828 48.0469 134.74 48.1094 134.656 48.2344L135.109 49.0469C135.109 49.2344 135.198 49.3281 135.375 49.3281C135.781 49.2031 136.057 49.1406 136.203 49.1406H137.484C137.63 49.1406 137.786 48.7135 137.953 47.8594C137.828 47.8594 137.766 47.7969 137.766 47.6719V47.5C137.786 47.375 137.849 47.3125 137.953 47.3125L137.859 46.9375C137.859 46.625 138.01 46.3854 138.312 46.2188V46.2969L138.219 46.4844L138.5 47.0312H138.312L138.406 48.1406V48.6875C138.406 48.7708 138.5 48.8646 138.688 48.9688H139.422C140.13 48.9688 140.62 48.9062 140.891 48.7812L140.797 48.3125C140.797 48.2708 140.828 48.0885 140.891 47.7656C140.891 47.7031 140.859 47.6719 140.797 47.6719L140.891 47.3125C140.891 47.2396 140.859 46.9323 140.797 46.3906L140.891 46.2188C140.891 46.1458 140.859 46.0521 140.797 45.9375L140.969 43.9219C140.917 43.401 140.891 43.0052 140.891 42.7344C140.943 42.6094 140.969 42.5156 140.969 42.4531C140.917 42.3385 140.891 42.2448 140.891 42.1719L140.969 42C140.969 41.9271 140.943 41.8333 140.891 41.7188C140.943 40.6146 141 40.0365 141.062 39.9844C141 39.7344 140.969 39.5156 140.969 39.3281C140.969 38.9844 141.031 38.651 141.156 38.3281L141.062 38.1406C141.062 38.0781 141.094 37.9896 141.156 37.875C141.073 37.3854 140.984 37.1406 140.891 37.1406C141.005 36.3385 141.062 35.849 141.062 35.6719C141.062 35.6198 140.943 35.375 140.703 34.9375C140.766 34.4896 140.885 34.0938 141.062 33.75L140.969 33.5625V33.1094C140.99 32.9844 141.052 32.9219 141.156 32.9219H141.25C141.25 33.3385 141.37 34.0417 141.609 35.0312C141.495 35.0312 141.438 35.1198 141.438 35.2969C141.615 35.7344 141.703 35.9792 141.703 36.0312L141.609 36.5781V36.6719C141.797 36.901 141.891 37.1146 141.891 37.3125C141.891 37.4792 141.828 37.6667 141.703 37.875C141.891 37.9271 141.984 38.1094 141.984 38.4219V38.5156L141.797 38.7812V38.875L141.891 39.0625C141.766 39.0833 141.703 39.1458 141.703 39.25V39.3281C141.776 39.3281 141.87 39.3594 141.984 39.4219C141.922 39.8281 141.828 40.1667 141.703 40.4375L141.891 41.8125C141.766 41.8333 141.703 41.8958 141.703 42C141.828 42.3958 141.891 42.6667 141.891 42.8125C141.828 42.8125 141.734 42.9375 141.609 43.1875C141.693 43.8542 141.786 44.1875 141.891 44.1875C141.703 44.9583 141.609 45.4167 141.609 45.5625C141.609 45.6771 141.672 45.8646 141.797 46.125H141.703C141.839 46.625 141.964 46.8958 142.078 46.9375L141.891 47.5938C142.016 47.5938 142.109 47.8073 142.172 48.2344H142.266C142.766 47.724 143.25 46.9896 143.719 46.0312C143.719 45.875 143.693 45.6302 143.641 45.2969C143.641 45.151 143.698 44.6927 143.812 43.9219C143.698 41.9635 143.641 40.4635 143.641 39.4219C143.693 38.474 143.781 37.8646 143.906 37.5938C143.729 36.4271 143.641 35.2969 143.641 34.2031C143.641 34.0677 143.667 33.9427 143.719 33.8281C143.667 33.724 143.609 33.3594 143.547 32.7344C143.661 32.1927 143.812 31.6406 144 31.0781C143.875 29.9948 143.812 29.2917 143.812 28.9688C143.938 27.9271 144 27.0729 144 26.4062V25.8594C144 25.474 143.906 25.0469 143.719 24.5781V23.8438C142.51 23.1042 141.807 22.7344 141.609 22.7344L141.062 22.8281C139.875 22.651 139.052 22.5625 138.594 22.5625C138.49 22.5625 138.307 22.6198 138.047 22.7344C137.932 22.6823 137.807 22.6562 137.672 22.6562L137.312 22.7344C135.844 22.526 135.109 21.8854 135.109 20.8125V20.5469C135.109 18.8385 135.292 17.3385 135.656 16.0469C135.292 14.901 135.109 14.0469 135.109 13.4844C135.286 12.7865 135.375 12.2344 135.375 11.8281V10.2812C135.375 10.1042 136.141 9.91667 137.672 9.71875C137.693 9.60417 137.755 9.54688 137.859 9.54688C137.922 9.54688 138.01 9.57292 138.125 9.625C139.052 9.51042 139.786 9.35938 140.328 9.17188C141.245 9.47396 141.703 9.93229 141.703 10.5469C141.922 10.651 142.078 11.3854 142.172 12.75C142.234 12.75 142.266 12.8125 142.266 12.9375H142.344C142.917 12.625 143.62 12.0417 144.453 11.1875L144.281 10.9219V10.8281C143.948 6.84896 143.516 4.85938 142.984 4.85938C141.995 4.85938 140.438 5.01562 138.312 5.32812ZM135.375 34.6562C135.375 34.8229 135.438 35.0052 135.562 35.2031L135.469 35.5781C135.469 35.7135 135.5 35.8333 135.562 35.9375C135.5 36.4583 135.469 36.8906 135.469 37.2344V37.7812L136.109 37.875L136.203 37.6875C136.203 37.4792 136.172 37.3281 136.109 37.2344C136.172 36.7135 136.203 36.2812 136.203 35.9375V35.7656C136.203 35.5052 136.172 35.1667 136.109 34.75C136.172 34.6354 136.203 34.5469 136.203 34.4844L136.031 34.3906C135.594 34.4531 135.375 34.5417 135.375 34.6562Z" fill="#ECEBE4"/>
</svg>
